<?xml version="1.0" standalone="no"?>
<!DOCTYPE svg PUBLIC "-//W3C//DTD SVG 1.1//EN" "http://www.w3.org/Graphics/SVG/1.1/DTD/svg11.dtd" >
<svg xmlns="http://www.w3.org/2000/svg">
<metadata>
This is a custom SVG webfont generated by Font Squirrel.
Copyright   : Copyright c 2011 by Kimberly Geswein All rights reserved
Designer    : Kimberly Geswein
Foundry     : Kimberly Geswein
</metadata>
<defs>
<font id="StarsFromOurEyesRegular" horiz-adv-x="1424" >
<font-face units-per-em="2048" ascent="1638" descent="-410" />
<missing-glyph horiz-adv-x="1000" />
<glyph unicode=" "  horiz-adv-x="1000" />
<glyph unicode="&#x09;" horiz-adv-x="1000" />
<glyph unicode="&#xa0;" horiz-adv-x="1000" />
<glyph unicode="!" horiz-adv-x="750" d="M50 1794v28q0 16 3 31t11 25t26 10q56 -32 123 -51t137 -28t142 -10t142 3q22 -10 31 -40t9 -54v-10q-46 -114 -109 -248t-118 -276t-86 -282t-13 -266q-2 -10 -14 -23t-28 -15t-36 15t-38 69zM174 1740q0 -14 5 -65t14 -120t21 -145t27 -142t33 -112t38 -52q8 60 27 107 t47 107t66 147t84 231zM184 170q0 28 8 64t25 68t43 54t62 22q28 0 52 -17t24 -49q-56 -70 -65 -109t11 -50t58 2t73 45t57 80t10 108q24 0 40 -14t27 -35t15 -45t4 -42q0 -54 -28 -101t-71 -81t-97 -54t-104 -20q-78 0 -111 52t-33 122z" />
<glyph unicode="&#x22;" horiz-adv-x="874" d="M60 1270q0 60 13 123t41 115t75 85t117 33q16 0 39 -1t44 -7t36 -19t15 -37q0 -42 -17 -71t-43 -53t-57 -43t-57 -40t-43 -46t-17 -59q0 -30 14 -54t30 -45t30 -40t14 -39t-10 -37t-32 -17q-44 0 -79 26t-60 64t-39 82t-14 80zM476 1206q0 44 12 112t39 132t71 109 t110 45q18 0 38 -11t35 -29t25 -38t10 -38q0 -30 -16 -47t-40 -30t-51 -26t-51 -37t-40 -63t-16 -103q0 -40 17 -69t37 -53t37 -48t17 -54q0 -20 -8 -31t-36 -11q-54 0 -91 30t-59 73t-31 94t-9 93z" />
<glyph unicode="#" horiz-adv-x="1408" d="M47 931q7 25 26 45t48 28t67 -4q14 2 53 5t82 6t81 6t54 3q20 34 23 80t0 94t-5 95t9 84t40 60t91 23l10 -406q50 0 89 -6t68 -2t47 26t24 78q2 18 5 62t7 93t7 94t3 63q14 6 32 8t34 -3t27 -17t11 -30v-354l254 16q28 -2 43 -20t20 -44t4 -54t-5 -48l-316 4v-250 q92 -6 177 -10t141 -20t71 -52t-33 -104l-352 24q8 -60 12 -91t6 -56t1 -56t-1 -91q-10 -58 -30 -83t-42 -22t-43 32t-31 79q2 44 1 78t-4 65t-8 64t-11 77h-204q0 -54 2 -94t3 -78t3 -78t2 -94q0 -42 -17 -58t-39 -9t-43 34t-29 69q-4 26 -4 67t-2 84t-7 83t-19 64l-304 14 q-20 2 -31 24t-12 48t5 48t18 26l324 -14v240q-82 0 -162 -11t-162 -11q-46 -10 -72 1t-35 31t-2 45zM626 646q52 0 104 8t104 12v230h-208v-250z" />
<glyph unicode="$" horiz-adv-x="1438" d="M52 1032q0 72 34 119t85 79t114 53t121 38t104 36t64 47q-6 20 -11 53t-12 66t-17 63t-22 46q0 18 12 46t30 38q52 0 78 -33t37 -80t16 -97t15 -82q54 4 129 -1t144 -29t117 -72t48 -128q0 -26 -12 -36t-30 -10q-4 0 -12 3t-10 3q-44 48 -81 75t-77 37t-87 7t-109 -15 q0 -78 6 -156t16 -158q116 -32 231 -54t208 -67t151 -129t58 -238q0 -106 -53 -174t-134 -110t-176 -65t-181 -37q2 -18 2 -43t-6 -48t-20 -40t-38 -17q-36 0 -48 19t-17 45t-11 50t-30 34q-44 4 -104 5t-125 6t-129 17t-115 37t-82 65t-31 100q0 54 15 64t34 -2t36 -34 t23 -30q30 -36 94 -56t136 -31t138 -13t102 -2l-54 604q-18 24 -67 30t-112 8t-131 6t-124 22t-93 56t-37 110zM198 1038q34 -44 83 -59t103 -17t111 1t109 -5q-10 24 -6 70t4 90t-13 74t-55 24q-18 -6 -71 -25t-110 -44t-104 -54t-51 -55zM758 804q0 -72 7 -151t17 -158 t21 -156t21 -145q62 0 140 12t147 44t118 85t57 137q0 98 -54 162t-134 102t-172 53t-168 15z" />
<glyph unicode="%" horiz-adv-x="1984" d="M72 1376q0 88 46 176t118 158t161 113t175 43q100 0 173 -41t121 -108t73 -154t29 -177h10q66 0 130 33t120 72t102 72t76 33t47 -21t17 -51q-26 -88 -65 -207t-81 -255t-84 -279t-74 -278t-48 -253t-8 -204q-22 -62 -60 -63t-66 63q-4 82 15 188t51 222t71 238t73 238 t59 221t27 189q-136 -48 -274 -115t-266 -123t-242 -89t-203 -14t-147 105t-76 268zM215 1236q33 -74 99 -103t149 -13t151 80q-76 0 -128 22t-95 55t-83 73t-90 78q-36 -118 -3 -192zM362 1502q8 -46 42 -80t83 -55t106 -28t108 0t90 31t53 66q20 84 -9 145t-84 95t-125 41 t-130 -14t-99 -71t-35 -130zM1249 355q-7 95 30 178t118 141t213 66q86 0 147 -28t99 -79t55 -120t17 -151q0 -70 -24 -134t-66 -113t-100 -78t-128 -29q-108 -6 -187 44t-123 129t-51 174zM1387 387q-1 -59 21 -110t67 -86t113 -39q98 0 167 62t69 170q0 130 -60 181 t-180 51q-64 -2 -108 -35t-66 -84t-23 -110z" />
<glyph unicode="&#x26;" horiz-adv-x="1062" d="M22 1028q0 72 46 122t114 83t142 48t132 15q32 0 92 -3t120 -18t105 -44t45 -81q0 -28 -14 -37t-38 -9q-104 26 -210 43t-192 14t-140 -32t-56 -95q22 -64 94 -96t160 -40t174 4t136 38q14 2 39 2t49 -6t42 -20t18 -38q0 -48 -40 -74t-101 -43t-131 -30t-131 -34 t-101 -56t-40 -97q0 -46 36 -71t84 -38t96 -16t72 -3q50 0 99 7t97 16t96 17t96 8q0 -66 -48 -105t-116 -58t-142 -24t-126 -5t-119 15t-127 46t-102 79t-42 112q0 96 39 156t129 94q-110 40 -176 75t-102 67t-47 60t-11 52zM348 1698q24 44 62 44q66 -88 100 -161t42 -124 t-6 -75t-46 -12q-42 48 -70 89t-46 80t-26 77t-10 82zM643 195q9 25 28 35t42 1t41 -41q18 -84 39 -170t25 -176q0 -26 -8 -39t-36 -13q-46 0 -71 43t-38 101t-16 115t-3 87q-12 32 -3 57z" />
<glyph unicode="'" horiz-adv-x="416" d="M42 1456q0 24 12 36t30 18t38 7t34 1q58 0 98 -32t64 -82t35 -111t11 -117q0 -36 -12 -78t-33 -78t-51 -61t-66 -25q-18 0 -27 16t-9 36q0 18 12 37t25 39t25 43t12 51q0 50 -31 81t-68 60t-68 64t-31 95z" />
<glyph unicode="(" horiz-adv-x="848" d="M40 830q0 130 35 274t97 282t146 260t182 208q38 0 61 -7t25 -59q-74 -106 -149 -220t-135 -236t-99 -251t-41 -265q0 -160 60 -307t160 -270t227 -215t263 -142v-50q-120 0 -229 42t-201 114t-167 169t-127 208t-80 230t-28 235z" />
<glyph unicode=")" horiz-adv-x="730" d="M40 1844q0 26 7 40t35 14q152 -102 266 -245t189 -290t113 -283t38 -226q0 -60 -23 -161t-65 -218t-98 -237t-122 -217t-138 -159t-146 -62q-20 0 -27 14t-7 30q94 102 184 224t161 255t114 276t43 287q0 118 -39 229t-97 210t-126 185t-126 153t-97 113t-39 68z" />
<glyph unicode="*" horiz-adv-x="1250" d="M57 770q-3 24 5 43t20 21h376q-80 152 -128 254t-74 166t-35 96t-13 46q4 12 17 23t29 19t32 9t26 -9q86 -124 133 -223t76 -173t50 -121t53 -67q18 12 47 57t63 105t71 127t73 123t67 93t55 37q8 0 19 -11t21 -27t16 -32t6 -24q0 -14 -18 -49t-47 -82t-64 -101t-67 -104 t-58 -91t-38 -63q16 0 70 -3t119 -8t128 -12t99 -17q2 0 3 -18t1 -39t1 -39t1 -20l-438 24q0 -56 50 -117t110 -123t110 -125t50 -123q0 -22 -24 -27t-42 -5l-394 404l-390 -420q-18 0 -27 12t-14 27t-5 31v26q0 34 42 92t95 121t101 121t62 92q-38 14 -86 19t-97 7t-94 0 t-77 -4q-32 10 -48 34t-19 48z" />
<glyph unicode="+" horiz-adv-x="992" d="M82 614q0 66 36 89t90 26t119 -3t123 4q0 50 -5 101t-10 103t-7 105t2 107q4 20 20 22t32 2q42 0 59 -34t22 -84t3 -110t4 -111t24 -87t62 -38l208 10q42 -2 65 -22t23 -47t-25 -54t-81 -41h-222q0 -120 9 -237t9 -237q-56 0 -89 26t-51 69t-24 96t-7 107t1 104t0 84 q-104 0 -139 1t-34 2t20 1t20 -2t-33 -6t-136 -12q-34 0 -51 2t-26 8t-10 19t-1 37z" />
<glyph unicode="," horiz-adv-x="628" d="M132 230q-16 58 5 96t59 57t85 18t85 -20t57 -57t3 -92q34 -8 62 -52t45 -104t20 -127t-13 -122t-54 -89t-102 -28q8 10 19 37t20 62t15 71t6 64q0 58 -23 89t-58 48t-75 26t-75 22t-58 35t-23 66z" />
<glyph unicode="-" horiz-adv-x="848" d="M36 762q112 0 192 -1t155 -1t155 -1t192 -1q46 0 54 -16t8 -62q-10 -36 -55 -54t-111 -24t-143 -4t-153 8t-141 12t-105 8q-34 22 -41 62t-7 74z" />
<glyph unicode="." horiz-adv-x="538" d="M244 96q0 40 34 67t74 27q46 0 75 -33t29 -75q0 -46 -33 -68t-72 -20t-72 28t-35 74z" />
<glyph unicode="/" horiz-adv-x="1104" d="M18 72l898 1698q24 24 48 23t44 -16t34 -40t20 -49l-910 -1656q-14 -12 -37 -20t-44 -5t-37 18t-16 47z" />
<glyph unicode="0" horiz-adv-x="1568" d="M60 802v105q0 69 4 152t15 169t33 157t58 116t90 45q26 0 43 -10t32 -23t31 -23t40 -10q70 42 163 79t200 44t222 -29t229 -138q26 0 49 40t48 87t56 87t73 40q38 0 68 -18t30 -60q0 -40 -36 -73t-80 -68t-80 -75t-36 -94q0 -38 26 -98t58 -132t58 -152t26 -158 q0 -186 -89 -336t-230 -253t-315 -154t-346 -39q28 -24 24 -66t-23 -82t-47 -67t-46 -19q-56 0 -71 33t-9 78t23 94t23 81v10q-96 74 -160 156t-100 176t-48 200t-6 228zM195 574q17 -128 76 -236t165 -174q108 120 203 261t182 289t167 301t158 297q-150 112 -284 136 t-245 -15t-197 -130t-142 -211t-78 -255t-5 -263zM600 98q140 -6 266 41t226 130t169 195t94 235t-1 250t-114 241q-38 -66 -94 -153t-119 -185t-128 -202t-124 -204t-105 -189t-70 -159z" />
<glyph unicode="1" horiz-adv-x="334" d="M101 1215q1 201 11 361q6 14 18 20t27 4t31 -9t28 -15q0 -174 10 -377t21 -412t20 -413t9 -378q-22 -20 -46 -27t-46 -2t-38 21t-20 44q-6 160 -13 362t-10 411t-2 410z" />
<glyph unicode="2" horiz-adv-x="1666" d="M0 327q-6 85 46 157t163 120t281 46q202 0 389 -57t371 -135q46 36 78 91t53 116t30 123t9 116q0 90 -32 191t-91 186t-142 142t-185 57q-66 0 -127 -25t-113 -62t-96 -81t-77 -81t-53 -62t-24 -25q-48 0 -56 20t-10 66q0 92 54 166t134 126t174 79t176 27 q138 -12 244 -78t179 -168t113 -228t45 -257t-24 -256t-95 -225q0 -20 34 -59t76 -85t79 -93t41 -83v-12q-4 -4 -16 -7t-25 -6t-25 -5t-18 -2q-10 0 -46 35t-78 76t-78 77t-46 40q-80 -56 -172 -111t-191 -97t-202 -66t-205 -18q-174 0 -292 49t-181 121t-69 157zM141 380 q-13 -48 17 -94t107 -85t213 -57q110 0 195 11t160 36t150 65t163 98q-150 72 -320 119t-336 47q-92 14 -167 -3t-122 -53t-60 -84z" />
<glyph unicode="3" horiz-adv-x="1354" d="M40 1220q0 60 36 107t94 83t130 61t143 42t134 24t105 7t91 -1t91 -14t70 -43t28 -88q0 -76 -45 -143t-99 -128t-99 -118t-45 -117q110 0 221 -35t200 -100t144 -160t55 -215q-12 -92 -67 -166t-136 -124t-178 -76t-190 -22t-175 38t-132 104q-10 60 6 69t42 -4t53 -35 t43 -22q66 -34 137 -42t139 5t128 43t106 74t73 99t27 115q0 84 -51 144t-126 98t-158 55t-149 17q-70 0 -115 -7t-83 -22t-78 -39t-98 -60q-44 -28 -64 -8t-22 74q-4 14 32 52t92 90t126 114t137 125t122 123t83 108t19 79t-71 37q-188 -2 -356 -62t-296 -210q-34 0 -54 22 t-20 52z" />
<glyph unicode="4" horiz-adv-x="1528" d="M34 525q4 19 28 37q138 120 289 230t294 227t268 249t211 294q50 24 73 9t32 -55t7 -94l-4 -108q0 -76 8 -164t20 -178t27 -177t29 -161q50 8 94 -1t74 -27t41 -40t-4 -41t-59 -30t-124 -7q10 -42 17 -92t12 -103t7 -105t2 -98q0 -26 -3 -53t-41 -37q-66 6 -86 37t-22 91 t-2 149t-24 211q-148 46 -286 57t-271 0t-266 -38t-267 -57q-22 2 -41 13t-28 27t-5 35zM428 666q86 0 175 7t181 9t184 -5t182 -33q0 74 -10 147l-20 146q-10 73 -16 146t0 147q-84 -74 -178 -144t-184 -138t-171 -138t-143 -144z" />
<glyph unicode="5" horiz-adv-x="1520" d="M37 1098q5 80 30 160t59 138q212 52 424 86t430 38q30 6 68 -4t66 -31t35 -50t-23 -61q-76 0 -175 3t-203 -1t-203 -20t-177 -55t-126 -106t-48 -171q112 34 246 49t269 6t264 -47t230 -109t166 -179t73 -258q0 -136 -75 -229t-195 -149t-268 -74t-294 -4t-273 61 t-203 121q2 2 15 11t29 18t29 16t17 7q74 -30 182 -56t229 -37t241 -2t219 45t164 105t75 181q-24 136 -95 223t-171 136t-220 65t-244 10t-244 -30t-216 -52q-66 30 -89 98t-18 148z" />
<glyph unicode="6" horiz-adv-x="1416" d="M60 780q0 18 8 79t22 141t34 169t43 163t49 122t54 48q36 0 61 -20t25 -54q-8 -72 -32 -153t-50 -171t-45 -185t-17 -193t34 -197t108 -195q-22 130 11 236t103 184t166 126t199 63t202 -3t174 -74t117 -150t30 -230q0 -112 -53 -203t-137 -154t-189 -97t-209 -34 q-168 0 -300 65t-222 173t-138 249t-48 295zM482 376q10 -80 75 -144t201 -88q110 -30 201 5t155 107t93 164t13 177t-81 146t-191 69q-94 18 -182 -18t-155 -102t-103 -151t-26 -165z" />
<glyph unicode="7" horiz-adv-x="1470" d="M26 1336q2 24 9 48t18 41t23 17q96 -18 178 -22t155 0t142 13t143 19t155 17t179 5q62 0 79 -31t17 -81q0 -144 -19 -298t-19 -300l342 24q24 -80 12 -111t-59 -39t-128 -6t-193 -12q-16 -156 -21 -312t-1 -312q-18 -46 -44 -51t-50 10t-39 40t-9 41l18 596h-480 q-8 2 -20 25t-18 48t-4 47t22 24h520q8 0 14 36t11 90t7 119t4 123t2 102v56q-100 10 -177 7t-145 -11t-132 -17t-136 -12t-157 3t-197 28q-4 12 -2 36z" />
<glyph unicode="8" horiz-adv-x="1124" d="M60 1374q22 76 85 123t145 67t170 11t160 -47t116 -105t36 -163q0 -34 -5 -46t-39 -26h-10q-34 0 -46 39t-29 86t-56 86t-127 39q-146 4 -203 -33t-53 -95t55 -131t120 -144t143 -131t124 -92q2 -2 4 -2h6q78 48 131 106t87 124t53 140t31 154q38 30 63 22t40 -36t19 -66 t2 -66q-6 -74 -49 -137t-97 -121t-107 -117t-79 -125q30 -38 60 -79t54 -85t39 -92t15 -98q0 -70 -23 -131t-65 -106t-100 -72t-126 -27q-112 20 -171 67t-78 107t-6 131t46 141t78 133t89 111q-72 68 -159 141t-163 157t-128 180t-52 208zM478 245q0 -43 25 -76t87 -47 q88 0 148 59t60 151q0 26 -10 70t-28 84t-44 70t-60 30q-22 -26 -53 -66t-59 -87t-47 -96t-19 -92z" />
<glyph unicode="9" horiz-adv-x="1232" d="M20 1036q0 136 48 239t132 172t196 104t238 35q84 0 143 -27t99 -58t64 -58t38 -27q58 66 94 60t56 -64t27 -160t6 -229t-8 -269t-15 -282t-14 -268t-4 -226q-36 -32 -72 -18t-52 60q4 30 12 107t15 174t12 201t4 189t-8 138t-23 47q-76 -44 -179 -87t-214 -72t-218 -34 t-192 28t-136 110t-49 215zM122 966q8 -70 59 -107t127 -50t169 -4t185 35t175 65t139 87q18 40 15 106t-36 136t-100 133t-175 95q-86 0 -177 -16t-169 -68t-136 -150t-76 -262z" />
<glyph unicode=":" horiz-adv-x="480" d="M60 898q0 18 14 49t34 61t44 52t44 22q26 0 54 -13t52 -33t39 -47t15 -53q0 -30 -11 -63t-32 -61t-50 -46t-63 -18q-62 0 -101 44t-39 106zM104 292q0 34 9 71t28 67t49 50t70 20q36 0 64 -19t49 -49t32 -65t11 -65t-20 -56t-49 -44t-61 -28t-58 -10q-24 0 -46 11t-39 29 t-28 41t-11 47zM192 895q0 -21 16 -21t16 21t-16 21t-16 -21zM254 333q0 -21 16 -21t16 21t-16 21t-16 -21z" />
<glyph unicode=";" horiz-adv-x="396" d="M42 780q0 14 6 38t17 46t26 38t33 16q24 0 51 -16t48 -39t35 -51t14 -52q0 -64 -41 -90t-97 -26q-28 0 -45 13t-28 33t-15 44t-4 46zM62 -542q84 56 127 132t52 159t-12 168t-65 163q0 28 9 61t35 47q54 -32 87 -79t51 -103t25 -116t7 -116q0 -60 -19 -118t-54 -102 t-86 -71t-115 -27q-4 0 -20 1t-22 1z" />
<glyph unicode="&#x3c;" horiz-adv-x="1292" d="M82 620q-2 36 31 70t113 60l662 234q68 -10 91 -26t16 -34t-34 -37t-59 -37l-602 -254l662 -488q0 -16 -8 -35t-21 -35t-29 -27t-34 -11l-682 494q-46 24 -75 57t-31 69z" />
<glyph unicode="=" horiz-adv-x="834" d="M65 783q-1 25 11 43t36 14q66 0 113 -2t88 -4t80 -4t88 -4t114 -2t157 2q16 -10 28 -29t14 -40t-7 -37t-35 -20q-96 10 -169 12t-141 0t-141 -8t-169 -10q-34 12 -50 38t-17 51zM73 527q-1 25 11 43t36 14q98 0 166 -6t133 -10t143 -6t198 8q16 -10 28 -29t14 -40t-7 -37 t-35 -20q-98 -2 -171 -2t-141 1t-140 0t-168 -5q-34 12 -50 38t-17 51z" />
<glyph unicode="&#x3e;" horiz-adv-x="1066" d="M164 911q-6 17 15 31t85 24l618 -212q74 -24 105 -55t30 -63t-29 -62t-70 -52l-638 -448q-16 0 -31 10t-27 24t-20 31t-8 33l618 442l-562 230q-30 16 -55 33t-31 34z" />
<glyph unicode="?" horiz-adv-x="1020" d="M52 1504q94 86 214 131t243 56t235 -10t190 -68t109 -116t-8 -157t-161 -190t-352 -212q2 -116 9 -174t14 -85t12 -35t5 -24q-80 0 -119 33t-53 85t-12 119t2 135q190 70 313 156t177 166t37 143t-107 87t-255 -2t-407 -124q-40 0 -63 22t-23 64zM436 118q-4 62 31 90 t79 26t81 -29t39 -73q0 -74 -30 -104t-94 -30t-85 31t-21 89z" />
<glyph unicode="@" horiz-adv-x="2090" d="M60 850q0 182 54 335t152 272t237 204t309 131q240 50 458 14t382 -152t259 -309t89 -459q-32 -192 -117 -300t-195 -141t-229 5t-219 136q-36 0 -73 -14t-75 -30t-78 -30t-82 -14q-76 0 -151 22t-133 67t-94 111t-36 154q0 100 40 201t109 182t162 132t199 51 q64 -4 121 -44t101 -100t74 -135t42 -150t4 -144t-40 -117q32 -80 84 -124t112 -57t122 5t116 65t95 122t57 177q-10 180 -77 327t-179 251t-263 160t-331 56q-166 0 -328 -58t-290 -164t-206 -254t-78 -326q-8 -178 62 -321t187 -251t266 -181t303 -113q0 -34 -14 -63 t-36 -29q-112 0 -221 36t-205 100t-178 150t-142 186t-93 209t-33 219zM642 866q0 -68 27 -114t72 -75t101 -42t114 -13q102 0 165 41t94 104t31 141t-22 152t-64 137t-98 95q-48 16 -98 1t-96 -51t-88 -86t-72 -102t-48 -102t-18 -86z" />
<glyph unicode="A" horiz-adv-x="2144" d="M42 736q0 80 26 139t65 101t84 71t84 51t65 38t26 32v16q0 59 -13 114q-15 62 -15 126q0 38 6 65t52 27q32 0 51 -27t30 -68t14 -91t4 -97t1 -84t2 -53q48 138 84 261t85 216t127 148t212 55q172 0 300 -93t210 -254t118 -377q28 -169 28 -356q0 -52 -2 -106 q54 -120 102 -201t91 -132t78 -76t60 -36t41 -11t20 2q40 5 71 5q47 0 73 -11q40 -16 40 -42q0 -31 -51 -62q-47 -28 -129 -34q-70 0 -130 30t-110 82t-91 121t-71 145l42 -300v-29q0 -17 -3 -31t-13 -24t-28 -10q-46 0 -73 34t-44 86t-27 112t-20 112t-25 86t-43 34 q-24 0 -76 18t-150 37t-253 33q-108 10 -254 10q-62 0 -131 -2v-514q0 -20 -22 -22t-32 -2q-56 0 -80 44t-29 108q-2 29 -2 60q0 38 3 79q6 75 8 137v24q0 46 -6 75q-8 37 -40 29q-35 -10 -72 -10q-21 0 -42 3q-60 9 -110 35t-83 66t-33 88zM152 748q0 -34 35 -52t81 -27 t90 -10t62 -1q0 20 2 73q1 35 1 72v37q-1 56 -8 100t-25 48q-12 2 -23 2q-36 0 -69 -19q-44 -25 -76 -64t-51 -83t-19 -76zM592 756q0 -36 1 -61l1 -25q9 2 31 2q17 0 41 -1q56 -3 131 -9t159 -13t154 -9q20 -1 38 -1q45 0 78 4q46 5 46 21q0 36 -39 74t-99 75t-134 70 t-142 58t-124 40t-80 15q-20 0 -32 -24t-18 -60t-9 -78t-3 -78zM658 1102q108 0 200 -31t173 -78t151 -101t131 -101t116 -79t107 -34q0 94 -19 203t-52 218t-79 210t-100 178t-113 123t-119 46q-100 0 -174 -59t-122 -145t-73 -181t-27 -169z" />
<glyph unicode="B" horiz-adv-x="1986" d="M66 282q0 38 23 68t50 57t50 54t23 59q0 92 -18 162t-41 155t-41 207t-18 318q0 58 45 106t118 82t167 54t192 25q31 2 61 2q67 0 131 -8q94 -11 167 -40t118 -76t45 -113q0 -24 -19 -57t-45 -66t-50 -59t-32 -36q100 23 206 23q40 0 80 -3q148 -12 271 -73t203 -174 t80 -283q0 -138 -59 -242t-155 -180q62 -42 109 -64t90 -31t91 -9h112q36 0 57 -16q23 -18 23 -42q0 -20 -16 -40q-18 -22 -60 -34q-50 -5 -93 -5q-52 0 -94 7q-77 12 -135 36t-106 57t-98 63q-86 -46 -182 -78t-194 -51t-192 -28t-174 -9q-46 0 -116 3t-147 12t-153 27 t-137 49t-99 78t-38 113zM179 261q-2 -8 -2 -15q0 -24 18 -41q23 -23 81 -23q6 0 11 19t9 49t7 67t5 73q-56 -24 -89 -60t-40 -69zM238 1156q0 -42 5 -83t21 -81q38 18 109 43t156 58t172 71t158 80t114 88t39 94q-26 24 -91 40t-148 22q-45 3 -93 3q-40 0 -81 -2 q-91 -5 -168 -25t-129 -55t-60 -87q0 -40 -2 -82t-2 -84zM264 826q0 -32 10 -69t23 -76t28 -77t25 -72q148 30 273 31h12q118 0 218 -18q105 -19 191 -51t158 -67t133 -67t113 -50q19 -6 38 -6q35 0 66 22q48 34 84 93t56 127t20 118q0 112 -62 185t-164 114t-232 55 q-96 10 -195 10q-35 0 -71 -1q-136 -5 -266 -26t-232 -50t-164 -62t-62 -63zM358 158q36 -8 102 -20t150 -20t181 -8t196 13t193 43t174 84q-46 16 -114 40t-150 49t-173 47t-182 35t-178 13t-161 -18q0 -40 4 -72t4 -62t-9 -60t-37 -64z" />
<glyph unicode="C" horiz-adv-x="1570" d="M59 1716q0 12 2 22q3 14 13 24t32 10q28 0 44 -25t30 -62t29 -81t40 -81t62 -62t97 -25q34 0 67 27t68 66t74 86t85 86t102 66t124 27q58 0 112 -14t96 -44t68 -77t26 -113q0 -72 -39 -122t-102 -84t-141 -54t-157 -29t-151 -10h-28q-54 0 -92 3q-72 -108 -95 -237 q-13 -72 -13 -146q0 -57 8 -115q18 -132 75 -256t145 -221t202 -158t250 -65q38 -5 76 -5q42 0 85 6q81 11 153 30t132 37t98 21t48 -18q3 -6 3 -16q0 -23 -17 -65q-34 -12 -104 -32t-151 -39t-163 -32t-138 -13q-25 -1 -49 -1q-142 0 -264 50q-143 59 -252 165t-180 248 t-96 297q-13 81 -13 162q0 75 11 150q23 157 103 295q-66 18 -123 55t-100 88t-67 113t-24 130q0 6 -0.5 19t-0.5 19zM624 1416q50 0 121 4t141 20t131 47t89 85q0 26 -12 41t-31 23t-42 10t-43 2q-56 0 -106 -21t-94 -55t-83 -75t-71 -81z" />
<glyph unicode="D" horiz-adv-x="1894" d="M58 396q0 52 34 87t82 58t99 36t85 21q-42 258 -70 434t-41 291t-13 178t11 94t33 39t54 12q148 -2 314 -35t331 -97t316 -157t267 -214t185 -271t69 -326q-4 -150 -47 -241t-117 -141q46 -12 78 -16t61 -4t61 3t78 3q36 0 57 -16q23 -18 23 -42q0 -20 -16 -40 q-18 -22 -60 -34q-65 -6 -116 -6q-19 0 -36 1q-62 3 -111 15t-91 31t-90 43q-232 -20 -394 -20t-270 9t-171 23t-101 24q-12 -78 -38 -104t-55 -18t-53 40t-32 68q-4 16 -28 32t-59 34t-75 39t-74 46t-57 55t-23 66zM233 372q7 -30 44 -55t97 -25q18 8 22 31t0 50t-15 50 t-23 29q-74 0 -103 -25q-23 -20 -23 -44q0 -5 1 -11zM374 1480q0 -216 30 -423t74 -433h8q31 0 100 -13q78 -15 180 -41t214 -60t209 -74t168 -81t89 -81q144 0 204 71t60 229q-4 130 -72 255t-177 234t-248 198t-286 146t-291 78q-64 9 -123 9q-74 0 -139 -14zM516 458 q0 -10 3 -41t9 -64t13 -59t15 -28q68 -28 162 -45t198 -23q45 -3 90 -3q60 0 120 5q106 8 196 32q-124 78 -257 129t-248 77t-197 30q-18 1 -33 1q-54 0 -71 -11z" />
<glyph unicode="E" horiz-adv-x="1496" d="M60 1328q6 102 82 176t192 120t255 64q81 10 158 10q56 0 111 -5q130 -13 236 -56t156 -117q0 -10 -2 -28t-9 -36t-20 -30t-33 -10q-64 70 -166 99t-217 30h-9l-221 -23q-115 -24 -202 -61t-135 -82q-34 -32 -34 -62q0 -13 6 -25q36 -56 124 -88t197 -51t226 -30t214 -26 t159 -39t62 -68q0 -40 -68 -65t-171 -50t-222 -55t-222 -79t-171 -125t-68 -190q6 -122 75 -187t179 -92q106 -26 237 -26h10q137 1 277 10t271 16q44 2 84 2q80 0 145 -9q2 -28 4 -50q2 -20 3 -37t1 -19q-350 -44 -588 -53q-79 -3 -149 -3q-140 0 -243 12q-154 18 -238 61 t-124 105t-51 139t-17 163q0 122 55 205t140 141t189 98t200 78q-40 28 -105 42t-139 25t-149 26t-136 45t-100 79t-39 131z" />
<glyph unicode="F" horiz-adv-x="1312" d="M24 1494q-1 8 -1 15q0 35 15 70q18 43 49 79t70 59t77 23q66 0 111 -49t75 -116t49 -137t33 -112q58 -4 110 -4q122 0 213 20q131 28 226 70t168 88t149 70q30 10 45 -7t15 -51q0 -48 -55 -88t-140 -72t-189 -57t-200 -42t-174 -28t-112 -13q-14 -46 -14 -94v-12 q2 -54 14 -109t28 -109t26 -104q55 -7 108 -7q27 0 53 2q79 5 157 15t155 20t157 10q34 0 43 -12t9 -52q0 -42 -49 -58t-123 -19q-37 -2 -76.5 -1.5t-82.5 1.5q-51 2 -98 2q-31 0 -61 -1q-74 -2 -123 -16t-49 -50q0 -74 15 -146t31 -144t26 -145q5 -36 5 -73t-5 -74 q-14 -30 -42 -36q-10 -2 -20 -2q-18 0 -35 7q-27 11 -47 34t-20 53q0 274 -41 543t-105 561q-48 32 -108 53t-115 48t-96 71t-51 126zM171 1474q21 -40 52 -73t69 -56t74 -23q7 0 7 18v5q-1 23 -11 56t-25 73t-33 73t-36 56t-32 23q-50 0 -70 -23q-18 -21 -18 -50 q0 -35 23 -79z" />
<glyph unicode="G" horiz-adv-x="2958" d="M108 224q0 34 19 36t49 -10t67 -32t71 -28q36 0 109 17t158 44t172 61t151 68t94 66t2 54q-20 16 -36 58t-18 90v11q0 42 13 83q15 46 54 71q31 20 82 20q12 0 25 -1q68 -6 172 -62l248 352q-84 18 -160 50t-133 83t-90 123t-33 172q0 60 23 119t63 104t94 73t116 28 q86 0 148 -31t101 -101t57 -182t18 -276l640 486q21 22 40 22q14 0 28 -12q32 -28 58 -102t45 -186t29 -243q9 -119 9 -245v-25q-1 -139 -15 -268t-42 -239t-72 -180q114 -70 202 -105t149 -48q57 -12 90 -12h5q34 1 40 5q33 15 58 15q12 0 22 -4q30 -11 40 -34q4 -10 4 -20 q0 -13 -7 -25q-13 -22 -51 -22q4 0 -30 -16q-30 -14 -94 -14h-17q-77 2 -197 40t-290 144q-94 -94 -213 -141t-249 -56q-32 -2 -63 -2q-99 0 -199 21q-132 28 -248 86l-374 250q-24 -48 -103 -98t-182 -91t-218 -66q-111 -24 -203 -24h-7q-95 1 -158 35t-63 114zM1058 647 q0 -25 9 -44t27 -19l120 110q-38 38 -67 45t-49 -5t-30 -37t-10 -50zM1166 438q152 -152 290 -225t271 -88q42 -5 85 -5q91 0 182 22q134 32 278 90q-230 34 -401 90t-288 110t-182 93t-79 39q-16 0 -46 -16t-57 -38t-45 -43q-12 -14 -12 -22q0 -4 4 -7zM1264 1518 q0 -84 32 -129t81 -71t110 -41t121 -39q8 77 8 139.5t-8 110.5q-16 96 -46 149t-67 72t-63 19q-48 0 -80 -17t-52 -45t-28 -67t-8 -81zM1416 730q24 -64 109 -121t211 -107t283 -93t323 -79q38 46 63 129t40 187t21 219q4 86 4 170v56q-2 111 -10 210t-20 168t-28 100 q-9 18 -19 18l-13 -9l-636 -446q-4 -2 -28 -29t-58 -67t-73 -88t-74 -92t-61 -78t-34 -48z" />
<glyph unicode="H" horiz-adv-x="2462" d="M40 864q0 82 30 127t76 68t103 31t110 14t97 18t66 44q0 168 -17 333t-47 355q4 28 25 46t49 18q34 0 55 -50t34 -126t19 -167t8 -175q1 -42 1 -79t-1 -69q-2 -64 -2 -86q170 -12 326 -37t296 -76t265 -138t235 -221q34 120 34 244q0 16 -1 33q-5 141 -25 283t-42 284 q-17 112 -17 221q0 30 1 59q10 32 36 41t51 2t43 -26t12 -41q20 -244 32 -424t20 -317t14 -240t16 -193q76 -116 143 -210t130 -159t127 -94q45 -21 95 -21q20 0 41 4q23 4 42 4q41 0 62 -18q21 -19 21 -41q0 -9 -3 -18q-12 -33 -62 -58q-30 -15 -74 -15q-28 0 -60 6 q-106 6 -177 46t-122 101t-89 135t-74 148q8 -72 22 -131t27 -103t22 -72t9 -40q0 -30 -13 -50t-32 -27t-41 1t-40 34q-4 28 -12 79t-21 111t-30 121t-41 111t-54 82t-68 32q-110 0 -234 -9t-252 -20t-253 -18q-80 -4 -154 -4q-42 0 -83 1l58 -412q2 -66 -27 -90 q-22 -19 -48 -19q-8 0 -16 2q-35 7 -61 43q-19 26 -19 63q0 14 3 31q-4 20 -10 74t-13 113t-12 112t-7 75q-68 28 -155 47t-164 52t-130 89t-53 156zM186 832q0 -44 44 -72t102 -45t115 -24t83 -7q0 24 1 67q0 22 0.5 44t-0.5 45q-1 46 -8 90t-23 70q-28 -4 -81 -12 t-105 -26t-90 -49t-38 -81zM670 1016l18 -350q42 0 116 -1q37 0 77.5 -0.5t84.5 0.5q88 1 183 2t182 6t156 14t107 23q-108 70 -216 129t-221 101t-233 62q-92 15 -193 15q-30 0 -61 -1z" />
<glyph unicode="I" horiz-adv-x="2198" d="M40 750q0 30 11 48t43 18q106 -46 227 -111t248 -118t255 -77q51 -10 102 -10q76 0 150 22q70 -6 90 -28t-1 -46t-77 -46t-138 -30q-104 0 -203 23t-191 58t-173 74t-149 73q0 -106 51 -191t132 -144t179 -90t194 -31q26 0 81 8t122 22t138 34t130 44t97 52t38 60 q-12 106 -45 242t-63 280t-48 287q-9 74 -9 141q0 64 8 123q17 121 79 209t192 124q35 3 68 3q120 0 206 -35q110 -44 176 -127t90 -197q17 -83 17 -172q0 -33 -2 -68q-9 -126 -48 -256t-101 -248t-142 -214t-172 -154q24 -72 75 -111t112 -56t127 -17t123 5t96 11t47 0 q54 0 80 -16q25 -15 25 -36q0 -23 -26 -45q-25 -21 -71 -29q-118 -9 -211 -9h-18q-99 1 -181 24t-156 72t-154 137q-56 -40 -133 -82t-166 -75t-181 -54t-178 -21q-174 0 -300 60t-216 163t-151 239t-105 288zM1376 1234q0 -116 18 -247t54 -273t84 -278q52 0 105 42 t100 107t88 147t71 161t47 148t17 111q0 94 -18 180t-60 152t-113 105t-177 39q-76 -2 -123 -53t-70 -138t-23 -203z" />
<glyph unicode="J" horiz-adv-x="2008" d="M74 334q0 78 22 204t63 269t100 289t133 263t162 191t186 74q134 0 242 -87t193 -224t146 -307t102 -337t63 -312t26 -233l480 8q42 -4 78 -23t45 -41q2 -5 2 -10q0 -16 -23 -30q-30 -18 -120 -20h-460q0 -80 -5 -216t-22 -295t-52 -322t-95 -296t-150 -217t-218 -84 q-90 0 -167 42t-140 111t-111 158t-80 183t-49 186t-17 168q0 122 45 219t121 170t176 124t208 85t219 52t211 24v12q0 70 -17 199t-50 281t-85 309t-122 285t-160 210t-198 82q-82 0 -156 -62t-136 -159t-111 -218t-84 -238t-53 -218t-18 -161q0 -88 30 -147t66 -99t66 -64 t30 -42q0 -16 -8 -23t-20 -9t-25 -2h-21q-50 0 -94 29t-77 74t-52 97t-19 98zM512 -588q0 -54 13 -130t38 -157t62 -160t85 -142t108 -102t130 -39q106 0 180 79t124 202t78 274t42 295t18 265t4 185q-88 0 -187 -13t-197 -40t-188 -71t-159 -108t-110 -148t-41 -190z" />
<glyph unicode="K" horiz-adv-x="1834" d="M62 490q0 42 23 77t58 63t75 48t74 30q0 124 -7 247t-15 248t-15 251q-5 98 -5 197v57q6 4 30 13t32 9q36 -86 50 -202t22 -245t18 -262t34 -251q54 -20 104 -43t98 -45t96 -43t98 -35q176 96 299 220t221 268t182 301t184 317q24 0 35 -9t15 -24t3 -34t-1 -39 q-40 -86 -89 -193t-109 -220t-131 -224t-153 -206t-176 -166t-198 -105q46 -74 125 -132t173 -101t194 -72t187 -44t152 -17h21q48 0 68 8q94 -4 106 -46q2 -6 2 -13q0 -36 -58 -73q-49 -12 -124 -12h-22q-90 2 -197 20t-222 53t-222 86t-197 119t-144 152q-20 0 -66 -2 t-93 -9t-83 -24t-36 -47q0 -16 9 -69t13 -111q2 -23 2 -45q0 -32 -4 -60q-6 -47 -38 -53q-54 0 -75 41t-27 96t-8 111t-18 88q-24 4 -69 13t-90 26t-78 45t-33 72zM208 529q-2 -4 -2 -8q0 -11 15 -21q21 -14 91 -22v88q-36 0 -66 -11t-38 -26zM437 606q-1 -5 -1 -11 q0 -14 5 -30q7 -23 22 -43t37 -24q30 0 62 14t62 30q-10 20 -31 34t-46 24t-49 15t-40 9q-18 0 -21 -18z" />
<glyph unicode="L" horiz-adv-x="2258" d="M-2 1234q0 22 6 42t38 28q8 2 41 -39t82 -91t109 -94t122 -46h21q19 0 43 -1t49 -1h41q46 0 123 2t152 18t132 50t63 98q8 86 12 171t18 170t44 169t94 168q33 7 62 7q62 0 104 -32q62 -47 86 -132q16 -58 16 -127q0 -32 -3 -66q-11 -108 -53 -209t-112 -180t-164 -105 q-30 -122 -67 -239t-77 -243v-10q66 -88 163 -157t210 -120t237 -83t247 -45q89 -9 174 -9q33 0 65 1q116 5 212 31q76 -10 86 -53q1 -5 1 -10q0 -37 -67 -71q-190 -34 -345 -37h-35q-135 0 -253 20q-133 23 -251 69t-236 110q-24 14 -61 49t-76 71t-78 63t-67 27 q-2 0 -5 -1t-5 -1q-30 -48 -73 -116t-97 -130t-116 -106t-128 -44q-142 0 -209 69t-67 203q0 72 27 149t75 141t116 105t150 41q24 0 67 -12t87 -27t80 -28t46 -17q2 0 6 -1t8 -1q10 0 28 45t36 105t32 117t14 81q-56 0 -112 -13t-113 -29t-115 -29t-118 -13q-78 0 -170 16 t-170 56t-130 107t-52 169zM310 248q0 -46 25 -86t77 -40q44 0 109 39t126 96t104 120t43 113q0 22 -23 36t-53 22t-60 11t-44 3q-150 0 -227 -85t-77 -229zM1144 1242q56 26 96 74t65 104t35 115q7 42 7 78q0 14 -1 27q-4 46 -20 73q-13 22 -33 22q-4 0 -9 -1 q-28 0 -49 -34t-37 -86t-26 -114t-16 -116t-9 -94t-3 -48z" />
<glyph unicode="M" horiz-adv-x="3624" d="M27 1152q-13 45 -13 94q0 54 16 112q30 110 110 203t203 153q119 58 271 58h10q128 0 219 -38t154 -104t100 -154t59 -187t32 -205t16 -208q28 66 66 154t86 182t105 185t123 160t140 106q58 29 123 29q17 0 35 -2q62 0 104 -68t69 -170t42 -222t26 -222t19 -170t20 -68 q46 130 128 258t193 228t249 158q114 48 242 48q26 0 54 -2q68 0 111 -28t67 -73t33 -101t9 -112v-35q0 -72 -6 -158q-8 -107 -16 -217t-10 -214v-29q0 -86 10 -156q12 -81 45 -132t95 -55q4 -2 32 -2t68 3t85 6t84 5q26 1 46 1h18q25 -1 25 -5l12 -12q17 -17 17 -39 q0 -14 -10 -29q-13 -20 -64 -37t-149 -29t-264 -12q-82 46 -125 126t-60 180q-14 85 -14 179v34q3 113 14 225t23 215t12 184t-16 132t-62 59q-150 0 -266 -49t-207 -129t-158 -180t-117 -202t-86 -197t-62 -161q-10 0 -23 -9t-28 -13t-29 3t-24 41q-8 86 -15 202t-15 240 t-18 244t-28 212t-44 144q-22 44 -52 44q-6 0 -12 -2q-21 6 -41 6l-123 -49q-82 -65 -154 -184t-131 -277t-97 -322t-50 -320q-4 -55 -4 -105q0 -92 14 -167q-10 -26 -24 -45t-42 -19q-54 0 -76 69t-29 182q-5 88 -5 195v63q1 41 1 83q0 105 -4 212q-5 150 -24 295t-68 258 t-136 182t-227 69h-9q-105 0 -197 -44q-96 -46 -164 -117t-100 -152q-21 -53 -21 -100q0 -25 6 -49q17 -68 90 -111q59 -35 164 -35q24 0 51 2q32 -16 41 -38t-1 -42t-35 -34t-61 -14q-162 8 -253 75t-118 163z" />
<glyph unicode="N" horiz-adv-x="2050" d="M40 1234q0 62 19 144t58 156t99 125t140 51q68 0 126 -47t106 -121t85 -166t65 -182t46 -170t28 -128q22 56 54 134t74 162t93 166t112 146t130 104t149 40q68 -10 116 -34t81 -78t52 -146t25 -240q3 -74 3 -163.5t-3 -194.5q-6 -210 -20 -500q6 -46 30 -82t61 -59 t81 -32q21 -4 42 -4l46 5h16q98 0 153 -23q58 -25 58 -51q0 -28 -65 -46q-36 -10 -94 -10q-45 0 -104 6q-64 0 -121 19t-102 54t-75 86t-42 115q-5 69 -5 151q0 41 1 85q4 132 10 271t8 271v37q0 110 -10 200q-12 105 -43 170t-89 67q-80 0 -150 -53t-128 -142t-106 -206 t-87 -244t-67 -257t-48 -245t-31 -208t-13 -145q-8 -22 -28 -25t-41 8t-38 32t-19 49q1 23 1 67v50q-1 83 -6 195t-15 243t-26 263t-39 255t-55 218t-74 152t-94 57q-60 0 -99 -37t-63 -90t-34 -112t-10 -103q44 -48 58 -92q10 -31 10 -56q0 -11 -2 -20q-6 -32 -28 -44 t-50 2t-58 62t-54 138z" />
<glyph unicode="O" horiz-adv-x="1534" d="M32 983q16 185 96 397q54 136 160 211t238 99q70 13 144 13q65 0 133 -10q145 -21 276 -79t235 -147t156 -199q62 0 113 41t109 125l66 -100q-32 -56 -69 -86t-72 -46t-63 -27t-40 -31q28 -113 28 -221q0 -94 -21 -186q-45 -197 -163 -355t-295 -261t-387 -123h-16 q-85 0 -175 38q-99 42 -187 125t-155 205t-97 277q-20 101 -20 215q0 61 6 125zM139 920q1 -108 24 -219t67 -216t110 -185t152 -128q83 -46 185 -46h9h9q95 0 192 40q101 42 192 116t165 172t119 207t55 223q2 24 2 47q0 89 -30 171q-132 -52 -295 -91t-330 -46 q-29 -1 -57 -1q-137 0 -268 28q-158 34 -282 124q-19 -84 -19 -186v-10zM278 1343q-2 -12 -2 -23q0 -42 29 -81q37 -49 122 -87t223 -52q20 0 79 4t135 11t158 18t150 25t113 30t45 36q0 64 -33 114t-87 87t-121 64t-135 43t-130 23t-104 7q-134 -6 -229 -39t-149 -79 t-64 -101z" />
<glyph unicode="P" horiz-adv-x="1358" d="M40 1016q0 52 31 87t77 56t96 32t90 17v272q0 12 9 13t23 -3t27 -11t23 -13q42 122 140 218t221 154t258 74q40 5 78 5q91 0 173 -27q116 -38 198 -132t102 -256q0 -138 -42 -249t-115 -197t-172 -148t-213 -104t-237 -66t-245 -30q0 -80 13 -158t28 -156t29 -159 t16 -165q0 -40 -7 -56t-49 -16q-34 0 -61 48t-49 121t-39 160t-32 166t-29 138t-28 77q-148 8 -231 88t-83 220zM168 928q0 -20 24 -34t54 -23t59 -13t39 -4h10q8 22 15 58q5 28 5 55v15q-2 34 -20 58q-17 22 -55 22h-7q-52 -8 -88 -45t-36 -89zM518 925q0 -19 5 -37t19 -34 h103q51 0 105 22l-228 124q0 -18 -2 -37t-2 -38zM522 1146q52 -24 106 -55t108 -63t105 -62t95 -52q92 0 186 50t168 127t121 170t47 181v11q0 115 -41 189q-43 78 -115 118t-162 44q-12 1 -23 1q-79 0 -160 -24q-93 -27 -179 -84t-149 -138t-94 -186q-20 -66 -20 -140 q0 -42 7 -87z" />
<glyph unicode="Q" horiz-adv-x="1704" d="M58 510v28q0 124 16 249q18 139 57 268t102 241t154 195t210 131t271 50q216 -22 371 -116t252 -230t138 -300q32 -127 32 -252q0 -37 -3 -73q-12 -161 -75 -307t-171 -244q30 -88 100 -131t157 -56q54 -8 109 -8q34 0 69 3q91 8 163 24q30 -46 30 -73t-32 -43t-97 -23 t-163 -11q-82 0 -149 36t-125 79t-106 79t-90 36h-10q-100 -72 -232 -112t-271 -43h-22q-127 0 -248 32q-131 35 -232 109t-159 189q-48 95 -48 220q0 26 2 53zM162 498q-2 -22 -2 -43q0 -110 45 -189q53 -94 144 -148t208 -72q70 -11 141 -11q47 0 95 5q119 12 229 53 t186 103q-14 54 -43 80t-67 33q-19 4 -39.5 3.5t-41.5 -3.5q-43 -7 -87 -19t-86 -26t-76 -18q-34 0 -39 20t-5 48q68 62 152 90q74 24 146 24h21q83 -4 156 -39t121 -101q122 66 181 181t63 248v21q0 123 -42 250q-46 138 -132 253t-208 194t-270 93h-13q-140 0 -246 -41 q-111 -43 -191 -120t-133 -180t-87 -219t-52 -237t-28 -233z" />
<glyph unicode="R" horiz-adv-x="1720" d="M62 1270q10 20 26 22t33 -7t29 -24t16 -31q10 -92 21 -208t21 -230q16 182 70 355t156 308t258 217t376 82q162 -10 270 -63t171 -133t85 -181q15 -67 15 -138q0 -35 -4 -72q-11 -109 -53 -218t-106 -204t-147 -170t-177 -117q-2 -70 38 -124t104 -93t142 -64t150 -37 t130 -14h18q44 0 66 8h9q32 0 54 -12q25 -14 31 -32q2 -5 2 -10q0 -13 -12 -27q-16 -19 -62 -27q-86 -15 -166 -15q-77 0 -148 14q-144 29 -252 89t-178 138t-90 146q-70 -32 -149 -45t-163 -16q-42 -2 -84 -1.5t-85 1.5q-85 3 -165 5l8 -344l-162 18q12 -16 16 16 q2 18 2 48q0 22 -1 50q-3 66 -10 159t-18 200t-23 219t-24 217t-22 195t-16 150zM316 614l34 -156h68q46 0 103 1t120 5t116 13t91 25t48 40q-2 46 -46 79t-108 53t-139 27q-38 4 -72.5 3.5t-66.5 -3.5q-64 -7 -106 -29t-42 -58zM328 766q80 28 162 45q46 10 95 10 q37 0 74 -6q87 -13 182 -66t201 -165q68 18 134 69t122 125t97 162t60 179q13 64 13 126q0 26 -2 52q-8 87 -50 157t-122 117t-206 57q-196 0 -339 -73t-236 -193t-139 -275t-46 -321z" />
<glyph unicode="S" horiz-adv-x="2036" d="M17 293q-1 5 -1 10q0 23 24 51h12q24 0 70 -5q60 -7 136 -16t158 -16t151 -7t113 12t44 40q-14 68 -18 155q-1 14 -1 28q0 72 18 138q21 79 73 137t148 68q52 0 93 -24t73 -61t56 -82t42 -85l254 216q-22 64 -42 145t-30 168q-6 51 -6 103q0 36 3 72q7 88 39 165t92 137 t160 94q122 -14 179 -77t68 -152q3 -25 3 -51q0 -67 -20 -141q-28 -103 -76 -197t-109 -166t-115 -100q96 -106 148 -205t58 -192q1 -12 1 -23q0 -81 -37 -160q-42 -90 -134 -180q90 2 178 8t168 38q27 10 48 10q15 0 28 -5q36 -16 36 -47q0 -22 -23 -45q-27 -27 -95 -39 q-80 -14 -179 -27t-205 -18q-41 -2 -82 -2q-66 0 -133 5q-109 8 -213 37t-196 85t-164 148q-56 -34 -137 -40q-40 -3 -82.5 -3t-85.5 3q-87 6 -173 17t-152 11q-17 -5 -37 -5q-15 0 -31 3q-38 6 -64 23t-33 44zM788 562q0 -71 34 -160q10 0 37 9t61 25t70 36t67 42t51 44 t20 42q-28 78 -72 121t-89 53q-14 3 -28 3q-30 0 -59 -15q-42 -22 -66 -70q-26 -52 -26 -130zM906 286q-7 -4 -7 -11q0 -13 27 -36q40 -35 115 -72t170 -68t185 -33q0 18 -30 42t-70 65t-80 104t-62 159zM1248 512q8 -76 43 -156t80 -140t93 -85q20 -11 38 -11q24 0 44 20 q68 68 98 135t34 129q1 12 1 25q0 49 -13 94q-16 57 -41 105t-52 86t-45 62zM1504 1342q0 -100 13 -196t49 -190q48 36 96 91t87 118t66 130t31 128q1 9 1 18q0 50 -20 90q-23 47 -81 73q-22 15 -45 15q-19 0 -38 -10q-43 -23 -78 -69t-58 -102t-23 -96z" />
<glyph unicode="T" horiz-adv-x="1470" d="M6 1441q4 17 22 31t52 16q120 -110 226 -180t200 -109t177 -51q59 -8 114 -8q23 0 45 1q76 5 148 24t142 41q18 6 40 38t47 79t51 101t53 105t54 92t55 59q96 64 166 64h12q74 -6 109 -59q29 -44 29 -111q0 -13 -1 -27q-7 -85 -60 -172t-158 -162t-265 -105 q-50 -192 -59 -359q-4 -75 -4 -144q0 -84 6 -160q11 -137 33 -243t34 -176q4 -22 4 -37q0 -25 -10 -36q-12 -13 -28 -13q-6 0 -12 2q-24 6 -46 27t-26 39q-16 74 -37 181t-31 243q-5 72 -5 150q0 71 4 147q9 161 53 345q2 10 -42 -1t-123 -21t-186 -10t-230 32t-256 105 t-263 209q-20 6 -29 21q-6 10 -6 22q0 5 1 10zM1296 1224q6 -1 14 -1q24 0 57 15q43 20 88 57t86 85t69 97t35 91q2 10 2 19q0 29 -17 51q-16 14 -36 14q-14 0 -28 -7q-36 -17 -72 -59t-71 -99t-63 -111t-45 -97t-19 -55z" />
<glyph unicode="U" horiz-adv-x="2016" d="M60 1110q0 68 1 124t3 112t7 117t11 141q28 20 52 18t54 -18q-2 -28 -2 -84t-1 -128t-1 -151t1 -151t1 -129t2 -85q2 -66 15 -146t40 -162t66 -158t92 -135t119 -95t148 -36q70 0 141 31t138 82t126 118t103 140t70 147t26 140q6 110 8 182t3 123t1 92t-1 91t-2 119 t-1 177q2 42 18 63t36 22h2q19 0 37 -14q19 -15 27 -45q-2 -180 -4 -344v-50q0 -136 9 -259q11 -145 44 -270t103 -227t186 -179t294 -127q34 6 59 -14q26 -21 26 -48q0 -25 -29 -47q-30 -23 -104 -23q-88 0 -182 56t-181 138t-159 171t-118 155q-4 0 -34 -40t-78 -101 t-112 -131t-136 -131t-151 -101t-157 -40q-124 0 -219 57t-163 150t-113 212t-72 242t-38 240t-11 209z" />
<glyph unicode="V" horiz-adv-x="2120" d="M54 1184q0 108 43 206t115 173t166 120t198 45q148 0 264 -74t207 -195t160 -276t122 -317t94 -318t77 -278q90 200 161 391t154 373t195 351t282 323q20 0 33 -17t20 -40t8 -48t1 -41q-118 -100 -206 -217t-158 -245t-127 -265t-114 -277t-119 -281t-142 -279 q-14 0 -30 2t-22 20q-98 302 -177 527t-144 390t-119 275t-99 181t-84 109t-75 57t-71 27t-73 18q-21 3 -42 3q-53 0 -103 -19q-69 -26 -125 -75t-93 -114t-46 -134q-3 -19 -3 -38q0 -49 17 -96q23 -65 87 -113q0 -28 -15 -36t-39 -8q-40 0 -73 19t-56 49t-36 67t-13 75z " />
<glyph unicode="W" horiz-adv-x="2660" d="M76 1286q0 58 32 111t85 100t119 84t135 64t133 42t112 15q156 0 255 -38t156 -107t79 -169t26 -222q0 -24 1 -75t1 -115v-134v-134q0 -64 -1 -114t-1 -74q60 44 106 121t96 153t113 132t153 56q72 0 124 -50t92 -126t74 -168t70 -175t76 -147t96 -86q56 8 100 69t80 154 t65 211t55 239t52 236t54 205t61 145t75 55q32 0 38 -18t6 -46q-50 -98 -81 -216t-57 -246t-53 -259t-70 -253t-110 -231t-173 -191h-8q-92 0 -152 56t-103 140t-75 181t-68 181t-82 140t-116 56q-72 0 -135 -62t-117 -156t-98 -202t-78 -202t-57 -156t-33 -62q-20 0 -34 4 t-32 18v106q0 190 12 378t12 378q0 66 2 143v39q0 58 -4 116q-6 78 -25 149t-61 127t-114 89t-182 33q-96 0 -178 -30t-145 -83t-103 -125t-52 -158q-4 -22 -24 -22h-30q-48 0 -71 42t-23 84z" />
<glyph unicode="X" horiz-adv-x="2322" d="M127 1234q13 106 69 200t152 159t228 73q140 0 240 -43t170 -115t116 -163t79 -186t57 -185t50 -160t61 -111q32 -37 78 -37h9q62 116 151 247t192 255t211 233t208 181q20 -16 37 -37t25 -47q-42 -44 -134 -133t-202 -215t-219 -286t-185 -344q96 -122 218 -192 t242 -107t221 -51t153 -22q34 6 47 -9q11 -12 11 -29q0 -25 -19 -51q-15 -21 -35 -27q-35 -9 -78 -9q-51 0 -112 13q-112 24 -233 75t-241 121t-216 142q-28 -16 -45 -51t-29 -76t-23 -85t-26 -81t-37 -60t-56 -23q-36 0 -46 14t-10 48q0 58 23 111t51 106t51 105t23 108 q-100 90 -152 194t-85 211t-61 209t-80 186t-142 145t-248 85q-25 4 -49 4q-66 0 -117 -33q-70 -45 -107 -117t-41 -157v-18q0 -74 29 -130q33 -63 106 -89q27 -10 60 -10q56 0 129 28q74 -2 80 -27t-24 -54t-81 -51q-40 -17 -73 -17q-9 0 -18 1q-17 -1 -33 -1 q-111 0 -183 48q-82 55 -116 143q-25 64 -25 137q0 28 4 57z" />
<glyph unicode="Y" horiz-adv-x="2066" d="M78 827q-14 78 -14 158q0 90 18 183q34 174 146 332q2 14 19 21t36 3t35 -20t16 -46q-88 -126 -121 -271q-22 -98 -22 -195q0 -47 5 -95q16 -145 76 -279t160 -236t235 -162q127 -56 279 -56h20q148 0 250 41t171 118t114 185t81 242q-2 90 -3 193v69q0 69 1 140 q2 106 7 211t17 199q8 22 23 25q3 1 7 1q12 0 24 -8q16 -10 30 -27t20 -33q2 -24 3 -74t3 -114t4 -134t4 -134t4 -115t2 -75q2 -38 8 -99t15 -132t19 -148t21 -148t22 -130t21 -95q32 10 67 12q18 1 35.5 1t35.5 -1q36 -2 71 -6t65 -4q74 -28 74 -62t-98 -44l-242 -10 q0 -164 16 -354t26 -380q6 -106 6 -208q0 -82 -4 -161q-8 -179 -58 -320t-152 -232t-280 -105q-104 0 -188 49t-149 129t-112 183t-77 210t-45 209t-15 182q0 176 80 328t206 270t284 195t314 105l-70 434q-18 -106 -66 -198t-122 -159t-169 -105t-205 -38q-41 -3 -81 -3 q-145 0 -276 45q-167 58 -296 167t-215 259t-116 317zM914 -846q0 -60 12 -143t36 -171t61 -176t88 -156t116 -111t147 -43q84 0 145 37t104 97t70 136t42 153t20 149t5 126q0 94 -8 210t-18 239t-21 242t-19 219q-18 -2 -85 -23t-155 -64t-186 -107t-178 -153t-131 -204 q-46 -103 -46 -227q0 -15 1 -30z" />
<glyph unicode="Z" horiz-adv-x="1644" d="M60 1255q26 35 66 67q110 50 246 86t284 77t302 93t302 132q20 0 31 -11t16 -27t5 -34v-34q-34 -78 -78 -163t-94 -172t-101 -172t-99 -163q8 -4 12 -4q54 0 121 4t138 4t140 -4t129 -18q26 -16 22 -35t-22 -34t-43 -25t-41 -10q-24 -2 -86 -5t-132 -6t-132 -6t-88 -3 q-78 -4 -141 -51t-117 -112t-101 -136t-95 -121q102 28 183 28q13 0 25 -1q90 -5 166 -30t145 -63t145 -75t166 -63t208 -28q18 5 38 5t42 -5q44 -10 79 -28t52 -40q9 -11 9 -21q0 -9 -8 -17q-16 -16 -72 -23q-21 -3 -49 -3q-49 0 -121 8q-164 20 -295 61t-242 81t-212 70 q-89 26 -178 26h-24q-101 -4 -212 -52t-245 -162q-26 0 -41 13t-19 33t1 41t17 39q186 130 344 292t292 350q-18 6 -45 9t-53 8t-44 11t-18 16q0 26 10 50t39 38t79 18q12 1 27 1q43 0 101 -9q86 132 161 270t139 280h-10q-118 -50 -239 -86t-242 -70t-241 -76t-236 -104 q-33 -10 -54 -10q-13 0 -22 4q-19 9 -19 30q0 27 29 67z" />
<glyph unicode="[" horiz-adv-x="1000" d="M102 -92q0 48 2 176t8 354t16 560t26 796q174 0 343 11t343 11q30 14 50 2t29 -35t6 -50t-21 -41l-604 -42q4 -186 -3 -403t-18 -440t-20 -440t-9 -401q150 0 291 10t291 10q12 0 32 -3t38 -16t27 -42t1 -81q-66 2 -147 -7t-164 -19t-164 -17t-151 -1t-123 30t-79 78z " />
<glyph unicode="\" horiz-adv-x="812" d="M8 1584q0 16 3 35t8 35t13 27t20 11q110 -176 227 -371t218 -401t175 -420t100 -430q0 -62 -36 -74t-70 46q-36 216 -110 411t-166 383t-193 372t-189 376z" />
<glyph unicode="]" horiz-adv-x="784" d="M-25 1796q9 28 41 50t82 16q116 4 224 8t189 -7t126 -42t35 -97q-14 -202 -30 -434t-18 -469t20 -465t84 -420q10 -38 -12 -63t-64 -40t-95 -23t-107 -10t-101 -2h-75q-140 -14 -210 9t-79 53t38 54t139 12l438 40q-46 122 -68 263t-29 290t-2 304t12 307t10 295t-5 271 l-462 20q-52 0 -71 26t-10 54z" />
<glyph unicode="^" horiz-adv-x="632" d="M36 702l126 306q40 66 78 89t69 14t53 -43t34 -80l186 -272q-4 -16 -17 -28t-30 -20t-36 -12t-33 0l-184 250l-130 -248q-22 -24 -43 -30t-37 2t-26 27t-10 45z" />
<glyph unicode="_" horiz-adv-x="1092" d="M58 116q6 24 24 30q166 -4 290 -3t226 4t192 9t190 12q32 -10 53 -35t29 -53t3 -51t-23 -29q-144 12 -240 15t-164 1t-116 -8t-96 -10t-106 -5t-146 7q-48 0 -76 20t-37 46t-3 50z" />
<glyph unicode="`" horiz-adv-x="440" d="M34 1409q6 27 32 34t76 -31l190 -134q44 -44 55 -79t-1 -54t-42 -18t-72 29l-188 144q-30 16 -43 49t-7 60z" />
<glyph unicode="a" d="M-49 75q-1 5 -1 9q0 19 16 39q20 25 76 43q70 22 114 61t68 115q0 108 39 225t105 219t150 174t173 90q24 5 47 5q65 0 128 -37q86 -50 154 -194q10 60 26 97t32 45t32 -15t26 -79q-4 -66 -18 -146t-23 -161q-7 -61 -7 -119q0 -20 1 -39q3 -77 32 -137t92 -96 q60 -34 162 -34h11q24 14 53 14t53 -10t38 -27q10 -12 10 -25q0 -6 -2 -11q-6 -19 -36 -38t-92 -31q-74 0 -137 3t-115 19t-97 49t-83 95q-42 -76 -107 -127t-138 -77t-149 -28h-13q-69 0 -131 20q-68 22 -121 66t-79 112q-50 -60 -100 -87t-91 -31q-9 -1 -17 -1 q-30 0 -50 12q-26 15 -31 38zM356 335q2 -95 41 -170t125 -105q100 0 181 49t138 125t87 166t30 174q0 46 -13 105t-39 112t-66 90t-96 37q-80 0 -152 -55t-125 -141t-83 -189q-28 -97 -28 -186v-12z" />
<glyph unicode="b" horiz-adv-x="1234" d="M-14 76q8 20 35 37t70 40t91 71t98 129t90 215v54q0 96 -5 206q-7 142 -9 287v58q0 115 6 224q8 137 37 243t85 171t150 67q66 0 114 -35t80 -88t47 -115t15 -116v-22q0 -137 -23 -271q-25 -145 -72 -283t-114 -267t-149 -243v-24q0 -102 31 -170q35 -76 90 -111 q49 -31 106 -31h13q64 4 117 46t85 122q24 61 24 144q0 26 -2 54q0 78 -23 119t-51 66t-51 49t-23 70q0 24 16 29t34 5q74 -22 129 -34t106 -17q36 -4 75 -4q15 0 31 1q55 2 127 6q7 -41 7 -69q0 -31 -8 -49q-15 -34 -52 -41q-14 -3 -30 -3q-28 0 -63 8q-56 12 -122 22v-10 q27 -101 27 -188q0 -23 -2 -45q-9 -105 -47 -185t-99 -134t-131 -78q-52 -18 -107 -18q-18 0 -36 2q-73 8 -136 52t-108 123t-59 199q-18 -52 -55 -119t-88 -121t-117 -83q-36 -16 -75 -16q-32 0 -65 11q-16 29 -16 48q0 7 2 12zM475 1135q3 -211 19 -477q62 70 111 171 t83 213t50 226q14 101 14 188v22q-2 96 -23 165t-65 93q-19 6 -36 6q-47 0 -78 -48q-42 -66 -60 -207q-15 -121 -15 -293v-59z" />
<glyph unicode="c" horiz-adv-x="1242" d="M-56 39q-3 7 -3 15q0 15 12 31q19 25 75 37q72 18 113 45t68 76t48 125t53 192q6 94 30 183t60 162t84 124t104 68q24 7 49 7q34 0 69 -13q62 -23 126 -97q36 -48 46 -87t2 -60t-28 -23t-44 26q-26 30 -61 58t-73 38q-15 4 -30 4l-46 -9q-38 -15 -72 -68t-61 -151 t-41 -256v-17q0 -99 43 -165q47 -72 125 -115t177 -60q84 -14 168 -14h30q99 3 189 20t152 43q20 -27 20 -50q0 -14 -8 -26q-20 -32 -73 -52t-128 -31t-153 -15t-147 -4t-111 4q-15 -1 -29 -1q-68 0 -121 16q-64 19 -110 55t-77 87t-51 113q-48 -86 -89 -132t-71 -67 t-50 -25t-26 -6q-41 -16 -72 -16q-11 0 -21 2q-37 8 -47 29z" />
<glyph unicode="d" horiz-adv-x="1792" d="M-93 56q0 27 22 57q25 33 81 45q80 18 121 45t67 80t49 143t67 238q20 74 52 145t78 127t109 89t143 33q86 0 155 -34t125 -88t99 -121t79 -135q6 69 6 159v47q-2 120 -3 252v53q0 106 3 211q4 132 23 240t59 181t110 89q120 -4 182 -61t81 -151q11 -54 11 -117 q0 -46 -6 -98q-14 -121 -47 -251t-75 -259t-77 -238t-55 -191q-13 -55 -13 -88q0 -17 3 -28q-2 -11 -2 -23q0 -41 21 -95q27 -70 85 -126t146 -80q32 -9 67 -9q62 0 135 27q24 9 42 9t30 -9q21 -16 21 -39v-6q-3 -27 -38 -53q-30 -23 -85 -23q-8 0 -18 1q-72 -20 -130 -20 q-40 0 -73 9q-83 23 -145 78t-112 130t-106 147q-38 -74 -113 -147t-167 -131t-192 -90q-78 -25 -148 -25q-20 0 -39 2q-87 9 -152 68t-89 185q-48 -66 -93 -105t-81 -59t-61 -27t-31 -9q-32 -13 -56 -13q-17 0 -31 7q-34 17 -34 52zM414 536q-3 -36 -3 -72q0 -48 5 -95 q8 -83 29 -149t52 -106t71 -40q72 0 159 35t164 91t129 128t52 148q0 70 -24 150t-69 148t-109 113t-144 45q-28 6 -53 6q-44 0 -79 -18q-56 -28 -94 -85t-59 -136t-27 -163zM1254 1139q8 -173 44 -395q40 98 79 216t67 236t43 227q12 86 12 155q0 18 -1 35q-4 81 -32 124 q-21 32 -58 32q-12 0 -26 -3q-44 -38 -76 -120t-46 -208q-9 -80 -9 -179q0 -57 3 -120z" />
<glyph unicode="e" horiz-adv-x="1074" d="M-57 36q-1 4 -1 9q0 17 14 37q18 26 60 50q34 18 55 25t40 17t42 29t65 65q-8 52 -8 105q0 42 5 84q11 97 42 187t78 169t102 134t115 82q44 20 87 20q16 0 31 -3q98 -10 143 -53t51 -106q1 -12 1 -25q0 -53 -20 -114q-25 -76 -68 -155t-97 -152t-105 -128t-91 -87 t-56 -26q88 -68 174 -86q67 -14 135 -14l37 1q86 5 173 20q69 12 139 12q19 0 38 -1q29 -23 29 -43q0 -6 -3 -12q-12 -25 -59 -44t-121 -30t-159 -13h-34q-69 0 -140 6q-89 8 -163 27t-128 50t-70 77q-38 -40 -69 -64t-59 -37t-52 -20t-48 -15q-29 -9 -51 -9q-12 0 -22 3 q-27 8 -32 28zM353 521q-4 -31 -4 -61q0 -65 19 -124q62 32 123 85t113 113t89 122t53 114q9 30 9 54q0 18 -5 33q-12 35 -58 43q-94 -2 -166 -58t-116 -139t-57 -182z" />
<glyph unicode="f" horiz-adv-x="1082" d="M-17 204q17 70 84 140t157 118q-54 134 -64 277q-4 55 -4 108q0 84 10 163q16 128 48 227t64 143q36 49 65 49q6 0 12 -2q33 -13 55 -78t32 -171q7 -71 7 -150q0 -40 -2 -81q-5 -125 -26 -260t-57 -257h3q65 0 170 -87q107 -89 239 -229q12 -12 38 -14t62 2t82 11t100 11 q28 11 50 11q19 0 34 -8q35 -19 35 -50q0 -25 -26 -50q-29 -27 -99 -29q-82 -7 -134 -7h-13h-10q-47 0 -61 -9q88 -70 129 -172t41 -214t-36 -227t-101 -209t-155 -160t-196 -82q-92 0 -151 61t-94 148t-50 185t-17 170q0 18 -1 58t-1 89t-1 104q0 28 -0.5 53.5t0.5 50.5 q1 49 1 88t2 57q-140 30 -189 91q-36 45 -36 96q0 17 4 35zM129 132q15 -9 38 -9q17 0 37 5q4 2 3 22t-5 44t-10 44t-10 22q-46 -8 -67 -34q-18 -22 -18 -44q0 -31 32 -50zM261 935q-2 -38 -2 -77q0 -47 3 -96q6 -90 28 -168q28 220 39 354q9 113 9 178v22q-2 66 -12 72 q-1 1 -3 1q-9 0 -20 -31q-13 -36 -25 -104t-17 -151zM319 -332v-25q0 -76 5 -155q6 -92 25 -174t53 -149t88 -103q92 0 166 44t126 113t81 153t29 166q1 17 1 33q0 117 -39 191q-44 84 -121 129t-178 59q-88 12 -181 12h-26q-10 -52 -19 -129t-10 -165zM332 252 q-2 -10 -2 -22q0 -31 14 -78q2 -16 24 -31t56 -28t73 -22t75 -13q18 -2 34 -2t29 2q27 4 35 16q-32 48 -74 91t-84 74t-81 46q-27 10 -47 10q-10 0 -18 -2q-26 -7 -34 -41z" />
<glyph unicode="g" horiz-adv-x="1440" d="M-72 -708q0 98 48 190t172 178t339 167t551 157l-46 352q-62 -72 -145 -141t-177 -123t-194 -87t-196 -33q-56 0 -105 22t-86 61t-58 91t-21 114q0 70 25 156t70 174t104 170t128 146t142 102t145 38q84 0 147 -48t105 -121t63 -159t21 -160q-66 0 -101 44t-61 102 t-56 112t-86 76q-19 6 -39 6q-36 0 -74 -19q-59 -29 -116 -83t-109 -125t-92 -142t-64 -132t-26 -93q0 -76 36 -128t120 -52q48 0 115 16t140 44t145 68t131 86t99 99t50 107q2 10 4 49t5 85t6 86t5 50q-6 42 16 56t48 8t46 -29t14 -55l26 -766q122 54 213 99t148 59 q19 5 35 5q29 0 43 -18q11 -15 11 -46q0 -27 -8 -67h-13q-66 0 -157 -35q-100 -39 -208 -101q-22 -66 -31 -167t-13 -219t-9 -248t-21 -255t-48 -237t-89 -198t-145 -136t-216 -50q-96 0 -186 43t-168 114t-143 163t-111 192t-72 200t-26 186zM105 -884q17 -86 49 -170 t80 -159t110 -133t138 -92t166 -34q84 0 146 33t105 88t69 126t42 148t22 153t10 140v68q0 48 -1 108t-3 128t-4 128t-3 107t-1 69q-80 -16 -182 -37t-207 -51t-205 -70t-178 -95t-125 -127q-45 -69 -45 -157q0 -85 17 -171z" />
<glyph unicode="h" horiz-adv-x="1736" d="M-87 95q13 31 67 49q86 30 159 82t133 136t106 205t80 289q6 36 6 130t1 214t7 249t22 237t47 178t83 70q28 5 53 5q66 0 108 -38q59 -53 81 -151q17 -74 17 -167q0 -30 -2 -61q-7 -130 -37 -264t-76 -259t-98 -215q0 -24 -3 -70t-4 -98t-1 -98t6 -70q12 66 38 141 t63 146t85 135t102 108t113 63q34 11 69 11q26 0 52 -6q70 0 114 -38t71 -101t42 -144t28 -164t28 -164t41 -144t69 -101t111 -38q16 1 30 1q45 0 76 -14q46 -22 46 -51q0 -23 -32 -46q-36 -26 -120 -36q-25 -3 -47 -3q-60 0 -106 23q-63 32 -106 91t-69 138t-44 165 t-32 170t-31 152t-41 112t-64 50q-88 0 -157 -66t-123 -166t-96 -216t-77 -216t-63 -166t-54 -66q-22 0 -43 21t-19 43l30 568q-88 -180 -158 -294t-127 -182t-105 -100t-90 -48q-37 -15 -68 -15q-16 0 -30 4q-42 11 -58 35q-9 13 -9 29q0 12 6 26zM577 1370q3 -112 10 -221 q5 -85 5 -152v-37q52 26 90 107t59 184t27 210q2 34 2 65q0 68 -9 123q-13 81 -45 117q-15 17 -35 17q-22 0 -49 -21q-38 -72 -48 -176q-8 -80 -8 -165q0 -25 1 -51z" />
<glyph unicode="i" horiz-adv-x="860" d="M-52 75q-2 7 -2 13q0 18 12 34q16 22 74 26q28 10 55 24t55 39t56 66t60 103q0 10 -3 50q-2 30 -2 68v26q1 54 6 113t19 109t37 83t61 33q42 -38 49 -92q4 -27 3.5 -55.5t-3.5 -58.5q-7 -60 -18 -122q-7 -40 -7 -76q0 -20 2 -38q16 -148 127 -221q100 -66 254 -66 q17 0 35 1q14 0 35 2t41 1t33 -5t13 -16q0 -46 -13 -69t-37 -32q-22 -8 -49 -8h-6q-31 1 -67 1q-128 0 -248 54t-200 152q-56 -52 -85 -85t-56 -54t-63 -34t-108 -25q-16 -4 -35 15t-25 44zM344 1278q-7 21 -7 36q0 17 9 27q14 17 36 17h5q25 -2 51 -20t32 -48 q0 -34 -20 -55t-52 -21q-36 0 -45 14t-9 50z" />
<glyph unicode="j" horiz-adv-x="1232" d="M-78 -1064q-1 21 -1 43q0 135 33 274q38 161 114 316t182 277t236 198t274 82l-96 554q-16 -56 -36 -125t-50 -141t-72 -142t-101 -129t-139 -101t-186 -58q-30 0 -56 12t-41 32t-13 47t26 57q39 -5 74 -5q116 0 194 51q102 66 168 196t111 310l97 388q38 18 70 28 t52 -10t25 -80q1 -14 1 -32q0 -58 -12 -154q20 -110 36 -183t29 -141t24 -148t21 -204q175 23 287 23q17 0 33 -1q118 -4 166 -22q35 -13 35 -32q0 -7 -4 -14q-17 -28 -82 -52t-172 -40q-71 -11 -156 -11q-42 0 -87 3q-1 -26 -1 -59q0 -49 2 -112q3 -105 5 -233 q1 -64 1 -131t-1 -137q-2 -140 -16 -277t-43 -261t-79 -218t-125 -150t-181 -56q-186 8 -303 87t-177 202t-66 279zM76 -1020v-26q0 -120 33 -217q37 -107 119 -175t218 -70q94 0 158 51t106 138t64 200t31 238q8 112 8 227v26q-1 128 -5 244t-10 212t-6 154q-14 1 -27 1 q-101 0 -195 -53q-106 -60 -194 -163t-155 -236t-104 -274t-41 -277zM674 1532q0 32 15 43q12 9 27 9q6 0 12 -1q22 -5 44 -23t31 -42q4 -11 4 -22q0 -14 -6 -28q-11 -26 -51 -48q-26 0 -41 9t-23 24t-10 33q-2 20 -2 46z" />
<glyph unicode="k" horiz-adv-x="1640" d="M-24 31q-7 12 -7 25q0 15 9 31q16 31 70 49q84 28 146 87t112 146t91 202t83 253q6 124 14 254t22 253t36 231t58 188t85 124q43 39 103 39q8 0 16 -1q72 -12 105 -62t39 -127q2 -20 2 -42q0 -61 -13 -132q-17 -97 -48 -204t-69 -218t-74 -216t-66 -197t-42 -162 q24 78 85 158t140 147t166 111t166 50q10 1 20 1q67 0 120 -36q61 -41 87 -143q7 -36 7 -69q0 -58 -22 -110q-35 -81 -108 -139t-176 -94t-219 -44q104 -80 189 -129t153 -77t122 -39t100 -14t86 -3t78 -4q16 14 45 12t58 -14t49 -29q16 -14 16 -28q0 -4 -1 -8 q-5 -19 -41 -35t-120 -24q-84 -12 -159 -12q-78 0 -145 13q-132 25 -240 76t-197 116t-173 119q-22 -24 -36 -60t-24 -76t-18 -81t-20 -75q-4 -4 -10 -9t-20 -7q-44 0 -68 34q-10 34 -14 95t-5 133q0 36 -0.5 73t0.5 76q1 77 3 145q-36 -108 -85 -196t-103 -156t-110 -114 t-104 -70q-41 -20 -73 -20q-10 0 -19 2q-38 8 -52 33zM616 968q54 62 92 149t62 178t34 180t10 156t-10 102q-7 26 -19 26q-4 0 -9 -3q-58 -62 -87 -158t-42 -204t-18 -220t-13 -206zM794 536q104 2 200 12t169 43t116 95t43 170q-42 46 -98 46q-10 0 -21 -2 q-69 -10 -143 -62t-145 -133t-121 -169z" />
<glyph unicode="l" horiz-adv-x="1034" d="M-14 74q0 14 8 29q10 19 40 31q38 8 80 27t84 56t80 99t68 158q-10 70 -21 153t-20 173t-15 184t-6 186q0 132 14 253t50 212t95 146t149 55q56 0 89 -30t51 -74t23 -96t5 -94q-12 -238 -54 -421t-87 -317t-80 -220t-35 -132q0 -90 44 -153t114 -103t158 -59t178 -19 q10 2 33 5t47 2t42 -8t18 -25q0 -52 -52 -75t-124 -23q-114 0 -209 43t-167 96t-118 96t-60 43h-2q-30 -10 -56 -45t-64 -75t-96 -76t-152 -46q-20 -4 -34 7q-18 14 -18 37zM422 1092q0 -110 4 -215t12 -191q42 62 79 162t64 213t42 230t15 213v70q0 36 -8 65t-25 48t-49 19 q-40 0 -65 -53t-41 -139t-22 -197t-6 -225z" />
<glyph unicode="m" horiz-adv-x="2328" d="M-100 94q6 20 32 37t60 21q36 6 96 35t130 82t141 129t129 176t96 222t40 268q61 48 93 48q11 0 18 -6q28 -21 28 -97q0 -79 -21 -207q-20 -122 -38 -258q14 40 54 108t93 140t113 135t118 94q39 21 74 21q17 0 32 -5q48 -15 77 -98t31 -248v-19q0 -161 -32 -416 q56 50 112 130t112 170t112 179t112 156t111 102q38 24 76 24q17 0 35 -5q52 0 80 -40t40 -106t14 -150t3 -170t8 -167t27 -142t61 -95q33 -28 85 -28q12 0 26 2q31 4 56 4q52 0 79 -17q31 -20 31 -44q0 -6 -2 -13q-10 -32 -67 -54q-31 -12 -74 -12q-35 0 -79 8 q-86 16 -136 71t-77 133t-36 170t-11 181t-4 169t-14 132q-14 20 -32 20q-11 0 -24 -7q-34 -19 -76 -73t-91 -133t-102 -167t-107 -177t-106 -162t-100 -122t-90 -57q-40 24 -57 98t-19 171q-1 28 -1 56q0 72 4 149q5 108 11 197q5 76 5 131v17q-1 59 -17 59q-20 14 -41 14 l-39 -13q-40 -27 -80 -89t-78 -148t-75 -176t-72 -175t-69 -144t-65 -82q-13 -9 -25 -9q-18 0 -36 20q1 11 1 25q0 21 -2 47q-3 44 -3 98t7 118t25 132q-40 -92 -109 -172t-149 -139t-165 -93t-159 -34q-66 10 -90 30q-19 16 -19 32q0 4 1 8z" />
<glyph unicode="n" horiz-adv-x="1792" d="M-54 141q22 19 62 21q66 38 129 93t121 139t110 202t100 282q44 44 69 44t37 -30t16 -85t6 -121t5 -137t15 -133q118 200 211 314t168 162q63 40 114 40q10 0 19 -1q58 -9 104 -56t81 -123t64 -161t53 -172t49 -155t51 -108q23 -35 51 -35q4 0 9 1q102 19 164 19 q11 0 22 -1q66 -4 89 -21q14 -11 14 -25q0 -9 -5 -18q-14 -26 -55 -47t-101 -32q-29 -5 -59 -5q-33 0 -69 6q-92 16 -145 71t-85 131t-48 162t-34 163t-44 134t-74 77q-31 14 -62 14q-34 0 -66 -17q-62 -33 -119 -102t-107 -162t-92 -182t-75 -164t-55 -107q-2 -4 -17 -6 t-33 -2h-33h-17q-14 2 -18 36q-3 23 -3 53q0 15 1 32q2 51 8 112t12 120t10 108t4 75q-14 -54 -50 -124t-96 -143t-145 -141t-199 -120q-48 12 -68 35q-18 21 -18 43q0 26 24 47z" />
<glyph unicode="o" horiz-adv-x="1542" d="M-25 44q-3 6 -3 14q0 14 11 34q17 30 67 66q58 40 110 105t80 141q-12 63 -12 128q0 50 7 100q17 116 78 214t169 168t268 92q64 0 124 -48t112 -125t95 -172t73 -191t46 -183q14 -77 14 -132v-13q42 -48 102 -70t117 -31t102 -14t61 -19q16 -16 16 -32q0 -13 -10 -25 q-22 -29 -81 -38q-17 -3 -37 -3q-48 0 -112 16q-90 22 -198 96q-164 -108 -304 -137q-72 -15 -137 -15q-61 0 -115 13q-112 27 -195 100t-131 171q-54 -86 -107 -136t-97 -72q-42 -21 -71 -21h-3q-30 1 -39 19zM343 482q9 -90 60 -166t134 -132t176 -77q48 -11 95 -11 q45 0 89 10q91 20 161 94q-152 48 -256 101t-178 110t-128 120t-106 131q-48 -78 -48 -155q0 -13 1 -25zM484 828q-2 -13 -2 -26q0 -60 44 -124q54 -78 143 -151t198 -137t209 -112q0 52 -10 123t-30 149t-49 154t-66 137t-84 98t-101 37q-34 0 -77 -7t-82 -24t-66 -46 t-27 -71z" />
<glyph unicode="p" horiz-adv-x="1832" d="M-58 89q0 18 11 37q13 22 47 34q50 0 78 5t61 26t83 61t142 110q16 30 24 113t15 188t16 215t29 192q26 26 53 14t61 -34l-58 -314q40 68 90 142t111 136t133 102t158 40q134 0 238 -76t175 -191t108 -248t37 -247q-18 -128 -82 -224q44 -40 103 -51q43 -8 84 -8 q15 0 29 1q54 4 93 14t43 10q24 0 55 -23t41 -50q3 -9 3 -17q0 -17 -14 -32q-21 -22 -101 -22q-20 0 -75 -5q-46 -4 -101 -4h-23q-69 1 -142 12t-129 43q-92 -62 -206 -86q-74 -16 -149 -16q-41 0 -81 5q-116 13 -225 62t-189 133q10 -144 23 -314t24 -346t19 -349t8 -319 q-6 -48 -22 -67q-14 -17 -32 -17h-4q-20 2 -41 22t-33 54l-54 1360q-26 0 -66 -21t-90 -46t-108 -46t-120 -21q-20 2 -34 19q-16 20 -16 44zM562 292q2 -86 62 -135t146 -71t183 -23h17q87 0 158 9q-18 6 -83 30t-149 57t-174 68t-160 65zM592 424q84 -24 162 -65t155 -80 t157 -67t166 -28q122 0 170 59t48 153q0 62 -15 132t-43 141t-69 136t-93 116t-114 81t-134 30q-108 -4 -185 -62t-125 -147t-67 -195q-14 -81 -14 -156q0 -24 1 -48z" />
<glyph unicode="q" horiz-adv-x="1546" d="M-55 66q5 18 25 36t38 26q62 26 110 47t84 51t65 79t53 135q28 98 73 207t104 208t132 177t155 113q54 23 112 23q30 0 60 -6q90 -18 186 -112q6 -6 17 12t27 35t38 17t52 -42q-4 -162 -9 -273t-9 -192t-8 -143t-7 -125t-7 -139t-6 -184q30 16 80 30t102 27t96 23t62 18 q29 11 46 11q14 0 20 -7q14 -16 5 -43t-33 -55t-46 -32l-274 -72q176 -48 314 -156t227 -243t123 -279q18 -74 18 -142q0 -64 -16 -121q-32 -119 -134 -195t-284 -76q-118 0 -199 67t-132 171t-75 229t-28 242q-1 33 -1 65q0 78 7 143q10 91 30 129q-34 -21 -75 -21h-4 q-43 1 -80 19t-62 50t-25 72q0 32 24 61t59 52t71 39t60 20l12 206q-50 -82 -104 -132t-108 -79t-109 -39t-105 -10q-54 0 -107 26t-98 65t-81 85t-54 84q6 -12 -17 -49t-66 -76t-102 -70t-125 -31q-62 0 -82 13q-16 10 -16 24q0 3 1 7zM464 354q0 -122 54 -185t132 -71 q12 -1 24 -1q68 0 144 38q90 45 162 137t111 228q26 90 26 196q0 55 -7 114q-12 106 -58 164t-130 58q-62 0 -121 -35t-110 -92t-93 -130t-72 -148t-46 -147t-16 -126zM993 -123q-1 -3 -1 -5q0 -23 88 -32q4 0 9 15t7 33t2 35t-4 19q-90 -38 -101 -65zM1224 -576 q2 -110 22 -217t60 -192t105 -137t159 -52q132 0 198 61t77 157q2 21 2 42q0 79 -31 170q-40 116 -117 226t-188 200t-241 134q-22 -76 -35 -179q-11 -89 -11 -184v-29z" />
<glyph unicode="r" horiz-adv-x="1050" d="M-65 63q-2 6 -2 12q0 13 7 28q10 23 25 40t32 26t27 -1q64 6 110 56t79 123t56 161t41 172q0 30 -13 48t-33 29t-42 19t-42 20t-33 31t-13 53q0 26 14 49t36 41t48 28t52 10q32 0 59 -16t48 -40t39 -52t32 -52q107 16 183 16q44 0 78 -5q93 -15 127 -78q24 -44 24 -112 q0 -30 -5 -65q-15 -114 -63 -284q0 -36 23 -70t59 -60t81 -40q35 -11 69 -11q10 0 20 1q6 1 12 1q33 0 58 -20q29 -22 29 -48q0 -28 -45 -51q-35 -17 -109 -17q-20 0 -43 1q-66 0 -118 26t-88 70t-56 101t-20 119q18 74 39 136t33 112q10 40 10 72q0 8 -1 15q-3 37 -34 59 t-96 28q-22 2 -49 2q-54 0 -128 -8q-32 -112 -61 -227t-72 -211t-110 -166t-175 -92q-29 -7 -49 -7q-13 0 -22 3q-23 8 -28 25z" />
<glyph unicode="s" horiz-adv-x="1588" d="M-42 85q6 29 32 51t58 14q96 2 171 52t141 131t132 184t146 211q-55 96 -55 170v12q5 78 42 129t92 76t95 25q60 0 76 -40q11 -28 11 -62q0 -15 -2 -32q-7 -54 -30 -110t-43 -90q63 15 126 15q44 0 87 -7q107 -18 195 -68t149 -123t77 -156q5 -24 5 -48q0 -59 -28 -118 q-39 -83 -149 -153q24 -6 63 -13t81 -9q14 -1 28 -1q28 0 55 3q41 4 71 20q28 15 52 15q14 0 26 -5q34 -14 46 -41q5 -11 5 -22q0 -17 -11 -34q-18 -29 -80 -35q-48 -14 -119 -19q-39 -3 -79 -3q-31 0 -62 2q-70 4 -130 15t-90 31q-126 -54 -229 -61q-26 -2 -50 -2 q-73 0 -133 16q-80 21 -138 60t-95 79t-53 71t-12 35q-42 -40 -81 -82t-83 -76t-97 -57t-121 -23q-9 -1 -16 -1q-46 0 -63 21q-14 18 -14 39q0 7 1 14zM534 280q12 -48 47 -82t82 -57t102 -34t106 -14q17 -1 33 -1q32 0 60 4q42 6 66 20q-32 12 -95 29t-135 38t-144 45 t-122 52zM534 416q-3 -4 -3 -8q0 -16 39 -38q50 -28 138 -59t203 -61t233 -50q110 54 148 121q27 48 27 96q0 19 -4 38q-15 67 -73 125t-139 92t-177 38h-17q-87 0 -169 -36zM683 927q0 -45 31 -107q60 70 75 116q8 26 8 44q0 15 -5 25q-12 23 -38 23t-47 -23 q-24 -27 -24 -78z" />
<glyph unicode="t" horiz-adv-x="1088" d="M-106 74q14 28 51 54t77 28q92 0 162 53t115 136t68 183t23 194q-30 0 -67 -4t-75 -9t-76 -9t-70 -4q-34 -12 -53 -1t-25 34t-1 49t21 44q24 4 70 12t98 17t103 20t83 21q3 53 3 104v26q-1 64 -1 128t4 128t16 128q4 18 23 24q10 3 20 3t21 -3q22 -6 40 -23t20 -43 l-12 -492q78 0 151 9t161 15q35 -64 35 -95q0 -6 -1 -10q-8 -29 -45 -34q-15 -2 -34 -2q-26 0 -57 4q-42 5 -82 5h-22q-50 -2 -84 -26q-30 -21 -30 -77v-13q0 -80 17 -170t58 -166t106 -126t161 -50q55 4 102 4q81 0 135 -13q91 -23 91 -55q0 -28 -73 -53q-79 -27 -253 -27 q-104 0 -169 39t-111 100t-80 136t-76 147q-26 -66 -58 -135t-79 -127t-116 -96t-171 -40q-27 -3 -48 -3q-42 0 -57 13q-14 12 -14 28q0 9 5 20z" />
<glyph unicode="u" horiz-adv-x="1504" d="M-80 49q0 18 17 38q21 25 77 43q100 30 148 104q-28 102 -34 280q-1 41 -1 88q0 156 15 374q8 17 27 17h2q21 -1 43 -10t38 -23t16 -26q0 -166 -1 -310v-14q0 -136 19 -238q20 -108 73 -170t161 -62q130 0 209 56t126 140t71 181t42 181t39 140t63 56t57 -32t15 -72 q0 -68 -11 -135t-11 -135q0 -70 33 -135t83 -115t111 -80t119 -30q40 12 71 12q28 0 49 -10q44 -20 47 -52v-4q0 -30 -38 -58q-41 -30 -131 -30q-72 0 -131 23t-107 60t-86 87t-70 104q-10 0 -35 -22t-64 -55t-89 -72t-107 -72t-119 -55t-126 -22q-54 8 -101 14t-87 18 t-73 32t-57 54q-50 -60 -99 -86t-90 -30q-9 -1 -18 -1q-30 0 -51 11q-34 17 -34 43z" />
<glyph unicode="v" horiz-adv-x="1620" d="M-79 59q-2 6 -2 11q0 17 17 32q22 20 73 31q30 6 68 6q28 0 61 -3q74 0 130 47t99 123t78 171t68 189t67 179t78 141h12q62 0 103 -50t71 -129t52 -174t46 -185t55 -164t79 -110q78 66 134 151t94 181t58 197t26 201q134 -48 234 -57q11 -1 22 -1q86 0 144 64 q30 -14 38 -32t8 -44q-6 -44 -40 -72t-81 -42t-100 -15h-8q-48 0 -91 11q-4 -20 -25 -88t-54 -156t-75 -185t-87 -173t-91 -120q-34 -32 -64 -32q-11 0 -22 4q-10 -3 -20 -3q-29 0 -57 27q-37 36 -72 102t-68 154t-64 180t-60 179t-55 153q-46 -50 -78 -125t-61 -158 t-58 -167t-66 -150t-86 -108t-119 -42q-75 -12 -131 -12q-18 0 -34 1q-67 5 -103 22t-43 40z" />
<glyph unicode="w" horiz-adv-x="2308" d="M-72 41q-3 7 -3 15q0 15 12 31q19 25 75 37q62 14 101 37t65 60t45 93t41 138q-3 44 -3 90q0 105 16 217q23 161 61 297q34 0 58 -25t24 -59q-4 -60 -16 -133t-20 -150t-8 -152t18 -141t60 -118t116 -80q80 0 138 51t100 128t71 167t49 167t35 128t29 51q26 26 48 -13 t48 -115t61 -174t85 -189t119 -159t167 -86q109 -17 195 -17q43 0 80 4q111 13 179 54t101 105t41 141q4 36 4 74q0 43 -5 88q-9 85 -25 168t-31 158t-19 133q-2 34 15 45q11 7 25 7q7 0 15 -2q23 -6 45 -29t30 -55q76 -316 88 -515q2 -33 2 -64q0 -154 -50 -247 q-60 -112 -194 -153t-350 -41q-124 0 -220 27t-172 89t-137 163t-113 247q-34 -60 -74 -140t-91 -155t-116 -128t-145 -59q-18 -2 -36 -2q-95 0 -155 47q-71 55 -105 155q-48 -84 -88 -129t-71 -66t-50 -25t-25 -6q-41 -16 -72 -16q-11 0 -21 2q-37 8 -47 29z" />
<glyph unicode="x" horiz-adv-x="1430" d="M-58 964q10 6 34 30t63 48t91 37q22 5 46 5q33 0 70 -10q90 -26 146 -91t93 -143t61 -157t52 -135q18 18 65 63t100 94t100 93t67 62q36 32 68 68t66 65t75 48t95 19q0 -62 -33 -124t-86 -124t-118 -121t-129 -112t-120 -98t-88 -79q30 -102 115 -168t201 -98 q109 -30 235 -30h16q135 2 265 36q6 2 17 2t20 -5t13 -14q2 -4 2 -9q0 -8 -4 -18q-14 -36 -76 -59t-136 -35t-144 -17t-102 -5q-70 0 -144 30t-144 77t-132 102t-106 107q-56 -70 -130 -123t-148 -88t-137 -55t-95 -24q-19 -3 -35 -3q-34 0 -56 12q-31 17 -33 44t24 55 t82 40q24 6 68 21t93 37t101 50t93 58t66 61t25 61q-4 104 -37 199t-79 166t-96 113t-88 44h-9q-30 0 -56 -11q-29 -13 -52 -31t-38 -35t-23 -23q-14 -14 -36 -6t-37 25q-14 16 -14 37q0 25 33 42z" />
<glyph unicode="y" horiz-adv-x="1908" d="M-36 81q-3 8 -3 16q0 19 17 38q24 27 96 27q64 0 116 37t93 100t70 145t49 173t32 185t16 182q0 18 24 41t52 30t51 -12t23 -85q0 -48 -9 -99t-20 -103t-19 -104t-8 -100q0 -60 12 -130t41 -130t79 -100t126 -40q108 0 187 48t134 126t88 176t50 199t21 193q2 37 2 70 q0 49 -4 90q2 36 23 51q20 14 43 14h3q25 -1 46 -16t25 -37q12 -74 32 -182t39 -242t34 -290t19 -324q60 22 112 37t96 26t77 21t57 22q25 12 44 12q11 0 20 -4q24 -12 30 -38q2 -7 2 -14q0 -19 -12 -40q-16 -28 -58 -38q-60 -24 -105 -35t-86 -22t-83 -25t-94 -44 q-2 -220 -33 -448t-106 -443t-201 -408t-318 -345q-65 -32 -124 -32q-23 0 -44 5q-78 17 -142 76t-113 150t-83 192t-52 205t-18 188q0 204 71 347t209 251t340 195t464 181l-58 530q-22 -44 -41 -99t-42 -111t-56 -109t-85 -93t-128 -65t-184 -25q-64 0 -119 25t-99 66 t-78 95t-54 114q-28 -78 -70 -128t-90 -80t-96 -46t-84 -30q-32 -13 -59 -13q-20 0 -37 7q-40 16 -50 43zM432 -912q-3 -27 -3 -56q0 -40 5 -86q8 -80 30 -163t57 -159t84 -131t111 -81q35 -15 75 -15q30 0 63 9q68 18 134 91t125 179t111 236t93 263t69 257t41 220 q10 73 10 123q0 15 -1 28q-4 50 -23 50q-2 0 -5 -1q-38 -10 -123 -35t-189 -69t-217 -106t-208 -144t-161 -184t-78 -226z" />
<glyph unicode="z" horiz-adv-x="1692" d="M40 998q0 12 3 27t10 28t17 23t24 10q26 0 55 -11t60 -23t64 -23t67 -11q94 0 187 33t181 74t169 74t153 33q40 0 48 -16t8 -52q0 -64 -36 -124t-78 -118t-78 -115t-36 -117q68 0 133 7t135 11q56 0 104 2h17q37 0 64 -7q33 -9 45 -35q6 -12 6 -31q0 -22 -8 -53 q-202 -18 -341 -40t-225 -48t-124 -57t-38 -65q0 -26 70 -54t178 -55t237 -51t246 -42t205 -29t116 -11q92 0 137 -19q42 -18 42 -40q0 -26 -53 -46q-50 -19 -146 -19q-23 -1 -47 -1q-96 0 -212 13q-145 16 -293 44t-288 66t-244 80q-58 0 -100 -27t-80 -58t-76 -58t-88 -27 q-28 0 -45 25t-17 49q0 30 51 88t127 132t165 160t165 173t127 170t51 153v10q-146 -52 -279 -90t-285 -38q-26 0 -68 5t-83 19t-70 38t-29 64z" />
<glyph unicode="{" horiz-adv-x="846" d="M84 732q36 28 82 63t87 75t70 83t29 89q-10 66 -47 151t-75 174t-64 179t-16 167t70 137t194 92q36 0 78 -13t78 -37t57 -56t13 -68q-2 -6 -17 -19t-25 -15q-136 72 -206 64t-94 -67t-10 -153t46 -194t72 -190t70 -142q0 -76 -43 -134t-103 -116v-16q80 0 139 -27t97 -70 t57 -98t19 -115q0 -56 -13 -108t-30 -104t-30 -105t-13 -107q0 -100 26 -148t73 -75t112 -48t141 -65q-8 -16 -25 -23t-38 -10t-43 -3h-38q-76 0 -137 33t-105 83t-68 111t-24 115q0 58 14 114t30 112t30 111t14 113q6 64 -12 99t-50 52t-76 21t-91 7t-96 9t-89 26 q0 2 -10 23t-10 23z" />
<glyph unicode="|" horiz-adv-x="2950" d="M186 732q0 4 1 8t1 6q36 20 91 46t116 50t120 41t105 17q22 0 42 -4t20 -32q0 -22 -57 -51t-135 -57t-157 -47t-123 -19q-16 0 -20 16t-4 26zM423 127q-1 19 1 33q22 28 58 73t78 87t89 72t93 30q22 0 40 -5t18 -31q0 -4 -21 -24t-53 -49t-72 -63t-76 -66t-66 -57 t-44 -37q-16 -16 -25 -12t-14 17t-6 32zM646 1574q0 10 3 29t19 19q42 -40 99 -71t117 -61t119 -62t103 -74q0 -10 -12 -31t-22 -23q-2 0 -3 1t-3 1q-34 14 -102 40t-138 60t-123 78t-57 94zM840 986q0 10 1 23t15 17l432 72q6 0 16 29t23 71t29 93t32 93t31 71t29 29 q38 0 58 -24t33 -61t20 -83t16 -89t25 -78t46 -51q74 -8 149 -2t146 6t137 -17t124 -71v-24q0 -14 -16 -20q-24 -4 -62 -12t-79 -19t-80 -27t-63 -36q-8 -66 -6 -143t0 -150t-12 -138t-42 -107q-30 26 -56 69t-50 91t-46 94t-44 76l-38 -38q-28 -28 -66 -63t-79 -73t-79 -70 t-67 -52t-41 -20q-26 34 -29 85t3 107t16 111t10 101q0 16 -32 26t-81 21t-105 23t-105 33t-81 51t-32 76zM976 944q42 -34 99 -45t114 -21t104 -29t71 -69q-18 -66 -25 -129t-3 -133q40 8 86 52t91 94t87 90t72 40q28 0 42 -25t24 -58t22 -66t36 -47q20 26 27 60t5 72 t-7 77t-9 79q0 22 12 39t30 31t38 25t38 19q-36 16 -79 14t-86 -12t-82 -21t-67 -11q-24 0 -51 48t-51 107t-41 109t-19 54q-28 -10 -35 -50t-11 -86t-11 -84t-33 -42zM1494 234q0 16 4 29t14 19h6q28 0 43 -31t22 -79t10 -104t7 -105t14 -83t32 -38q42 14 60 1t16 -31 t-23 -33t-59 -7q-38 0 -63 25t-41 65t-25 88t-12 93t-3 82v53q0 10 -1 25t-1 31zM1796 1372q0 36 18 95t48 117t69 100t81 42q26 0 38 -16t12 -38q0 -12 -31 -46t-67 -82t-67 -106t-31 -120q-28 0 -49 13t-21 41zM2036 366q0 16 10 21t24 2t26 -11t18 -14q62 -114 107 -171 t75 -84t44 -36t14 -27q0 -28 -23 -28h-43q-50 0 -95 41t-80 97t-56 115t-21 95zM2313 677q-7 15 0 33t31 30q104 8 220 26t212 58v-22q0 -34 -49 -61t-115 -46t-132 -29t-100 -10q-24 -10 -42 -2t-25 23zM2410 1164q0 16 33 44t75 55t81 46t51 19q22 0 49 -9t27 -33l-38 -27 q-38 -27 -88 -59t-96 -60t-64 -34h-8q-18 0 -20 23t-2 35z" />
<glyph unicode="}" horiz-adv-x="1074" d="M-62 -262q94 44 174 65t138 47t91 74t33 146q0 54 -17 107t-37 104t-37 103t-17 106q0 60 23 116t71 99t121 69t173 26v16q-74 56 -127 114t-53 132t40 142t89 135t89 137t40 148q0 34 -7 72t-30 71t-63 55t-106 22q-32 0 -62 -12t-57 -28t-49 -33t-38 -29q-10 0 -29 13 t-23 17q-10 40 17 73t74 56t102 35t101 12q80 0 141 -29t101 -72t60 -95t20 -96q0 -84 -41 -159t-89 -148t-89 -145t-41 -150q0 -44 36 -87t88 -83t110 -75t102 -63q0 -2 1 -4t1 -4t-1 -2t-1 -2v-4q-4 -6 -24 -18t-28 -16q-98 4 -187 0t-156 -25t-106 -64t-39 -119 q0 -58 17 -113t38 -110t39 -111t18 -114q0 -54 -30 -114t-85 -110t-132 -83t-169 -33h-45q-27 0 -54 4t-49 11t-30 23z" />
<glyph unicode="~" horiz-adv-x="1250" d="M122 720q-4 34 18 80q22 76 46 128t54 86t69 53t91 31q96 0 147 -24t77 -60t36 -77t27 -76t49 -56t102 -17q48 0 78 36t56 78t54 78t74 36q12 0 25 -10t24 -24t18 -30t7 -28q-16 -78 -68 -141t-118 -103t-134 -53t-116 9q-54 30 -88 67t-55 75t-36 73t-33 60t-44 36 t-70 3q-24 6 -46 -13t-38 -53t-24 -80t-4 -92q2 -36 -14 -56t-42 -26t-54 3t-46 31t-22 56z" />
<glyph unicode="&#xa1;" horiz-adv-x="750" d="M50.793 128.75v-23.6172q0 -13.4961 3.04785 -26.1494q3.04785 -12.6523 11.1748 -21.0869q8.12695 -8.43555 26.4121 -8.43555q56.8887 26.9922 124.952 43.0186t139.175 23.6182q71.1104 7.5918 144.253 8.43555t144.253 -2.53125q22.3496 8.43555 31.4922 33.7402 q9.14258 25.3057 9.14258 45.5498v8.43457q-46.7295 96.1602 -110.729 209.189q-63.999 113.03 -119.872 232.809q-55.873 119.777 -87.3652 237.868t-13.2061 224.372q-2.03223 8.43555 -14.2217 19.4014q-12.1914 10.9658 -28.4453 12.6523t-36.5703 -12.6523 q-20.3184 -14.3398 -38.6035 -58.2021zM176.762 174.3q0 11.8096 5.0791 54.8281t14.2217 101.221t21.334 122.308q12.1895 64.1074 27.4277 119.778t33.5234 94.4727q18.2861 38.8018 38.6035 43.8623q8.12695 -50.6104 27.4287 -90.2549 q19.3018 -39.6455 47.7451 -90.2549q28.4453 -50.6113 67.0479 -123.996t85.333 -194.85zM186.92 1498.6q0 -23.6172 8.12695 -53.9844q8.12695 -30.3652 25.3965 -57.3574t43.6826 -45.5498t62.9834 -18.5576q28.4453 0 52.8262 14.3398t24.3809 41.332 q-56.8887 59.0449 -66.0322 91.9424q-9.14258 32.8965 11.1748 42.1748q20.3174 9.2793 58.9199 -1.68652q38.6035 -10.9658 74.1592 -37.958t57.9043 -67.4805t10.1592 -91.0986q24.3809 0 40.6348 11.8096q16.2539 11.8086 27.4277 29.5225 q11.1748 17.7139 15.2383 37.958t4.06348 35.4268q0 45.5498 -28.4443 85.1943t-72.127 68.3242q-43.6816 28.6787 -98.5391 45.5488t-105.65 16.8701q-79.2383 0 -112.762 -43.8623t-33.5234 -102.908z" />
<glyph unicode="&#xa3;" horiz-adv-x="1496" d="M74 135q2 27 24 59q32 92 62 170t52 154t35 161t11 193q-96 20 -141 44t-40 48t55 47t142 41q40 150 92 279t125 228t171 163t230 84q68 0 124 -47t95 -116t60 -147t21 -140q-4 -66 -33 -89t-63 -13q-22 -6 -32 23t-17 75t-13 102t-20 104t-39 80t-69 32q-66 -4 -129 -44 t-119 -101t-102 -135t-77 -145t-45 -131t-6 -94h586q6 0 7 -10t1 -24t1 -29t5 -23l-632 -58l-82 -412q76 30 174 8t209 -78t234 -135t249 -161q34 0 63 15t56 34t53 34t52 15q48 -12 52 -39t-25 -57t-84 -60t-125 -48q-66 0 -133 27t-134 67t-135 88t-134 88t-131 67 t-127 27q-52 0 -88 -23t-61 -57t-42 -73t-33 -73t-33 -57t-43 -23q-12 0 -26 10t-22 29t-6 46z" />
<glyph unicode="&#xa6;" horiz-adv-x="1812" d="M40 1054q0 24 11 47t43 23q76 -16 140 -20t127 3t132 22t153 37q22 10 46 55t46 108t41 137t35 142t26 123t14 81q18 0 37 2t35 0t30 -12t24 -32q6 -90 11 -185t19 -190t41 -185t75 -168q16 -28 72 -38t130 -12t156 -2t150 -12t113 -40t45 -84q-30 -54 -80 -86t-108 -56 t-118 -48t-110 -60v-20q0 -68 23 -132t51 -128t51 -127t23 -127q0 -28 -17 -50t-49 -22q-4 0 -11 1t-9 1q-60 30 -103 76t-79 98t-70 104t-77 93t-99 65t-134 22q-28 -30 -90 -89t-132 -118t-133 -103t-93 -44q-40 0 -58 30t-18 64q0 4 1 16t1 16q8 24 32 85t50 135t46 147 t20 119q0 54 -34 84t-86 47t-111 28t-111 30t-86 53t-34 96z" />
<glyph unicode="&#xa8;" horiz-adv-x="656" d="M62 1236q0 40 34 67t74 27q46 0 75 -33t29 -75q0 -46 -33 -68t-72 -20t-72 28t-35 74zM390 1238q0 40 34 67t74 27q46 0 75 -33t29 -75q0 -46 -33 -68t-72 -20t-72 28t-35 74z" />
<glyph unicode="&#xaa;" d="M-49 75q-1 5 -1 9q0 19 16 39q20 25 76 43q70 22 114 61t68 115q0 108 39 225t105 219t150 174t173 90q24 5 47 5q65 0 128 -37q86 -50 154 -194q10 60 26 97t32 45t32 -15t26 -79q-4 -66 -18 -146t-23 -161q-7 -61 -7 -119q0 -20 1 -39q3 -77 32 -137t92 -96 q60 -34 162 -34h11q24 14 53 14t53 -10t38 -27q10 -12 10 -25q0 -6 -2 -11q-6 -19 -36 -38t-92 -31q-74 0 -137 3t-115 19t-97 49t-83 95q-42 -76 -107 -127t-138 -77t-149 -28h-13q-69 0 -131 20q-68 22 -121 66t-79 112q-50 -60 -100 -87t-91 -31q-9 -1 -17 -1 q-30 0 -50 12q-26 15 -31 38zM356 335q2 -95 41 -170t125 -105q100 0 181 49t138 125t87 166t30 174q0 46 -13 105t-39 112t-66 90t-96 37q-80 0 -152 -55t-125 -141t-83 -189q-28 -97 -28 -186v-12z" />
<glyph unicode="&#xad;" horiz-adv-x="848" d="M36 762q112 0 192 -1t155 -1t155 -1t192 -1q46 0 54 -16t8 -62q-10 -36 -55 -54t-111 -24t-143 -4t-153 8t-141 12t-105 8q-34 22 -41 62t-7 74z" />
<glyph unicode="&#xaf;" horiz-adv-x="840" d="M28 1292q112 0 192 -1t155 -1t155 -1t192 -1q46 0 54 -16t8 -62q-10 -36 -55 -54t-111 -24t-143 -4t-153 8t-141 12t-105 8q-34 22 -41 62t-7 74z" />
<glyph unicode="&#xb2;" horiz-adv-x="1666" d="M0 327q-6 85 46 157t163 120t281 46q202 0 389 -57t371 -135q46 36 78 91t53 116t30 123t9 116q0 90 -32 191t-91 186t-142 142t-185 57q-66 0 -127 -25t-113 -62t-96 -81t-77 -81t-53 -62t-24 -25q-48 0 -56 20t-10 66q0 92 54 166t134 126t174 79t176 27 q138 -12 244 -78t179 -168t113 -228t45 -257t-24 -256t-95 -225q0 -20 34 -59t76 -85t79 -93t41 -83v-12q-4 -4 -16 -7t-25 -6t-25 -5t-18 -2q-10 0 -46 35t-78 76t-78 77t-46 40q-80 -56 -172 -111t-191 -97t-202 -66t-205 -18q-174 0 -292 49t-181 121t-69 157zM141 380 q-13 -48 17 -94t107 -85t213 -57q110 0 195 11t160 36t150 65t163 98q-150 72 -320 119t-336 47q-92 14 -167 -3t-122 -53t-60 -84z" />
<glyph unicode="&#xb3;" horiz-adv-x="1354" d="M40 1220q0 60 36 107t94 83t130 61t143 42t134 24t105 7t91 -1t91 -14t70 -43t28 -88q0 -76 -45 -143t-99 -128t-99 -118t-45 -117q110 0 221 -35t200 -100t144 -160t55 -215q-12 -92 -67 -166t-136 -124t-178 -76t-190 -22t-175 38t-132 104q-10 60 6 69t42 -4t53 -35 t43 -22q66 -34 137 -42t139 5t128 43t106 74t73 99t27 115q0 84 -51 144t-126 98t-158 55t-149 17q-70 0 -115 -7t-83 -22t-78 -39t-98 -60q-44 -28 -64 -8t-22 74q-4 14 32 52t92 90t126 114t137 125t122 123t83 108t19 79t-71 37q-188 -2 -356 -62t-296 -210q-34 0 -54 22 t-20 52z" />
<glyph unicode="&#xb4;" horiz-adv-x="490" d="M83 1164q-11 20 0 56t53 82l182 138q48 38 74 31t31 -34t-8 -62t-41 -51l-180 -150q-40 -30 -70 -30t-41 20z" />
<glyph unicode="&#xb8;" horiz-adv-x="798" d="M68 -444q-8 44 5 56t35 6t47 -23t43 -33q88 -38 167 -36t140 24t98 56t39 62q-18 74 -65 115t-110 49t-134 -14t-137 -72q-20 -10 -27 32t-8 100t1 114t2 76q60 28 91 24t41 -33t4 -78t-18 -113q68 34 149 39t150 -21t114 -81t43 -141q-10 -68 -51 -117t-100 -78 t-131 -38t-143 2t-136 41t-109 82z" />
<glyph unicode="&#xb9;" horiz-adv-x="334" d="M101 1215q1 201 11 361q6 14 18 20t27 4t31 -9t28 -15q0 -174 10 -377t21 -412t20 -413t9 -378q-22 -20 -46 -27t-46 -2t-38 21t-20 44q-6 160 -13 362t-10 411t-2 410z" />
<glyph unicode="&#xba;" horiz-adv-x="1542" d="M-25 44q-3 6 -3 14q0 14 11 34q17 30 67 66q58 40 110 105t80 141q-12 63 -12 128q0 50 7 100q17 116 78 214t169 168t268 92q64 0 124 -48t112 -125t95 -172t73 -191t46 -183q14 -77 14 -132v-13q42 -48 102 -70t117 -31t102 -14t61 -19q16 -16 16 -32q0 -13 -10 -25 q-22 -29 -81 -38q-17 -3 -37 -3q-48 0 -112 16q-90 22 -198 96q-164 -108 -304 -137q-72 -15 -137 -15q-61 0 -115 13q-112 27 -195 100t-131 171q-54 -86 -107 -136t-97 -72q-42 -21 -71 -21h-3q-30 1 -39 19zM343 482q9 -90 60 -166t134 -132t176 -77q48 -11 95 -11 q45 0 89 10q91 20 161 94q-152 48 -256 101t-178 110t-128 120t-106 131q-48 -78 -48 -155q0 -13 1 -25zM484 828q-2 -13 -2 -26q0 -60 44 -124q54 -78 143 -151t198 -137t209 -112q0 52 -10 123t-30 149t-49 154t-66 137t-84 98t-101 37q-34 0 -77 -7t-82 -24t-66 -46 t-27 -71z" />
<glyph unicode="&#xbf;" horiz-adv-x="1020" d="M955.155 265.344q-70.2188 -80.2051 -159.859 -122.173q-89.6416 -41.9678 -181.523 -52.2266t-175.548 9.32617q-83.6641 19.585 -141.932 63.418q-58.2666 43.833 -81.4238 108.184t5.97656 146.421q29.1328 82.0703 120.269 177.197q91.1348 95.127 262.947 197.715 q-1.49414 108.184 -6.72363 162.275q-5.22852 54.0918 -10.458 79.2725t-8.96387 32.6416q-3.73535 7.46094 -3.73535 22.3828q59.7607 0 88.8945 -30.7764q29.1328 -30.7764 39.5908 -79.2725q10.459 -48.4961 8.96484 -110.981t-1.49414 -125.903 q-141.932 -65.2832 -233.814 -145.488q-91.8818 -80.2051 -132.221 -154.814q-40.3379 -74.6094 -27.6387 -133.364t79.9297 -81.1377t190.487 1.86523t304.033 115.645q29.8799 0 47.0615 -20.5176q17.1807 -20.5176 17.1807 -59.6875zM668.304 1557.95 q2.98828 -57.8223 -23.1572 -83.9355t-59.0137 -24.248t-60.5078 27.0459q-27.6387 25.1807 -29.1328 68.0811q0 69.0137 22.4102 96.9922t70.2188 27.9785t63.4961 -28.9111q15.6865 -28.9111 15.6865 -83.0029z" />
<glyph unicode="&#xc0;" horiz-adv-x="2144" d="M42 736q0 80 26 139t65 101t84 71t84 51t65 38t26 32v16q0 59 -13 114q-15 62 -15 126q0 38 6 65t52 27q32 0 51 -27t30 -68t14 -91t4 -97t1 -84t2 -53q48 138 84 261t85 216t127 148t212 55q172 0 300 -93t210 -254t118 -377q28 -169 28 -356q0 -52 -2 -106 q54 -120 102 -201t91 -132t78 -76t60 -36t41 -11t20 2q40 5 71 5q47 0 73 -11q40 -16 40 -42q0 -31 -51 -62q-47 -28 -129 -34q-70 0 -130 30t-110 82t-91 121t-71 145l42 -300v-29q0 -17 -3 -31t-13 -24t-28 -10q-46 0 -73 34t-44 86t-27 112t-20 112t-25 86t-43 34 q-24 0 -76 18t-150 37t-253 33q-108 10 -254 10q-62 0 -131 -2v-514q0 -20 -22 -22t-32 -2q-56 0 -80 44t-29 108q-2 29 -2 60q0 38 3 79q6 75 8 137v24q0 46 -6 75q-8 37 -40 29q-35 -10 -72 -10q-21 0 -42 3q-60 9 -110 35t-83 66t-33 88zM152 748q0 -34 35 -52t81 -27 t90 -10t62 -1q0 20 2 73q1 35 1 72v37q-1 56 -8 100t-25 48q-12 2 -23 2q-36 0 -69 -19q-44 -25 -76 -64t-51 -83t-19 -76zM592 756q0 -36 1 -61l1 -25q9 2 31 2q17 0 41 -1q56 -3 131 -9t159 -13t154 -9q20 -1 38 -1q45 0 78 4q46 5 46 21q0 36 -39 74t-99 75t-134 70 t-142 58t-124 40t-80 15q-20 0 -32 -24t-18 -60t-9 -78t-3 -78zM658 1102q108 0 200 -31t173 -78t151 -101t131 -101t116 -79t107 -34q0 94 -19 203t-52 218t-79 210t-100 178t-113 123t-119 46q-100 0 -174 -59t-122 -145t-73 -181t-27 -169zM878 2147q6 27 32 34t76 -31 l190 -134q44 -44 55 -79t-1 -54t-42 -18t-72 29l-188 144q-30 16 -43 49t-7 60z" />
<glyph unicode="&#xc1;" horiz-adv-x="2144" d="M42 736q0 80 26 139t65 101t84 71t84 51t65 38t26 32v16q0 59 -13 114q-15 62 -15 126q0 38 6 65t52 27q32 0 51 -27t30 -68t14 -91t4 -97t1 -84t2 -53q48 138 84 261t85 216t127 148t212 55q172 0 300 -93t210 -254t118 -377q28 -169 28 -356q0 -52 -2 -106 q54 -120 102 -201t91 -132t78 -76t60 -36t41 -11t20 2q40 5 71 5q47 0 73 -11q40 -16 40 -42q0 -31 -51 -62q-47 -28 -129 -34q-70 0 -130 30t-110 82t-91 121t-71 145l42 -300v-29q0 -17 -3 -31t-13 -24t-28 -10q-46 0 -73 34t-44 86t-27 112t-20 112t-25 86t-43 34 q-24 0 -76 18t-150 37t-253 33q-108 10 -254 10q-62 0 -131 -2v-514q0 -20 -22 -22t-32 -2q-56 0 -80 44t-29 108q-2 29 -2 60q0 38 3 79q6 75 8 137v24q0 46 -6 75q-8 37 -40 29q-35 -10 -72 -10q-21 0 -42 3q-60 9 -110 35t-83 66t-33 88zM152 748q0 -34 35 -52t81 -27 t90 -10t62 -1q0 20 2 73q1 35 1 72v37q-1 56 -8 100t-25 48q-12 2 -23 2q-36 0 -69 -19q-44 -25 -76 -64t-51 -83t-19 -76zM592 756q0 -36 1 -61l1 -25q9 2 31 2q17 0 41 -1q56 -3 131 -9t159 -13t154 -9q20 -1 38 -1q45 0 78 4q46 5 46 21q0 36 -39 74t-99 75t-134 70 t-142 58t-124 40t-80 15q-20 0 -32 -24t-18 -60t-9 -78t-3 -78zM658 1102q108 0 200 -31t173 -78t151 -101t131 -101t116 -79t107 -34q0 94 -19 203t-52 218t-79 210t-100 178t-113 123t-119 46q-100 0 -174 -59t-122 -145t-73 -181t-27 -169zM877 1850q-11 20 0 56t53 82 l182 138q48 38 74 31t31 -34t-8 -62t-41 -51l-180 -150q-40 -30 -70 -30t-41 20z" />
<glyph unicode="&#xc2;" horiz-adv-x="2144" d="M42 736q0 80 26 139t65 101t84 71t84 51t65 38t26 32v16q0 59 -13 114q-15 62 -15 126q0 38 6 65t52 27q32 0 51 -27t30 -68t14 -91t4 -97t1 -84t2 -53q48 138 84 261t85 216t127 148t212 55q172 0 300 -93t210 -254t118 -377q28 -169 28 -356q0 -52 -2 -106 q54 -120 102 -201t91 -132t78 -76t60 -36t41 -11t20 2q40 5 71 5q47 0 73 -11q40 -16 40 -42q0 -31 -51 -62q-47 -28 -129 -34q-70 0 -130 30t-110 82t-91 121t-71 145l42 -300v-29q0 -17 -3 -31t-13 -24t-28 -10q-46 0 -73 34t-44 86t-27 112t-20 112t-25 86t-43 34 q-24 0 -76 18t-150 37t-253 33q-108 10 -254 10q-62 0 -131 -2v-514q0 -20 -22 -22t-32 -2q-56 0 -80 44t-29 108q-2 29 -2 60q0 38 3 79q6 75 8 137v24q0 46 -6 75q-8 37 -40 29q-35 -10 -72 -10q-21 0 -42 3q-60 9 -110 35t-83 66t-33 88zM152 748q0 -34 35 -52t81 -27 t90 -10t62 -1q0 20 2 73q1 35 1 72v37q-1 56 -8 100t-25 48q-12 2 -23 2q-36 0 -69 -19q-44 -25 -76 -64t-51 -83t-19 -76zM592 756q0 -36 1 -61l1 -25q9 2 31 2q17 0 41 -1q56 -3 131 -9t159 -13t154 -9q20 -1 38 -1q45 0 78 4q46 5 46 21q0 36 -39 74t-99 75t-134 70 t-142 58t-124 40t-80 15q-20 0 -32 -24t-18 -60t-9 -78t-3 -78zM658 1102q108 0 200 -31t173 -78t151 -101t131 -101t116 -79t107 -34q0 94 -19 203t-52 218t-79 210t-100 178t-113 123t-119 46q-100 0 -174 -59t-122 -145t-73 -181t-27 -169zM798 1882l126 306q40 66 78 89 t69 14t53 -43t34 -80l186 -272q-4 -16 -17 -28t-30 -20t-36 -12t-33 0l-184 250l-130 -248q-22 -24 -43 -30t-37 2t-26 27t-10 45z" />
<glyph unicode="&#xc3;" horiz-adv-x="2144" d="M42 736q0 80 26 139t65 101t84 71t84 51t65 38t26 32v16q0 59 -13 114q-15 62 -15 126q0 38 6 65t52 27q32 0 51 -27t30 -68t14 -91t4 -97t1 -84t2 -53q48 138 84 261t85 216t127 148t212 55q172 0 300 -93t210 -254t118 -377q28 -169 28 -356q0 -52 -2 -106 q54 -120 102 -201t91 -132t78 -76t60 -36t41 -11t20 2q40 5 71 5q47 0 73 -11q40 -16 40 -42q0 -31 -51 -62q-47 -28 -129 -34q-70 0 -130 30t-110 82t-91 121t-71 145l42 -300v-29q0 -17 -3 -31t-13 -24t-28 -10q-46 0 -73 34t-44 86t-27 112t-20 112t-25 86t-43 34 q-24 0 -76 18t-150 37t-253 33q-108 10 -254 10q-62 0 -131 -2v-514q0 -20 -22 -22t-32 -2q-56 0 -80 44t-29 108q-2 29 -2 60q0 38 3 79q6 75 8 137v24q0 46 -6 75q-8 37 -40 29q-35 -10 -72 -10q-21 0 -42 3q-60 9 -110 35t-83 66t-33 88zM152 748q0 -34 35 -52t81 -27 t90 -10t62 -1q0 20 2 73q1 35 1 72v37q-1 56 -8 100t-25 48q-12 2 -23 2q-36 0 -69 -19q-44 -25 -76 -64t-51 -83t-19 -76zM592 756q0 -36 1 -61l1 -25q9 2 31 2q17 0 41 -1q56 -3 131 -9t159 -13t154 -9q20 -1 38 -1q45 0 78 4q46 5 46 21q0 36 -39 74t-99 75t-134 70 t-142 58t-124 40t-80 15q-20 0 -32 -24t-18 -60t-9 -78t-3 -78zM658 1102q108 0 200 -31t173 -78t151 -101t131 -101t116 -79t107 -34q0 94 -19 203t-52 218t-79 210t-100 178t-113 123t-119 46q-100 0 -174 -59t-122 -145t-73 -181t-27 -169zM582 1978q-4 34 18 80 q22 76 46 128t54 86t69 53t91 31q96 0 147 -24t77 -60t36 -77t27 -76t49 -56t102 -17q48 0 78 36t56 78t54 78t74 36q12 0 25 -10t24 -24t18 -30t7 -28q-16 -78 -68 -141t-118 -103t-134 -53t-116 9q-54 30 -88 67t-55 75t-36 73t-33 60t-44 36t-70 3q-24 6 -46 -13t-38 -53 t-24 -80t-4 -92q4 -36 -13 -56t-43 -26t-54 3t-46 31t-22 56z" />
<glyph unicode="&#xc4;" horiz-adv-x="2144" d="M42 736q0 80 26 139t65 101t84 71t84 51t65 38t26 32v16q0 59 -13 114q-15 62 -15 126q0 38 6 65t52 27q32 0 51 -27t30 -68t14 -91t4 -97t1 -84t2 -53q48 138 84 261t85 216t127 148t212 55q172 0 300 -93t210 -254t118 -377q28 -169 28 -356q0 -52 -2 -106 q54 -120 102 -201t91 -132t78 -76t60 -36t41 -11t20 2q40 5 71 5q47 0 73 -11q40 -16 40 -42q0 -31 -51 -62q-47 -28 -129 -34q-70 0 -130 30t-110 82t-91 121t-71 145l42 -300v-29q0 -17 -3 -31t-13 -24t-28 -10q-46 0 -73 34t-44 86t-27 112t-20 112t-25 86t-43 34 q-24 0 -76 18t-150 37t-253 33q-108 10 -254 10q-62 0 -131 -2v-514q0 -20 -22 -22t-32 -2q-56 0 -80 44t-29 108q-2 29 -2 60q0 38 3 79q6 75 8 137v24q0 46 -6 75q-8 37 -40 29q-35 -10 -72 -10q-21 0 -42 3q-60 9 -110 35t-83 66t-33 88zM152 748q0 -34 35 -52t81 -27 t90 -10t62 -1q0 20 2 73q1 35 1 72v37q-1 56 -8 100t-25 48q-12 2 -23 2q-36 0 -69 -19q-44 -25 -76 -64t-51 -83t-19 -76zM592 756q0 -36 1 -61l1 -25q9 2 31 2q17 0 41 -1q56 -3 131 -9t159 -13t154 -9q20 -1 38 -1q45 0 78 4q46 5 46 21q0 36 -39 74t-99 75t-134 70 t-142 58t-124 40t-80 15q-20 0 -32 -24t-18 -60t-9 -78t-3 -78zM658 1102q108 0 200 -31t173 -78t151 -101t131 -101t116 -79t107 -34q0 94 -19 203t-52 218t-79 210t-100 178t-113 123t-119 46q-100 0 -174 -59t-122 -145t-73 -181t-27 -169zM802 1974q0 40 34 67t74 27 q46 0 75 -33t29 -75q0 -46 -33 -68t-72 -20t-72 28t-35 74zM1130 1976q0 40 34 67t74 27q46 0 75 -33t29 -75q0 -46 -33 -68t-72 -20t-72 28t-35 74z" />
<glyph unicode="&#xc5;" horiz-adv-x="2144" d="M42 736q0 80 26 139t65 101t84 71t84 51t65 38t26 32v16q0 59 -13 114q-15 62 -15 126q0 38 6 65t52 27q32 0 51 -27t30 -68t14 -91t4 -97t1 -84t2 -53q48 138 84 261t85 216t127 148t212 55q172 0 300 -93t210 -254t118 -377q28 -169 28 -356q0 -52 -2 -106 q54 -120 102 -201t91 -132t78 -76t60 -36t41 -11t20 2q40 5 71 5q47 0 73 -11q40 -16 40 -42q0 -31 -51 -62q-47 -28 -129 -34q-70 0 -130 30t-110 82t-91 121t-71 145l42 -300v-29q0 -17 -3 -31t-13 -24t-28 -10q-46 0 -73 34t-44 86t-27 112t-20 112t-25 86t-43 34 q-24 0 -76 18t-150 37t-253 33q-108 10 -254 10q-62 0 -131 -2v-514q0 -20 -22 -22t-32 -2q-56 0 -80 44t-29 108q-2 29 -2 60q0 38 3 79q6 75 8 137v24q0 46 -6 75q-8 37 -40 29q-35 -10 -72 -10q-21 0 -42 3q-60 9 -110 35t-83 66t-33 88zM152 748q0 -34 35 -52t81 -27 t90 -10t62 -1q0 20 2 73q1 35 1 72v37q-1 56 -8 100t-25 48q-12 2 -23 2q-36 0 -69 -19q-44 -25 -76 -64t-51 -83t-19 -76zM592 756q0 -36 1 -61l1 -25q9 2 31 2q17 0 41 -1q56 -3 131 -9t159 -13t154 -9q20 -1 38 -1q45 0 78 4q46 5 46 21q0 36 -39 74t-99 75t-134 70 t-142 58t-124 40t-80 15q-20 0 -32 -24t-18 -60t-9 -78t-3 -78zM658 1102q108 0 200 -31t173 -78t151 -101t131 -101t116 -79t107 -34q0 94 -19 203t-52 218t-79 210t-100 178t-113 123t-119 46q-100 0 -174 -59t-122 -145t-73 -181t-27 -169zM850 2032q0 70 29 113t74 64 t98 24t100 -8t81 -32t42 -45q20 -14 20 -34q0 -54 -28 -101t-71 -81t-97 -54t-104 -20q-78 0 -111 52t-33 122zM1002 2070q-8 -30 6 -59t39 -35t54 24t51 118q-74 18 -108 0t-42 -48z" />
<glyph unicode="&#xc6;" horiz-adv-x="2952" d="M42 736q0 80 26 139t65 101t84 71t84 51t65 38t26 32q2 68 -13 130t-15 126q0 38 6 65t52 27q32 0 51 -27t30 -68t14 -91t4 -97t1 -84t2 -53q48 138 84 261t85 216t127 148t212 55q182 0 313 -103t213 -281q14 96 94 166t196 113t253 58t264 2t230 -56t151 -115 q0 -10 -2 -28t-9 -36t-20 -30t-33 -10q-64 70 -166 99t-217 30t-230 -23t-202 -61t-135 -82t-28 -87q36 -56 124 -88t197 -51t226 -30t214 -26t159 -39t62 -68q0 -40 -68 -65t-171 -50t-222 -55t-222 -79t-171 -125t-68 -190q0 -98 43 -160t116 -95t170 -45t203 -10t216 12 t210 18t183 9t137 -15q2 -28 4 -50q2 -20 3 -37t1 -19q-354 -44 -593 -53t-394 10t-238 62t-121 107l18 -130v-29q0 -17 -3 -31t-13 -24t-28 -10q-46 0 -73 34t-44 86t-27 112t-20 112t-25 86t-43 34q-24 0 -76 18t-150 37t-253 33t-385 8v-514q0 -20 -22 -22t-32 -2 q-56 0 -80 44t-29 108t1 139t8 137t-6 99t-40 29q-54 -16 -114 -7t-110 35t-83 66t-33 88zM152 748q0 -34 35 -52t81 -27t90 -10t62 -1q0 20 2 73t1 109t-8 100t-25 48q-48 8 -92 -17t-76 -64t-51 -83t-19 -76zM592 756q0 -36 1 -61l1 -25q16 4 72 1t131 -9t159 -13t154 -9 t116 3t46 21q0 36 -39 74t-99 75t-134 70t-142 58t-124 40t-80 15q-20 0 -32 -24t-18 -60t-9 -78t-3 -78zM658 1102q108 0 200 -31t173 -78t151 -101t131 -101t116 -79t107 -34q0 94 -19 203t-52 218t-79 210t-100 178t-113 123t-119 46q-100 0 -174 -59t-122 -145t-73 -181 t-27 -169zM1626 1202q30 -114 46 -243t16 -269q38 66 98 115t133 87t152 68t153 60q-46 32 -125 46t-166 28t-170 37t-137 71z" />
<glyph unicode="&#xc7;" horiz-adv-x="1570" d="M59 1716q0 12 2 22q3 14 13 24t32 10q28 0 44 -25t30 -62t29 -81t40 -81t62 -62t97 -25q34 0 67 27t68 66t74 86t85 86t102 66t124 27q58 0 112 -14t96 -44t68 -77t26 -113q0 -72 -39 -122t-102 -84t-141 -54t-157 -29t-151 -10h-28q-54 0 -92 3q-72 -108 -95 -237 q-13 -72 -13 -146q0 -57 8 -115q18 -132 75 -256t145 -221t202 -158t250 -65q38 -5 76 -5q42 0 85 6q81 11 153 30t132 37t98 21t48 -18q3 -6 3 -16q0 -23 -17 -65q-34 -12 -104 -32t-151 -39t-163 -32t-138 -13q-25 -1 -49 -1q-142 0 -264 50q-143 59 -252 165t-180 248 t-96 297q-13 81 -13 162q0 75 11 150q23 157 103 295q-66 18 -123 55t-100 88t-67 113t-24 130q0 6 -0.5 19t-0.5 19zM624 1416q50 0 121 4t141 20t131 47t89 85q0 26 -12 41t-31 23t-42 10t-43 2q-56 0 -106 -21t-94 -55t-83 -75t-71 -81zM848 -546q-8 44 5 56t35 6t47 -23 t43 -33q88 -38 167 -36t140 24t98 56t39 62q-18 74 -65 115t-110 49t-134 -14t-137 -72q-20 -10 -27 32t-8 100t1 114t2 76q60 28 91 24t41 -33t4 -78t-18 -113q68 34 149 39t150 -21t114 -81t43 -141q-10 -68 -51 -117t-100 -78t-131 -38t-143 2t-136 41t-109 82z" />
<glyph unicode="&#xc8;" horiz-adv-x="1496" d="M60 1328q6 102 82 176t192 120t255 64q81 10 158 10q56 0 111 -5q130 -13 236 -56t156 -117q0 -10 -2 -28t-9 -36t-20 -30t-33 -10q-64 70 -166 99t-217 30h-9l-221 -23q-115 -24 -202 -61t-135 -82q-34 -32 -34 -62q0 -13 6 -25q36 -56 124 -88t197 -51t226 -30t214 -26 t159 -39t62 -68q0 -40 -68 -65t-171 -50t-222 -55t-222 -79t-171 -125t-68 -190q6 -122 75 -187t179 -92q106 -26 237 -26h10q137 1 277 10t271 16q44 2 84 2q80 0 145 -9q2 -28 4 -50q2 -20 3 -37t1 -19q-350 -44 -588 -53q-79 -3 -149 -3q-140 0 -243 12q-154 18 -238 61 t-124 105t-51 139t-17 163q0 122 55 205t140 141t189 98t200 78q-40 28 -105 42t-139 25t-149 26t-136 45t-100 79t-39 131zM554 2147q6 27 32 34t76 -31l190 -134q44 -44 55 -79t-1 -54t-42 -18t-72 29l-188 144q-30 16 -43 49t-7 60z" />
<glyph unicode="&#xc9;" horiz-adv-x="1496" d="M60 1328q6 102 82 176t192 120t255 64q81 10 158 10q56 0 111 -5q130 -13 236 -56t156 -117q0 -10 -2 -28t-9 -36t-20 -30t-33 -10q-64 70 -166 99t-217 30h-9l-221 -23q-115 -24 -202 -61t-135 -82q-34 -32 -34 -62q0 -13 6 -25q36 -56 124 -88t197 -51t226 -30t214 -26 t159 -39t62 -68q0 -40 -68 -65t-171 -50t-222 -55t-222 -79t-171 -125t-68 -190q6 -122 75 -187t179 -92q106 -26 237 -26h10q137 1 277 10t271 16q44 2 84 2q80 0 145 -9q2 -28 4 -50q2 -20 3 -37t1 -19q-350 -44 -588 -53q-79 -3 -149 -3q-140 0 -243 12q-154 18 -238 61 t-124 105t-51 139t-17 163q0 122 55 205t140 141t189 98t200 78q-40 28 -105 42t-139 25t-149 26t-136 45t-100 79t-39 131zM593 1902q-11 20 0 56t53 82l182 138q48 38 74 31t31 -34t-8 -62t-41 -51l-180 -150q-40 -30 -70 -30t-41 20z" />
<glyph unicode="&#xca;" horiz-adv-x="1496" d="M60 1328q6 102 82 176t192 120t255 64q81 10 158 10q56 0 111 -5q130 -13 236 -56t156 -117q0 -10 -2 -28t-9 -36t-20 -30t-33 -10q-64 70 -166 99t-217 30h-9l-221 -23q-115 -24 -202 -61t-135 -82q-34 -32 -34 -62q0 -13 6 -25q36 -56 124 -88t197 -51t226 -30t214 -26 t159 -39t62 -68q0 -40 -68 -65t-171 -50t-222 -55t-222 -79t-171 -125t-68 -190q6 -122 75 -187t179 -92q106 -26 237 -26h10q137 1 277 10t271 16q44 2 84 2q80 0 145 -9q2 -28 4 -50q2 -20 3 -37t1 -19q-350 -44 -588 -53q-79 -3 -149 -3q-140 0 -243 12q-154 18 -238 61 t-124 105t-51 139t-17 163q0 122 55 205t140 141t189 98t200 78q-40 28 -105 42t-139 25t-149 26t-136 45t-100 79t-39 131zM474 1954l126 306q40 66 78 89t69 14t53 -43t34 -80l186 -272q-4 -16 -17 -28t-30 -20t-36 -12t-33 0l-184 250l-130 -248q-22 -24 -43 -30t-37 2 t-26 27t-10 45z" />
<glyph unicode="&#xcb;" horiz-adv-x="1496" d="M60 1328q6 102 82 176t192 120t255 64q81 10 158 10q56 0 111 -5q130 -13 236 -56t156 -117q0 -10 -2 -28t-9 -36t-20 -30t-33 -10q-64 70 -166 99t-217 30h-9l-221 -23q-115 -24 -202 -61t-135 -82q-34 -32 -34 -62q0 -13 6 -25q36 -56 124 -88t197 -51t226 -30t214 -26 t159 -39t62 -68q0 -40 -68 -65t-171 -50t-222 -55t-222 -79t-171 -125t-68 -190q6 -122 75 -187t179 -92q106 -26 237 -26h10q137 1 277 10t271 16q44 2 84 2q80 0 145 -9q2 -28 4 -50q2 -20 3 -37t1 -19q-350 -44 -588 -53q-79 -3 -149 -3q-140 0 -243 12q-154 18 -238 61 t-124 105t-51 139t-17 163q0 122 55 205t140 141t189 98t200 78q-40 28 -105 42t-139 25t-149 26t-136 45t-100 79t-39 131zM478 1974q0 40 34 67t74 27q46 0 75 -33t29 -75q0 -46 -33 -68t-72 -20t-72 28t-35 74zM806 1976q0 40 34 67t74 27q46 0 75 -33t29 -75 q0 -46 -33 -68t-72 -20t-72 28t-35 74z" />
<glyph unicode="&#xcc;" horiz-adv-x="2198" d="M40 750q0 30 11 48t43 18q106 -46 227 -111t248 -118t255 -77q51 -10 102 -10q76 0 150 22q70 -6 90 -28t-1 -46t-77 -46t-138 -30q-104 0 -203 23t-191 58t-173 74t-149 73q0 -106 51 -191t132 -144t179 -90t194 -31q26 0 81 8t122 22t138 34t130 44t97 52t38 60 q-12 106 -45 242t-63 280t-48 287q-9 74 -9 141q0 64 8 123q17 121 79 209t192 124q35 3 68 3q120 0 206 -35q110 -44 176 -127t90 -197q17 -83 17 -172q0 -33 -2 -68q-9 -126 -48 -256t-101 -248t-142 -214t-172 -154q24 -72 75 -111t112 -56t127 -17t123 5t96 11t47 0 q54 0 80 -16q25 -15 25 -36q0 -23 -26 -45q-25 -21 -71 -29q-118 -9 -211 -9h-18q-99 1 -181 24t-156 72t-154 137q-56 -40 -133 -82t-166 -75t-181 -54t-178 -21q-174 0 -300 60t-216 163t-151 239t-105 288zM1376 1234q0 -116 18 -247t54 -273t84 -278q52 0 105 42 t100 107t88 147t71 161t47 148t17 111q0 94 -18 180t-60 152t-113 105t-177 39q-76 -2 -123 -53t-70 -138t-23 -203zM1466 2091q6 27 32 34t76 -31l190 -134q44 -44 55 -79t-1 -54t-42 -18t-72 29l-188 144q-30 16 -43 49t-7 60z" />
<glyph unicode="&#xcd;" horiz-adv-x="2198" d="M40 750q0 30 11 48t43 18q106 -46 227 -111t248 -118t255 -77q51 -10 102 -10q76 0 150 22q70 -6 90 -28t-1 -46t-77 -46t-138 -30q-104 0 -203 23t-191 58t-173 74t-149 73q0 -106 51 -191t132 -144t179 -90t194 -31q26 0 81 8t122 22t138 34t130 44t97 52t38 60 q-12 106 -45 242t-63 280t-48 287q-9 74 -9 141q0 64 8 123q17 121 79 209t192 124q35 3 68 3q120 0 206 -35q110 -44 176 -127t90 -197q17 -83 17 -172q0 -33 -2 -68q-9 -126 -48 -256t-101 -248t-142 -214t-172 -154q24 -72 75 -111t112 -56t127 -17t123 5t96 11t47 0 q54 0 80 -16q25 -15 25 -36q0 -23 -26 -45q-25 -21 -71 -29q-118 -9 -211 -9h-18q-99 1 -181 24t-156 72t-154 137q-56 -40 -133 -82t-166 -75t-181 -54t-178 -21q-174 0 -300 60t-216 163t-151 239t-105 288zM1376 1234q0 -116 18 -247t54 -273t84 -278q52 0 105 42 t100 107t88 147t71 161t47 148t17 111q0 94 -18 180t-60 152t-113 105t-177 39q-76 -2 -123 -53t-70 -138t-23 -203zM1401 1902q-11 20 0 56t53 82l182 138q48 38 74 31t31 -34t-8 -62t-41 -51l-180 -150q-40 -30 -70 -30t-41 20z" />
<glyph unicode="&#xce;" horiz-adv-x="2198" d="M40 750q0 30 11 48t43 18q106 -46 227 -111t248 -118t255 -77q51 -10 102 -10q76 0 150 22q70 -6 90 -28t-1 -46t-77 -46t-138 -30q-104 0 -203 23t-191 58t-173 74t-149 73q0 -106 51 -191t132 -144t179 -90t194 -31q26 0 81 8t122 22t138 34t130 44t97 52t38 60 q-12 106 -45 242t-63 280t-48 287q-9 74 -9 141q0 64 8 123q17 121 79 209t192 124q35 3 68 3q120 0 206 -35q110 -44 176 -127t90 -197q17 -83 17 -172q0 -33 -2 -68q-9 -126 -48 -256t-101 -248t-142 -214t-172 -154q24 -72 75 -111t112 -56t127 -17t123 5t96 11t47 0 q54 0 80 -16q25 -15 25 -36q0 -23 -26 -45q-25 -21 -71 -29q-118 -9 -211 -9h-18q-99 1 -181 24t-156 72t-154 137q-56 -40 -133 -82t-166 -75t-181 -54t-178 -21q-174 0 -300 60t-216 163t-151 239t-105 288zM1376 1234q0 -116 18 -247t54 -273t84 -278q52 0 105 42 t100 107t88 147t71 161t47 148t17 111q0 94 -18 180t-60 152t-113 105t-177 39q-76 -2 -123 -53t-70 -138t-23 -203zM1338 1914l126 306q40 66 78 89t69 14t53 -43t34 -80l186 -272q-4 -16 -17 -28t-30 -20t-36 -12t-33 0l-184 250l-130 -248q-22 -24 -43 -30t-37 2t-26 27 t-10 45z" />
<glyph unicode="&#xcf;" horiz-adv-x="2198" d="M40 750q0 30 11 48t43 18q106 -46 227 -111t248 -118t255 -77q51 -10 102 -10q76 0 150 22q70 -6 90 -28t-1 -46t-77 -46t-138 -30q-104 0 -203 23t-191 58t-173 74t-149 73q0 -106 51 -191t132 -144t179 -90t194 -31q26 0 81 8t122 22t138 34t130 44t97 52t38 60 q-12 106 -45 242t-63 280t-48 287q-9 74 -9 141q0 64 8 123q17 121 79 209t192 124q35 3 68 3q120 0 206 -35q110 -44 176 -127t90 -197q17 -83 17 -172q0 -33 -2 -68q-9 -126 -48 -256t-101 -248t-142 -214t-172 -154q24 -72 75 -111t112 -56t127 -17t123 5t96 11t47 0 q54 0 80 -16q25 -15 25 -36q0 -23 -26 -45q-25 -21 -71 -29q-118 -9 -211 -9h-18q-99 1 -181 24t-156 72t-154 137q-56 -40 -133 -82t-166 -75t-181 -54t-178 -21q-174 0 -300 60t-216 163t-151 239t-105 288zM1376 1234q0 -116 18 -247t54 -273t84 -278q52 0 105 42 t100 107t88 147t71 161t47 148t17 111q0 94 -18 180t-60 152t-113 105t-177 39q-76 -2 -123 -53t-70 -138t-23 -203zM1388 1942q0 40 34 67t74 27q46 0 75 -33t29 -75q0 -46 -33 -68t-72 -20t-72 28t-35 74zM1716 1944q0 40 34 67t74 27q46 0 75 -33t29 -75q0 -46 -33 -68 t-72 -20t-72 28t-35 74z" />
<glyph unicode="&#xd0;" horiz-adv-x="1894" d="M56 864h141q61 0 117 -2q-32 190 -50 322t-25 218t-4 133t15 70t33 30t49 11q148 -2 314 -35t331 -97t316 -157t267 -214t185 -271t69 -326q-4 -150 -47 -241t-117 -141q46 -12 78 -16t61 -4t61 3t78 3q36 0 57 -16t23 -38t-16 -44t-60 -34q-90 -8 -152 -5t-111 15 t-91 31t-90 43q-232 -20 -394 -20t-270 9t-171 23t-101 24q-12 -78 -38 -104t-55 -18t-53 40t-32 68q-4 16 -28 32t-59 34t-75 39t-74 46t-57 55t-23 66q0 52 34 87t82 58t99 36t85 21q-6 28 -11 55t-9 55q-72 6 -134 12t-100 8q-34 22 -41 62t-7 74zM233 372q7 -30 44 -55 t97 -25q18 8 22 31t0 50t-15 50t-23 29q-74 0 -103 -25t-22 -55zM374 1480q0 -158 16 -310t44 -310h316q46 0 54 -16t8 -62q-8 -30 -40 -47t-80 -25t-108 -10t-122 2q4 -20 8 -39t8 -39q30 2 108 -13t180 -41t214 -60t209 -74t168 -81t89 -81q144 0 204 71t60 229 q-4 130 -72 255t-177 234t-248 198t-286 146t-291 78t-262 -5zM516 458q0 -10 3 -41t9 -64t13 -59t15 -28q68 -28 162 -45t198 -23t210 2t196 32q-124 78 -257 129t-248 77t-197 30t-104 -10z" />
<glyph unicode="&#xd1;" horiz-adv-x="2050" d="M40 1234q0 62 19 144t58 156t99 125t140 51q68 0 126 -47t106 -121t85 -166t65 -182t46 -170t28 -128q22 56 54 134t74 162t93 166t112 146t130 104t149 40q68 -10 116 -34t81 -78t52 -146t25 -240q3 -74 3 -163.5t-3 -194.5q-6 -210 -20 -500q6 -46 30 -82t61 -59 t81 -32q21 -4 42 -4l46 5h16q98 0 153 -23q58 -25 58 -51q0 -28 -65 -46q-36 -10 -94 -10q-45 0 -104 6q-64 0 -121 19t-102 54t-75 86t-42 115q-5 69 -5 151q0 41 1 85q4 132 10 271t8 271v37q0 110 -10 200q-12 105 -43 170t-89 67q-80 0 -150 -53t-128 -142t-106 -206 t-87 -244t-67 -257t-48 -245t-31 -208t-13 -145q-8 -22 -28 -25t-41 8t-38 32t-19 49q1 23 1 67v50q-1 83 -6 195t-15 243t-26 263t-39 255t-55 218t-74 152t-94 57q-60 0 -99 -37t-63 -90t-34 -112t-10 -103q44 -48 58 -92q10 -31 10 -56q0 -11 -2 -20q-6 -32 -28 -44 t-50 2t-58 62t-54 138zM958 1834q-4 34 18 80q22 76 46 128t54 86t69 53t91 31q96 0 147 -24t77 -60t36 -77t27 -76t49 -56t102 -17q48 0 78 36t56 78t54 78t74 36q12 0 25 -10t24 -24t18 -30t7 -28q-16 -78 -68 -141t-118 -103t-134 -53t-116 9q-54 30 -88 67t-55 75 t-36 73t-33 60t-44 36t-70 3q-24 6 -46 -13t-38 -53t-24 -80t-4 -92q4 -36 -13 -56t-43 -26t-54 3t-46 31t-22 56z" />
<glyph unicode="&#xd2;" horiz-adv-x="1534" d="M32 983q16 185 96 397q54 136 160 211t238 99q70 13 144 13q65 0 133 -10q145 -21 276 -79t235 -147t156 -199q62 0 113 41t109 125l66 -100q-32 -56 -69 -86t-72 -46t-63 -27t-40 -31q28 -113 28 -221q0 -94 -21 -186q-45 -197 -163 -355t-295 -261t-387 -123h-16 q-85 0 -175 38q-99 42 -187 125t-155 205t-97 277q-20 101 -20 215q0 61 6 125zM139 920q1 -108 24 -219t67 -216t110 -185t152 -128q83 -46 185 -46h9h9q95 0 192 40q101 42 192 116t165 172t119 207t55 223q2 24 2 47q0 89 -30 171q-132 -52 -295 -91t-330 -46 q-29 -1 -57 -1q-137 0 -268 28q-158 34 -282 124q-19 -84 -19 -186v-10zM278 1343q-2 -12 -2 -23q0 -42 29 -81q37 -49 122 -87t223 -52q20 0 79 4t135 11t158 18t150 25t113 30t45 36q0 64 -33 114t-87 87t-121 64t-135 43t-130 23t-104 7q-134 -6 -229 -39t-149 -79 t-64 -101zM574 2147q6 27 32 34t76 -31l190 -134q44 -44 55 -79t-1 -54t-42 -18t-72 29l-188 144q-30 16 -43 49t-7 60z" />
<glyph unicode="&#xd3;" horiz-adv-x="1534" d="M32 983q16 185 96 397q54 136 160 211t238 99q70 13 144 13q65 0 133 -10q145 -21 276 -79t235 -147t156 -199q62 0 113 41t109 125l66 -100q-32 -56 -69 -86t-72 -46t-63 -27t-40 -31q28 -113 28 -221q0 -94 -21 -186q-45 -197 -163 -355t-295 -261t-387 -123h-16 q-85 0 -175 38q-99 42 -187 125t-155 205t-97 277q-20 101 -20 215q0 61 6 125zM139 920q1 -108 24 -219t67 -216t110 -185t152 -128q83 -46 185 -46h9h9q95 0 192 40q101 42 192 116t165 172t119 207t55 223q2 24 2 47q0 89 -30 171q-132 -52 -295 -91t-330 -46 q-29 -1 -57 -1q-137 0 -268 28q-158 34 -282 124q-19 -84 -19 -186v-10zM278 1343q-2 -12 -2 -23q0 -42 29 -81q37 -49 122 -87t223 -52q20 0 79 4t135 11t158 18t150 25t113 30t45 36q0 64 -33 114t-87 87t-121 64t-135 43t-130 23t-104 7q-134 -6 -229 -39t-149 -79 t-64 -101zM613 1902q-11 20 0 56t53 82l182 138q48 38 74 31t31 -34t-8 -62t-41 -51l-180 -150q-40 -30 -70 -30t-41 20z" />
<glyph unicode="&#xd4;" horiz-adv-x="1534" d="M32 983q16 185 96 397q54 136 160 211t238 99q70 13 144 13q65 0 133 -10q145 -21 276 -79t235 -147t156 -199q62 0 113 41t109 125l66 -100q-32 -56 -69 -86t-72 -46t-63 -27t-40 -31q28 -113 28 -221q0 -94 -21 -186q-45 -197 -163 -355t-295 -261t-387 -123h-16 q-85 0 -175 38q-99 42 -187 125t-155 205t-97 277q-20 101 -20 215q0 61 6 125zM139 920q1 -108 24 -219t67 -216t110 -185t152 -128q83 -46 185 -46h9h9q95 0 192 40q101 42 192 116t165 172t119 207t55 223q2 24 2 47q0 89 -30 171q-132 -52 -295 -91t-330 -46 q-29 -1 -57 -1q-137 0 -268 28q-158 34 -282 124q-19 -84 -19 -186v-10zM278 1343q-2 -12 -2 -23q0 -42 29 -81q37 -49 122 -87t223 -52q20 0 79 4t135 11t158 18t150 25t113 30t45 36q0 64 -33 114t-87 87t-121 64t-135 43t-130 23t-104 7q-134 -6 -229 -39t-149 -79 t-64 -101zM494 1954l126 306q40 66 78 89t69 14t53 -43t34 -80l186 -272q-4 -16 -17 -28t-30 -20t-36 -12t-33 0l-184 250l-130 -248q-22 -24 -43 -30t-37 2t-26 27t-10 45z" />
<glyph unicode="&#xd5;" horiz-adv-x="1534" d="M32 983q16 185 96 397q54 136 160 211t238 99q70 13 144 13q65 0 133 -10q145 -21 276 -79t235 -147t156 -199q62 0 113 41t109 125l66 -100q-32 -56 -69 -86t-72 -46t-63 -27t-40 -31q28 -113 28 -221q0 -94 -21 -186q-45 -197 -163 -355t-295 -261t-387 -123h-16 q-85 0 -175 38q-99 42 -187 125t-155 205t-97 277q-20 101 -20 215q0 61 6 125zM139 920q1 -108 24 -219t67 -216t110 -185t152 -128q83 -46 185 -46h9h9q95 0 192 40q101 42 192 116t165 172t119 207t55 223q2 24 2 47q0 89 -30 171q-132 -52 -295 -91t-330 -46 q-29 -1 -57 -1q-137 0 -268 28q-158 34 -282 124q-19 -84 -19 -186v-10zM278 1343q-2 -12 -2 -23q0 -42 29 -81q37 -49 122 -87t223 -52q20 0 79 4t135 11t158 18t150 25t113 30t45 36q0 64 -33 114t-87 87t-121 64t-135 43t-130 23t-104 7q-134 -6 -229 -39t-149 -79 t-64 -101zM276 1978q-4 34 18 80q22 76 46 128t54 86t69 53t91 31q96 0 147 -24t77 -60t36 -77t27 -76t49 -56t102 -17q48 0 78 36t56 78t54 78t74 36q12 0 25 -10t24 -24t18 -30t7 -28q-16 -78 -68 -141t-118 -103t-134 -53t-116 9q-54 30 -88 67t-55 75t-36 73t-33 60 t-44 36t-70 3q-24 6 -46 -13t-38 -53t-24 -80t-4 -92q4 -36 -13 -56t-43 -26t-54 3t-46 31t-22 56z" />
<glyph unicode="&#xd6;" horiz-adv-x="1534" d="M32 983q16 185 96 397q54 136 160 211t238 99q70 13 144 13q65 0 133 -10q145 -21 276 -79t235 -147t156 -199q62 0 113 41t109 125l66 -100q-32 -56 -69 -86t-72 -46t-63 -27t-40 -31q28 -113 28 -221q0 -94 -21 -186q-45 -197 -163 -355t-295 -261t-387 -123h-16 q-85 0 -175 38q-99 42 -187 125t-155 205t-97 277q-20 101 -20 215q0 61 6 125zM139 920q1 -108 24 -219t67 -216t110 -185t152 -128q83 -46 185 -46h9h9q95 0 192 40q101 42 192 116t165 172t119 207t55 223q2 24 2 47q0 89 -30 171q-132 -52 -295 -91t-330 -46 q-29 -1 -57 -1q-137 0 -268 28q-158 34 -282 124q-19 -84 -19 -186v-10zM278 1343q-2 -12 -2 -23q0 -42 29 -81q37 -49 122 -87t223 -52q20 0 79 4t135 11t158 18t150 25t113 30t45 36q0 64 -33 114t-87 87t-121 64t-135 43t-130 23t-104 7q-134 -6 -229 -39t-149 -79 t-64 -101zM496 1974q0 40 34 67t74 27q46 0 75 -33t29 -75q0 -46 -33 -68t-72 -20t-72 28t-35 74zM824 1976q0 40 34 67t74 27q46 0 75 -33t29 -75q0 -46 -33 -68t-72 -20t-72 28t-35 74z" />
<glyph unicode="&#xd8;" horiz-adv-x="1534" d="M32 983q16 185 96 397q54 136 160 211t238 99q70 13 144 13q65 0 133 -10q145 -21 276 -79t235 -147t156 -199q62 0 113 41t109 125l66 -100q-32 -56 -69 -86t-72 -46t-63 -27t-40 -31q28 -113 28 -221q0 -94 -21 -186q-45 -197 -163 -355t-295 -261t-387 -123h-16 q-85 0 -175 38q-99 42 -187 125t-155 205t-97 277q-20 101 -20 215q0 61 6 125zM139 920q1 -108 24 -219t67 -216t110 -185t152 -128q83 -46 185 -46h9h9q95 0 192 40q101 42 192 116t165 172t119 207t55 223q2 24 2 47q0 89 -30 171q-132 -52 -295 -91t-330 -46 q-29 -1 -57 -1q-137 0 -268 28q-158 34 -282 124q-19 -84 -19 -186v-10zM278 1343q-2 -12 -2 -23q0 -42 29 -81q37 -49 122 -87t223 -52q20 0 79 4t135 11t158 18t150 25t113 30t45 36q0 64 -33 114t-87 87t-121 64t-135 43t-130 23t-104 7q-134 -6 -229 -39t-149 -79 t-64 -101zM244 72l898 1698q24 24 48 23t44 -16t34 -40t20 -49l-910 -1656q-14 -12 -37 -20t-44 -5t-37 18t-16 47z" />
<glyph unicode="&#xd9;" horiz-adv-x="2016" d="M60 1110q0 68 1 124t3 112t7 117t11 141q28 20 52 18t54 -18q-2 -28 -2 -84t-1 -128t-1 -151t1 -151t1 -129t2 -85q2 -66 15 -146t40 -162t66 -158t92 -135t119 -95t148 -36q70 0 141 31t138 82t126 118t103 140t70 147t26 140q6 110 8 182t3 123t1 92t-1 91t-2 119 t-1 177q2 42 18 63t36 22h2q19 0 37 -14q19 -15 27 -45q-2 -180 -4 -344v-50q0 -136 9 -259q11 -145 44 -270t103 -227t186 -179t294 -127q34 6 59 -14q26 -21 26 -48q0 -25 -29 -47q-30 -23 -104 -23q-88 0 -182 56t-181 138t-159 171t-118 155q-4 0 -34 -40t-78 -101 t-112 -131t-136 -131t-151 -101t-157 -40q-124 0 -219 57t-163 150t-113 212t-72 242t-38 240t-11 209zM606 1995q6 27 32 34t76 -31l190 -134q44 -44 55 -79t-1 -54t-42 -18t-72 29l-188 144q-30 16 -43 49t-7 60z" />
<glyph unicode="&#xda;" horiz-adv-x="2016" d="M60 1110q0 68 1 124t3 112t7 117t11 141q28 20 52 18t54 -18q-2 -28 -2 -84t-1 -128t-1 -151t1 -151t1 -129t2 -85q2 -66 15 -146t40 -162t66 -158t92 -135t119 -95t148 -36q70 0 141 31t138 82t126 118t103 140t70 147t26 140q6 110 8 182t3 123t1 92t-1 91t-2 119 t-1 177q2 42 18 63t36 22h2q19 0 37 -14q19 -15 27 -45q-2 -180 -4 -344v-50q0 -136 9 -259q11 -145 44 -270t103 -227t186 -179t294 -127q34 6 59 -14q26 -21 26 -48q0 -25 -29 -47q-30 -23 -104 -23q-88 0 -182 56t-181 138t-159 171t-118 155q-4 0 -34 -40t-78 -101 t-112 -131t-136 -131t-151 -101t-157 -40q-124 0 -219 57t-163 150t-113 212t-72 242t-38 240t-11 209zM581 1742q-11 20 0 56t53 82l182 138q48 38 74 31t31 -34t-8 -62t-41 -51l-180 -150q-40 -30 -70 -30t-41 20z" />
<glyph unicode="&#xdb;" horiz-adv-x="2016" d="M60 1110q0 68 1 124t3 112t7 117t11 141q28 20 52 18t54 -18q-2 -28 -2 -84t-1 -128t-1 -151t1 -151t1 -129t2 -85q2 -66 15 -146t40 -162t66 -158t92 -135t119 -95t148 -36q70 0 141 31t138 82t126 118t103 140t70 147t26 140q6 110 8 182t3 123t1 92t-1 91t-2 119 t-1 177q2 42 18 63t36 22h2q19 0 37 -14q19 -15 27 -45q-2 -180 -4 -344v-50q0 -136 9 -259q11 -145 44 -270t103 -227t186 -179t294 -127q34 6 59 -14q26 -21 26 -48q0 -25 -29 -47q-30 -23 -104 -23q-88 0 -182 56t-181 138t-159 171t-118 155q-4 0 -34 -40t-78 -101 t-112 -131t-136 -131t-151 -101t-157 -40q-124 0 -219 57t-163 150t-113 212t-72 242t-38 240t-11 209zM510 1834l126 306q40 66 78 89t69 14t53 -43t34 -80l186 -272q-4 -16 -17 -28t-30 -20t-36 -12t-33 0l-184 250l-130 -248q-22 -24 -43 -30t-37 2t-26 27t-10 45z" />
<glyph unicode="&#xdc;" horiz-adv-x="2016" d="M60 1110q0 68 1 124t3 112t7 117t11 141q28 20 52 18t54 -18q-2 -28 -2 -84t-1 -128t-1 -151t1 -151t1 -129t2 -85q2 -66 15 -146t40 -162t66 -158t92 -135t119 -95t148 -36q70 0 141 31t138 82t126 118t103 140t70 147t26 140q6 110 8 182t3 123t1 92t-1 91t-2 119 t-1 177q2 42 18 63t36 22h2q19 0 37 -14q19 -15 27 -45q-2 -180 -4 -344v-50q0 -136 9 -259q11 -145 44 -270t103 -227t186 -179t294 -127q34 6 59 -14q26 -21 26 -48q0 -25 -29 -47q-30 -23 -104 -23q-88 0 -182 56t-181 138t-159 171t-118 155q-4 0 -34 -40t-78 -101 t-112 -131t-136 -131t-151 -101t-157 -40q-124 0 -219 57t-163 150t-113 212t-72 242t-38 240t-11 209zM514 1862q0 40 34 67t74 27q46 0 75 -33t29 -75q0 -46 -33 -68t-72 -20t-72 28t-35 74zM842 1864q0 40 34 67t74 27q46 0 75 -33t29 -75q0 -46 -33 -68t-72 -20t-72 28 t-35 74z" />
<glyph unicode="&#xdd;" horiz-adv-x="2066" d="M78 827q-14 78 -14 158q0 90 18 183q34 174 146 332q2 14 19 21t36 3t35 -20t16 -46q-88 -126 -121 -271q-22 -98 -22 -195q0 -47 5 -95q16 -145 76 -279t160 -236t235 -162q127 -56 279 -56h20q148 0 250 41t171 118t114 185t81 242q-2 90 -3 193v69q0 69 1 140 q2 106 7 211t17 199q8 22 23 25q3 1 7 1q12 0 24 -8q16 -10 30 -27t20 -33q2 -24 3 -74t3 -114t4 -134t4 -134t4 -115t2 -75q2 -38 8 -99t15 -132t19 -148t21 -148t22 -130t21 -95q32 10 67 12q18 1 35.5 1t35.5 -1q36 -2 71 -6t65 -4q74 -28 74 -62t-98 -44l-242 -10 q0 -164 16 -354t26 -380q6 -106 6 -208q0 -82 -4 -161q-8 -179 -58 -320t-152 -232t-280 -105q-104 0 -188 49t-149 129t-112 183t-77 210t-45 209t-15 182q0 176 80 328t206 270t284 195t314 105l-70 434q-18 -106 -66 -198t-122 -159t-169 -105t-205 -38q-41 -3 -81 -3 q-145 0 -276 45q-167 58 -296 167t-215 259t-116 317zM914 -846q0 -60 12 -143t36 -171t61 -176t88 -156t116 -111t147 -43q84 0 145 37t104 97t70 136t42 153t20 149t5 126q0 94 -8 210t-18 239t-21 242t-19 219q-18 -2 -85 -23t-155 -64t-186 -107t-178 -153t-131 -204 q-46 -103 -46 -227q0 -15 1 -30zM879 1902q-11 20 0 56t53 82l182 138q48 38 74 31t31 -34t-8 -62t-41 -51l-180 -150q-40 -30 -70 -30t-41 20z" />
<glyph unicode="&#xe0;" d="M-49 75q-1 5 -1 9q0 19 16 39q20 25 76 43q70 22 114 61t68 115q0 108 39 225t105 219t150 174t173 90q24 5 47 5q65 0 128 -37q86 -50 154 -194q10 60 26 97t32 45t32 -15t26 -79q-4 -66 -18 -146t-23 -161q-7 -61 -7 -119q0 -20 1 -39q3 -77 32 -137t92 -96 q60 -34 162 -34h11q24 14 53 14t53 -10t38 -27q10 -12 10 -25q0 -6 -2 -11q-6 -19 -36 -38t-92 -31q-74 0 -137 3t-115 19t-97 49t-83 95q-42 -76 -107 -127t-138 -77t-149 -28h-13q-69 0 -131 20q-68 22 -121 66t-79 112q-50 -60 -100 -87t-91 -31q-9 -1 -17 -1 q-30 0 -50 12q-26 15 -31 38zM356 335q2 -95 41 -170t125 -105q100 0 181 49t138 125t87 166t30 174q0 46 -13 105t-39 112t-66 90t-96 37q-80 0 -152 -55t-125 -141t-83 -189q-28 -97 -28 -186v-12zM518 1409q6 27 32 34t76 -31l190 -134q44 -44 55 -79t-1 -54t-42 -18 t-72 29l-188 144q-30 16 -43 49t-7 60z" />
<glyph unicode="&#xe1;" d="M-49 75q-1 5 -1 9q0 19 16 39q20 25 76 43q70 22 114 61t68 115q0 108 39 225t105 219t150 174t173 90q24 5 47 5q65 0 128 -37q86 -50 154 -194q10 60 26 97t32 45t32 -15t26 -79q-4 -66 -18 -146t-23 -161q-7 -61 -7 -119q0 -20 1 -39q3 -77 32 -137t92 -96 q60 -34 162 -34h11q24 14 53 14t53 -10t38 -27q10 -12 10 -25q0 -6 -2 -11q-6 -19 -36 -38t-92 -31q-74 0 -137 3t-115 19t-97 49t-83 95q-42 -76 -107 -127t-138 -77t-149 -28h-13q-69 0 -131 20q-68 22 -121 66t-79 112q-50 -60 -100 -87t-91 -31q-9 -1 -17 -1 q-30 0 -50 12q-26 15 -31 38zM356 335q2 -95 41 -170t125 -105q100 0 181 49t138 125t87 166t30 174q0 46 -13 105t-39 112t-66 90t-96 37q-80 0 -152 -55t-125 -141t-83 -189q-28 -97 -28 -186v-12zM557 1164q-11 20 0 56t53 82l182 138q48 38 74 31t31 -34t-8 -62t-41 -51 l-180 -150q-40 -30 -70 -30t-41 20z" />
<glyph unicode="&#xe2;" d="M-49 75q-1 5 -1 9q0 19 16 39q20 25 76 43q70 22 114 61t68 115q0 108 39 225t105 219t150 174t173 90q24 5 47 5q65 0 128 -37q86 -50 154 -194q10 60 26 97t32 45t32 -15t26 -79q-4 -66 -18 -146t-23 -161q-7 -61 -7 -119q0 -20 1 -39q3 -77 32 -137t92 -96 q60 -34 162 -34h11q24 14 53 14t53 -10t38 -27q10 -12 10 -25q0 -6 -2 -11q-6 -19 -36 -38t-92 -31q-74 0 -137 3t-115 19t-97 49t-83 95q-42 -76 -107 -127t-138 -77t-149 -28h-13q-69 0 -131 20q-68 22 -121 66t-79 112q-50 -60 -100 -87t-91 -31q-9 -1 -17 -1 q-30 0 -50 12q-26 15 -31 38zM356 335q2 -95 41 -170t125 -105q100 0 181 49t138 125t87 166t30 174q0 46 -13 105t-39 112t-66 90t-96 37q-80 0 -152 -55t-125 -141t-83 -189q-28 -97 -28 -186v-12zM438 1216l126 306q40 66 78 89t69 14t53 -43t34 -80l186 -272 q-4 -16 -17 -28t-30 -20t-36 -12t-33 0l-184 250l-130 -248q-22 -24 -43 -30t-37 2t-26 27t-10 45z" />
<glyph unicode="&#xe3;" d="M-49 75q-1 5 -1 9q0 19 16 39q20 25 76 43q70 22 114 61t68 115q0 108 39 225t105 219t150 174t173 90q24 5 47 5q65 0 128 -37q86 -50 154 -194q10 60 26 97t32 45t32 -15t26 -79q-4 -66 -18 -146t-23 -161q-7 -61 -7 -119q0 -20 1 -39q3 -77 32 -137t92 -96 q60 -34 162 -34h11q24 14 53 14t53 -10t38 -27q10 -12 10 -25q0 -6 -2 -11q-6 -19 -36 -38t-92 -31q-74 0 -137 3t-115 19t-97 49t-83 95q-42 -76 -107 -127t-138 -77t-149 -28h-13q-69 0 -131 20q-68 22 -121 66t-79 112q-50 -60 -100 -87t-91 -31q-9 -1 -17 -1 q-30 0 -50 12q-26 15 -31 38zM356 335q2 -95 41 -170t125 -105q100 0 181 49t138 125t87 166t30 174q0 46 -13 105t-39 112t-66 90t-96 37q-80 0 -152 -55t-125 -141t-83 -189q-28 -97 -28 -186v-12zM222 1240q-4 34 18 80q22 76 46 128t54 86t69 53t91 31q96 0 147 -24 t77 -60t36 -77t27 -76t49 -56t102 -17q48 0 78 36t56 78t54 78t74 36q12 0 25 -10t24 -24t18 -30t7 -28q-16 -78 -68 -141t-118 -103t-134 -53t-116 9q-54 30 -88 67t-55 75t-36 73t-33 60t-44 36t-70 3q-24 6 -46 -13t-38 -53t-24 -80t-4 -92q4 -36 -13 -56t-43 -26t-54 3 t-46 31t-22 56z" />
<glyph unicode="&#xe4;" d="M-49 75q-1 5 -1 9q0 19 16 39q20 25 76 43q70 22 114 61t68 115q0 108 39 225t105 219t150 174t173 90q24 5 47 5q65 0 128 -37q86 -50 154 -194q10 60 26 97t32 45t32 -15t26 -79q-4 -66 -18 -146t-23 -161q-7 -61 -7 -119q0 -20 1 -39q3 -77 32 -137t92 -96 q60 -34 162 -34h11q24 14 53 14t53 -10t38 -27q10 -12 10 -25q0 -6 -2 -11q-6 -19 -36 -38t-92 -31q-74 0 -137 3t-115 19t-97 49t-83 95q-42 -76 -107 -127t-138 -77t-149 -28h-13q-69 0 -131 20q-68 22 -121 66t-79 112q-50 -60 -100 -87t-91 -31q-9 -1 -17 -1 q-30 0 -50 12q-26 15 -31 38zM356 335q2 -95 41 -170t125 -105q100 0 181 49t138 125t87 166t30 174q0 46 -13 105t-39 112t-66 90t-96 37q-80 0 -152 -55t-125 -141t-83 -189q-28 -97 -28 -186v-12zM442 1236q0 40 34 67t74 27q46 0 75 -33t29 -75q0 -46 -33 -68t-72 -20 t-72 28t-35 74zM770 1238q0 40 34 67t74 27q46 0 75 -33t29 -75q0 -46 -33 -68t-72 -20t-72 28t-35 74z" />
<glyph unicode="&#xe5;" d="M-49 75q-1 5 -1 9q0 19 16 39q20 25 76 43q70 22 114 61t68 115q0 108 39 225t105 219t150 174t173 90q24 5 47 5q65 0 128 -37q86 -50 154 -194q10 60 26 97t32 45t32 -15t26 -79q-4 -66 -18 -146t-23 -161q-7 -61 -7 -119q0 -20 1 -39q3 -77 32 -137t92 -96 q60 -34 162 -34h11q24 14 53 14t53 -10t38 -27q10 -12 10 -25q0 -6 -2 -11q-6 -19 -36 -38t-92 -31q-74 0 -137 3t-115 19t-97 49t-83 95q-42 -76 -107 -127t-138 -77t-149 -28h-13q-69 0 -131 20q-68 22 -121 66t-79 112q-50 -60 -100 -87t-91 -31q-9 -1 -17 -1 q-30 0 -50 12q-26 15 -31 38zM356 335q2 -95 41 -170t125 -105q100 0 181 49t138 125t87 166t30 174q0 46 -13 105t-39 112t-66 90t-96 37q-80 0 -152 -55t-125 -141t-83 -189q-28 -97 -28 -186v-12zM490 1294q0 70 29 113t74 64t98 24t100 -8t81 -32t42 -45q20 -14 20 -34 q0 -54 -28 -101t-71 -81t-97 -54t-104 -20q-78 0 -111 52t-33 122zM642 1332q-8 -30 6 -59t39 -35t54 24t51 118q-74 18 -108 0t-42 -48z" />
<glyph unicode="&#xe6;" horiz-adv-x="1896" d="M-49 75q-5 23 15 48t76 43q70 22 114 61t68 115q0 108 39 225t105 219t150 174t173 90t175 -32t154 -194q10 60 26 97t32 45t32 -15t26 -79q4 -40 2 -86t-6 -94q32 84 78 156t100 123t111 76t113 15q98 -10 140 -53t44 -106t-30 -139t-82 -155t-110 -152t-115 -128 t-98 -87t-59 -26q80 -58 174 -78t194 -19t201 13t195 16q42 -40 -3 -75t-140 -56t-221 -25t-248 15t-221 65t-139 128q-44 -76 -110 -128t-144 -81t-159 -34t-153 14t-128 62t-82 111q-50 -60 -100 -87t-91 -31t-67 11t-31 38zM356 335q2 -95 41 -170t125 -105q100 0 181 49 t138 125t87 166t30 174q0 46 -13 105t-39 112t-66 90t-96 37q-80 0 -152 -55t-125 -141t-83 -189t-28 -198zM1170 537q-22 -99 6 -185q62 32 127 85t123 113t103 122t66 114t14 87t-53 43q-94 -2 -175 -58t-135 -139t-76 -182z" />
<glyph unicode="&#xe7;" horiz-adv-x="1242" d="M-56 39q-3 7 -3 15q0 15 12 31q19 25 75 37q72 18 113 45t68 76t48 125t53 192q6 94 30 183t60 162t84 124t104 68q24 7 49 7q34 0 69 -13q62 -23 126 -97q36 -48 46 -87t2 -60t-28 -23t-44 26q-26 30 -61 58t-73 38q-15 4 -30 4l-46 -9q-38 -15 -72 -68t-61 -151 t-41 -256v-17q0 -99 43 -165q47 -72 125 -115t177 -60q84 -14 168 -14h30q99 3 189 20t152 43q20 -27 20 -50q0 -14 -8 -26q-20 -32 -73 -52t-128 -31t-153 -15t-147 -4t-111 4q-15 -1 -29 -1q-68 0 -121 16q-64 19 -110 55t-77 87t-51 113q-48 -86 -89 -132t-71 -67 t-50 -25t-26 -6q-41 -16 -72 -16q-11 0 -21 2q-37 8 -47 29zM524 -474q-8 44 5 56t35 6t47 -23t43 -33q88 -38 167 -36t140 24t98 56t39 62q-18 74 -65 115t-110 49t-134 -14t-137 -72q-20 -10 -27 32t-8 100t1 114t2 76q60 28 91 24t41 -33t4 -78t-18 -113q68 34 149 39 t150 -21t114 -81t43 -141q-10 -68 -51 -117t-100 -78t-131 -38t-143 2t-136 41t-109 82z" />
<glyph unicode="&#xe8;" horiz-adv-x="1074" d="M-57 36q-1 4 -1 9q0 17 14 37q18 26 60 50q34 18 55 25t40 17t42 29t65 65q-8 52 -8 105q0 42 5 84q11 97 42 187t78 169t102 134t115 82q44 20 87 20q16 0 31 -3q98 -10 143 -53t51 -106q1 -12 1 -25q0 -53 -20 -114q-25 -76 -68 -155t-97 -152t-105 -128t-91 -87 t-56 -26q88 -68 174 -86q67 -14 135 -14l37 1q86 5 173 20q69 12 139 12q19 0 38 -1q29 -23 29 -43q0 -6 -3 -12q-12 -25 -59 -44t-121 -30t-159 -13h-34q-69 0 -140 6q-89 8 -163 27t-128 50t-70 77q-38 -40 -69 -64t-59 -37t-52 -20t-48 -15q-29 -9 -51 -9q-12 0 -22 3 q-27 8 -32 28zM353 521q-4 -31 -4 -61q0 -65 19 -124q62 32 123 85t113 113t89 122t53 114q9 30 9 54q0 18 -5 33q-12 35 -58 43q-94 -2 -166 -58t-116 -139t-57 -182zM504 1371q6 27 32 34t76 -31l190 -134q44 -44 55 -79t-1 -54t-42 -18t-72 29l-188 144q-30 16 -43 49 t-7 60z" />
<glyph unicode="&#xe9;" horiz-adv-x="1074" d="M-57 36q-1 4 -1 9q0 17 14 37q18 26 60 50q34 18 55 25t40 17t42 29t65 65q-8 52 -8 105q0 42 5 84q11 97 42 187t78 169t102 134t115 82q44 20 87 20q16 0 31 -3q98 -10 143 -53t51 -106q1 -12 1 -25q0 -53 -20 -114q-25 -76 -68 -155t-97 -152t-105 -128t-91 -87 t-56 -26q88 -68 174 -86q67 -14 135 -14l37 1q86 5 173 20q69 12 139 12q19 0 38 -1q29 -23 29 -43q0 -6 -3 -12q-12 -25 -59 -44t-121 -30t-159 -13h-34q-69 0 -140 6q-89 8 -163 27t-128 50t-70 77q-38 -40 -69 -64t-59 -37t-52 -20t-48 -15q-29 -9 -51 -9q-12 0 -22 3 q-27 8 -32 28zM353 521q-4 -31 -4 -61q0 -65 19 -124q62 32 123 85t113 113t89 122t53 114q9 30 9 54q0 18 -5 33q-12 35 -58 43q-94 -2 -166 -58t-116 -139t-57 -182zM383 1164q-11 20 0 56t53 82l182 138q48 38 74 31t31 -34t-8 -62t-41 -51l-180 -150q-40 -30 -70 -30 t-41 20z" />
<glyph unicode="&#xea;" horiz-adv-x="1074" d="M-57 36q-1 4 -1 9q0 17 14 37q18 26 60 50q34 18 55 25t40 17t42 29t65 65q-8 52 -8 105q0 42 5 84q11 97 42 187t78 169t102 134t115 82q44 20 87 20q16 0 31 -3q98 -10 143 -53t51 -106q1 -12 1 -25q0 -53 -20 -114q-25 -76 -68 -155t-97 -152t-105 -128t-91 -87 t-56 -26q88 -68 174 -86q67 -14 135 -14l37 1q86 5 173 20q69 12 139 12q19 0 38 -1q29 -23 29 -43q0 -6 -3 -12q-12 -25 -59 -44t-121 -30t-159 -13h-34q-69 0 -140 6q-89 8 -163 27t-128 50t-70 77q-38 -40 -69 -64t-59 -37t-52 -20t-48 -15q-29 -9 -51 -9q-12 0 -22 3 q-27 8 -32 28zM353 521q-4 -31 -4 -61q0 -65 19 -124q62 32 123 85t113 113t89 122t53 114q9 30 9 54q0 18 -5 33q-12 35 -58 43q-94 -2 -166 -58t-116 -139t-57 -182zM264 1216l126 306q40 66 78 89t69 14t53 -43t34 -80l186 -272q-4 -16 -17 -28t-30 -20t-36 -12t-33 0 l-184 250l-130 -248q-22 -24 -43 -30t-37 2t-26 27t-10 45z" />
<glyph unicode="&#xeb;" horiz-adv-x="1074" d="M-57 36q-1 4 -1 9q0 17 14 37q18 26 60 50q34 18 55 25t40 17t42 29t65 65q-8 52 -8 105q0 42 5 84q11 97 42 187t78 169t102 134t115 82q44 20 87 20q16 0 31 -3q98 -10 143 -53t51 -106q1 -12 1 -25q0 -53 -20 -114q-25 -76 -68 -155t-97 -152t-105 -128t-91 -87 t-56 -26q88 -68 174 -86q67 -14 135 -14l37 1q86 5 173 20q69 12 139 12q19 0 38 -1q29 -23 29 -43q0 -6 -3 -12q-12 -25 -59 -44t-121 -30t-159 -13h-34q-69 0 -140 6q-89 8 -163 27t-128 50t-70 77q-38 -40 -69 -64t-59 -37t-52 -20t-48 -15q-29 -9 -51 -9q-12 0 -22 3 q-27 8 -32 28zM353 521q-4 -31 -4 -61q0 -65 19 -124q62 32 123 85t113 113t89 122t53 114q9 30 9 54q0 18 -5 33q-12 35 -58 43q-94 -2 -166 -58t-116 -139t-57 -182zM370 1252q0 40 34 67t74 27q46 0 75 -33t29 -75q0 -46 -33 -68t-72 -20t-72 28t-35 74zM698 1254 q0 40 34 67t74 27q46 0 75 -33t29 -75q0 -46 -33 -68t-72 -20t-72 28t-35 74z" />
<glyph unicode="&#xec;" horiz-adv-x="860" d="M-52 75q-6 25 10 47t74 26q28 10 55 24t55 39t56 66t60 103q0 10 -3 50t-2 94t6 113t19 109t37 83t61 33q42 -38 49 -92t0 -114t-18 -122t-5 -114q16 -148 127 -221t289 -65q14 0 35 2t41 1t33 -5t13 -16q0 -46 -13 -69t-37 -32t-55 -8t-67 1q-128 0 -248 54t-200 152 q-56 -52 -85 -85t-56 -54t-63 -34t-108 -25q-16 -4 -35 15t-25 44zM236 1409q6 27 32 34t76 -31l190 -134q44 -44 55 -79t-1 -54t-42 -18t-72 29l-188 144q-30 16 -43 49t-7 60z" />
<glyph unicode="&#xed;" horiz-adv-x="860" d="M-52 75q-6 25 10 47t74 26q28 10 55 24t55 39t56 66t60 103q0 10 -3 50t-2 94t6 113t19 109t37 83t61 33q42 -38 49 -92t0 -114t-18 -122t-5 -114q16 -148 127 -221t289 -65q14 0 35 2t41 1t33 -5t13 -16q0 -46 -13 -69t-37 -32t-55 -8t-67 1q-128 0 -248 54t-200 152 q-56 -52 -85 -85t-56 -54t-63 -34t-108 -25q-16 -4 -35 15t-25 44zM275 1164q-11 20 0 56t53 82l182 138q48 38 74 31t31 -34t-8 -62t-41 -51l-180 -150q-40 -30 -70 -30t-41 20z" />
<glyph unicode="&#xee;" horiz-adv-x="860" d="M-52 75q-6 25 10 47t74 26q28 10 55 24t55 39t56 66t60 103q0 10 -3 50t-2 94t6 113t19 109t37 83t61 33q42 -38 49 -92t0 -114t-18 -122t-5 -114q16 -148 127 -221t289 -65q14 0 35 2t41 1t33 -5t13 -16q0 -46 -13 -69t-37 -32t-55 -8t-67 1q-128 0 -248 54t-200 152 q-56 -52 -85 -85t-56 -54t-63 -34t-108 -25q-16 -4 -35 15t-25 44zM156 1216l126 306q40 66 78 89t69 14t53 -43t34 -80l186 -272q-4 -16 -17 -28t-30 -20t-36 -12t-33 0l-184 250l-130 -248q-22 -24 -43 -30t-37 2t-26 27t-10 45z" />
<glyph unicode="&#xef;" horiz-adv-x="860" d="M-52 75q-6 25 10 47t74 26q28 10 55 24t55 39t56 66t60 103q0 10 -3 50t-2 94t6 113t19 109t37 83t61 33q42 -38 49 -92t0 -114t-18 -122t-5 -114q16 -148 127 -221t289 -65q14 0 35 2t41 1t33 -5t13 -16q0 -46 -13 -69t-37 -32t-55 -8t-67 1q-128 0 -248 54t-200 152 q-56 -52 -85 -85t-56 -54t-63 -34t-108 -25q-16 -4 -35 15t-25 44zM160 1236q0 40 34 67t74 27q46 0 75 -33t29 -75q0 -46 -33 -68t-72 -20t-72 28t-35 74zM488 1238q0 40 34 67t74 27q46 0 75 -33t29 -75q0 -46 -33 -68t-72 -20t-72 28t-35 74z" />
<glyph unicode="&#xf1;" horiz-adv-x="1792" d="M-54 141q22 19 62 21q66 38 129 93t121 139t110 202t100 282q44 44 69 44t37 -30t16 -85t6 -121t5 -137t15 -133q118 200 211 314t168 162q63 40 114 40q10 0 19 -1q58 -9 104 -56t81 -123t64 -161t53 -172t49 -155t51 -108q23 -35 51 -35q4 0 9 1q102 19 164 19 q11 0 22 -1q66 -4 89 -21q14 -11 14 -25q0 -9 -5 -18q-14 -26 -55 -47t-101 -32q-29 -5 -59 -5q-33 0 -69 6q-92 16 -145 71t-85 131t-48 162t-34 163t-44 134t-74 77q-31 14 -62 14q-34 0 -66 -17q-62 -33 -119 -102t-107 -162t-92 -182t-75 -164t-55 -107q-2 -4 -17 -6 t-33 -2h-33h-17q-14 2 -18 36q-3 23 -3 53q0 15 1 32q2 51 8 112t12 120t10 108t4 75q-14 -54 -50 -124t-96 -143t-145 -141t-199 -120q-48 12 -68 35q-18 21 -18 43q0 26 24 47zM406 1240q-4 34 18 80q22 76 46 128t54 86t69 53t91 31q96 0 147 -24t77 -60t36 -77t27 -76 t49 -56t102 -17q48 0 78 36t56 78t54 78t74 36q12 0 25 -10t24 -24t18 -30t7 -28q-16 -78 -68 -141t-118 -103t-134 -53t-116 9q-54 30 -88 67t-55 75t-36 73t-33 60t-44 36t-70 3q-24 6 -46 -13t-38 -53t-24 -80t-4 -92q4 -36 -13 -56t-43 -26t-54 3t-46 31t-22 56z" />
<glyph unicode="&#xf2;" horiz-adv-x="1542" d="M-25 44q-3 6 -3 14q0 14 11 34q17 30 67 66q58 40 110 105t80 141q-12 63 -12 128q0 50 7 100q17 116 78 214t169 168t268 92q64 0 124 -48t112 -125t95 -172t73 -191t46 -183q14 -77 14 -132v-13q42 -48 102 -70t117 -31t102 -14t61 -19q16 -16 16 -32q0 -13 -10 -25 q-22 -29 -81 -38q-17 -3 -37 -3q-48 0 -112 16q-90 22 -198 96q-164 -108 -304 -137q-72 -15 -137 -15q-61 0 -115 13q-112 27 -195 100t-131 171q-54 -86 -107 -136t-97 -72q-42 -21 -71 -21h-3q-30 1 -39 19zM343 482q9 -90 60 -166t134 -132t176 -77q48 -11 95 -11 q45 0 89 10q91 20 161 94q-152 48 -256 101t-178 110t-128 120t-106 131q-48 -78 -48 -155q0 -13 1 -25zM484 828q-2 -13 -2 -26q0 -60 44 -124q54 -78 143 -151t198 -137t209 -112q0 52 -10 123t-30 149t-49 154t-66 137t-84 98t-101 37q-34 0 -77 -7t-82 -24t-66 -46 t-27 -71zM578 1409q6 27 32 34t76 -31l190 -134q44 -44 55 -79t-1 -54t-42 -18t-72 29l-188 144q-30 16 -43 49t-7 60z" />
<glyph unicode="&#xf3;" horiz-adv-x="1542" d="M-25 44q-3 6 -3 14q0 14 11 34q17 30 67 66q58 40 110 105t80 141q-12 63 -12 128q0 50 7 100q17 116 78 214t169 168t268 92q64 0 124 -48t112 -125t95 -172t73 -191t46 -183q14 -77 14 -132v-13q42 -48 102 -70t117 -31t102 -14t61 -19q16 -16 16 -32q0 -13 -10 -25 q-22 -29 -81 -38q-17 -3 -37 -3q-48 0 -112 16q-90 22 -198 96q-164 -108 -304 -137q-72 -15 -137 -15q-61 0 -115 13q-112 27 -195 100t-131 171q-54 -86 -107 -136t-97 -72q-42 -21 -71 -21h-3q-30 1 -39 19zM343 482q9 -90 60 -166t134 -132t176 -77q48 -11 95 -11 q45 0 89 10q91 20 161 94q-152 48 -256 101t-178 110t-128 120t-106 131q-48 -78 -48 -155q0 -13 1 -25zM484 828q-2 -13 -2 -26q0 -60 44 -124q54 -78 143 -151t198 -137t209 -112q0 52 -10 123t-30 149t-49 154t-66 137t-84 98t-101 37q-34 0 -77 -7t-82 -24t-66 -46 t-27 -71zM617 1164q-11 20 0 56t53 82l182 138q48 38 74 31t31 -34t-8 -62t-41 -51l-180 -150q-40 -30 -70 -30t-41 20z" />
<glyph unicode="&#xf4;" horiz-adv-x="1542" d="M-25 44q-3 6 -3 14q0 14 11 34q17 30 67 66q58 40 110 105t80 141q-12 63 -12 128q0 50 7 100q17 116 78 214t169 168t268 92q64 0 124 -48t112 -125t95 -172t73 -191t46 -183q14 -77 14 -132v-13q42 -48 102 -70t117 -31t102 -14t61 -19q16 -16 16 -32q0 -13 -10 -25 q-22 -29 -81 -38q-17 -3 -37 -3q-48 0 -112 16q-90 22 -198 96q-164 -108 -304 -137q-72 -15 -137 -15q-61 0 -115 13q-112 27 -195 100t-131 171q-54 -86 -107 -136t-97 -72q-42 -21 -71 -21h-3q-30 1 -39 19zM343 482q9 -90 60 -166t134 -132t176 -77q48 -11 95 -11 q45 0 89 10q91 20 161 94q-152 48 -256 101t-178 110t-128 120t-106 131q-48 -78 -48 -155q0 -13 1 -25zM484 828q-2 -13 -2 -26q0 -60 44 -124q54 -78 143 -151t198 -137t209 -112q0 52 -10 123t-30 149t-49 154t-66 137t-84 98t-101 37q-34 0 -77 -7t-82 -24t-66 -46 t-27 -71zM498 1216l126 306q40 66 78 89t69 14t53 -43t34 -80l186 -272q-4 -16 -17 -28t-30 -20t-36 -12t-33 0l-184 250l-130 -248q-22 -24 -43 -30t-37 2t-26 27t-10 45z" />
<glyph unicode="&#xf5;" horiz-adv-x="1542" d="M-25 44q-3 6 -3 14q0 14 11 34q17 30 67 66q58 40 110 105t80 141q-12 63 -12 128q0 50 7 100q17 116 78 214t169 168t268 92q64 0 124 -48t112 -125t95 -172t73 -191t46 -183q14 -77 14 -132v-13q42 -48 102 -70t117 -31t102 -14t61 -19q16 -16 16 -32q0 -13 -10 -25 q-22 -29 -81 -38q-17 -3 -37 -3q-48 0 -112 16q-90 22 -198 96q-164 -108 -304 -137q-72 -15 -137 -15q-61 0 -115 13q-112 27 -195 100t-131 171q-54 -86 -107 -136t-97 -72q-42 -21 -71 -21h-3q-30 1 -39 19zM343 482q9 -90 60 -166t134 -132t176 -77q48 -11 95 -11 q45 0 89 10q91 20 161 94q-152 48 -256 101t-178 110t-128 120t-106 131q-48 -78 -48 -155q0 -13 1 -25zM484 828q-2 -13 -2 -26q0 -60 44 -124q54 -78 143 -151t198 -137t209 -112q0 52 -10 123t-30 149t-49 154t-66 137t-84 98t-101 37q-34 0 -77 -7t-82 -24t-66 -46 t-27 -71zM280 1240q-4 34 18 80q22 76 46 128t54 86t69 53t91 31q96 0 147 -24t77 -60t36 -77t27 -76t49 -56t102 -17q48 0 78 36t56 78t54 78t74 36q12 0 25 -10t24 -24t18 -30t7 -28q-16 -78 -68 -141t-118 -103t-134 -53t-116 9q-54 30 -88 67t-55 75t-36 73t-33 60 t-44 36t-70 3q-24 6 -46 -13t-38 -53t-24 -80t-4 -92q4 -36 -13 -56t-43 -26t-54 3t-46 31t-22 56z" />
<glyph unicode="&#xf6;" horiz-adv-x="1542" d="M-25 44q-3 6 -3 14q0 14 11 34q17 30 67 66q58 40 110 105t80 141q-12 63 -12 128q0 50 7 100q17 116 78 214t169 168t268 92q64 0 124 -48t112 -125t95 -172t73 -191t46 -183q14 -77 14 -132v-13q42 -48 102 -70t117 -31t102 -14t61 -19q16 -16 16 -32q0 -13 -10 -25 q-22 -29 -81 -38q-17 -3 -37 -3q-48 0 -112 16q-90 22 -198 96q-164 -108 -304 -137q-72 -15 -137 -15q-61 0 -115 13q-112 27 -195 100t-131 171q-54 -86 -107 -136t-97 -72q-42 -21 -71 -21h-3q-30 1 -39 19zM343 482q9 -90 60 -166t134 -132t176 -77q48 -11 95 -11 q45 0 89 10q91 20 161 94q-152 48 -256 101t-178 110t-128 120t-106 131q-48 -78 -48 -155q0 -13 1 -25zM484 828q-2 -13 -2 -26q0 -60 44 -124q54 -78 143 -151t198 -137t209 -112q0 52 -10 123t-30 149t-49 154t-66 137t-84 98t-101 37q-34 0 -77 -7t-82 -24t-66 -46 t-27 -71zM500 1236q0 40 34 67t74 27q46 0 75 -33t29 -75q0 -46 -33 -68t-72 -20t-72 28t-35 74zM828 1238q0 40 34 67t74 27q46 0 75 -33t29 -75q0 -46 -33 -68t-72 -20t-72 28t-35 74z" />
<glyph unicode="&#xf7;" horiz-adv-x="1096" d="M84 780q114 0 197 -1t159 -1t159 -1t199 -1q48 0 56 -16t8 -62q-10 -34 -57 -52t-114 -25t-147 -4t-158 8t-145 11t-109 8q-34 22 -41 62t-7 74zM300 1070q0 18 14 49t34 61t44 52t44 22q26 0 54 -13t52 -33t39 -47t15 -53q0 -30 -11 -63t-32 -61t-50 -46t-63 -18 q-62 0 -101 44t-39 106zM302 270q0 34 9 71t28 67t49 50t70 20q36 0 64 -19t49 -49t32 -65t11 -65t-20 -56t-49 -44t-61 -28t-58 -10q-24 0 -46 11t-39 29t-28 41t-11 47zM432 1067q0 -21 16 -21t16 21t-16 21t-16 -21zM452 311q0 -21 16 -21t16 21t-16 21t-16 -21z" />
<glyph unicode="&#xf8;" horiz-adv-x="1542" d="M-25 44q-3 6 -3 14q0 14 11 34q17 30 67 66q58 40 110 105t80 141q-12 63 -12 128q0 50 7 100q17 116 78 214t169 168t268 92q64 0 124 -48t112 -125t95 -172t73 -191t46 -183q14 -77 14 -132v-13q42 -48 102 -70t117 -31t102 -14t61 -19q16 -16 16 -32q0 -13 -10 -25 q-22 -29 -81 -38q-17 -3 -37 -3q-48 0 -112 16q-90 22 -198 96q-164 -108 -304 -137q-72 -15 -137 -15q-61 0 -115 13q-112 27 -195 100t-131 171q-54 -86 -107 -136t-97 -72q-42 -21 -71 -21h-3q-30 1 -39 19zM343 482q9 -90 60 -166t134 -132t176 -77q48 -11 95 -11 q45 0 89 10q91 20 161 94q-152 48 -256 101t-178 110t-128 120t-106 131q-48 -78 -48 -155q0 -13 1 -25zM484 828q-2 -13 -2 -26q0 -60 44 -124q54 -78 143 -151t198 -137t209 -112q0 52 -10 123t-30 149t-49 154t-66 137t-84 98t-101 37q-34 0 -77 -7t-82 -24t-66 -46 t-27 -71zM247.172 38.9346l756.92 1012.54q20.2305 14.3115 40.459 13.7158q20.2305 -0.59668 37.0879 -9.54102q16.8574 -8.94531 28.6582 -23.8525q11.8008 -14.9082 16.8584 -29.2197l-767.035 -987.495q-11.8008 -7.15625 -31.1875 -11.9258 q-19.3857 -4.77148 -37.0869 -2.98242t-31.1875 10.7344q-13.4863 8.94434 -13.4863 28.0264z" />
<glyph unicode="&#xf9;" horiz-adv-x="1504" d="M-80 49q0 18 17 38q21 25 77 43q100 30 148 104q-28 102 -34 280q-1 41 -1 88q0 156 15 374q8 17 27 17h2q21 -1 43 -10t38 -23t16 -26q0 -166 -1 -310v-14q0 -136 19 -238q20 -108 73 -170t161 -62q130 0 209 56t126 140t71 181t42 181t39 140t63 56t57 -32t15 -72 q0 -68 -11 -135t-11 -135q0 -70 33 -135t83 -115t111 -80t119 -30q40 12 71 12q28 0 49 -10q44 -20 47 -52v-4q0 -30 -38 -58q-41 -30 -131 -30q-72 0 -131 23t-107 60t-86 87t-70 104q-10 0 -35 -22t-64 -55t-89 -72t-107 -72t-119 -55t-126 -22q-54 8 -101 14t-87 18 t-73 32t-57 54q-50 -60 -99 -86t-90 -30q-9 -1 -18 -1q-30 0 -51 11q-34 17 -34 43zM558 1409q6 27 32 34t76 -31l190 -134q44 -44 55 -79t-1 -54t-42 -18t-72 29l-188 144q-30 16 -43 49t-7 60z" />
<glyph unicode="&#xfa;" horiz-adv-x="1504" d="M-80 49q0 18 17 38q21 25 77 43q100 30 148 104q-28 102 -34 280q-1 41 -1 88q0 156 15 374q8 17 27 17h2q21 -1 43 -10t38 -23t16 -26q0 -166 -1 -310v-14q0 -136 19 -238q20 -108 73 -170t161 -62q130 0 209 56t126 140t71 181t42 181t39 140t63 56t57 -32t15 -72 q0 -68 -11 -135t-11 -135q0 -70 33 -135t83 -115t111 -80t119 -30q40 12 71 12q28 0 49 -10q44 -20 47 -52v-4q0 -30 -38 -58q-41 -30 -131 -30q-72 0 -131 23t-107 60t-86 87t-70 104q-10 0 -35 -22t-64 -55t-89 -72t-107 -72t-119 -55t-126 -22q-54 8 -101 14t-87 18 t-73 32t-57 54q-50 -60 -99 -86t-90 -30q-9 -1 -18 -1q-30 0 -51 11q-34 17 -34 43zM597 1164q-11 20 0 56t53 82l182 138q48 38 74 31t31 -34t-8 -62t-41 -51l-180 -150q-40 -30 -70 -30t-41 20z" />
<glyph unicode="&#xfb;" horiz-adv-x="1504" d="M-80 49q0 18 17 38q21 25 77 43q100 30 148 104q-28 102 -34 280q-1 41 -1 88q0 156 15 374q8 17 27 17h2q21 -1 43 -10t38 -23t16 -26q0 -166 -1 -310v-14q0 -136 19 -238q20 -108 73 -170t161 -62q130 0 209 56t126 140t71 181t42 181t39 140t63 56t57 -32t15 -72 q0 -68 -11 -135t-11 -135q0 -70 33 -135t83 -115t111 -80t119 -30q40 12 71 12q28 0 49 -10q44 -20 47 -52v-4q0 -30 -38 -58q-41 -30 -131 -30q-72 0 -131 23t-107 60t-86 87t-70 104q-10 0 -35 -22t-64 -55t-89 -72t-107 -72t-119 -55t-126 -22q-54 8 -101 14t-87 18 t-73 32t-57 54q-50 -60 -99 -86t-90 -30q-9 -1 -18 -1q-30 0 -51 11q-34 17 -34 43zM478 1216l126 306q40 66 78 89t69 14t53 -43t34 -80l186 -272q-4 -16 -17 -28t-30 -20t-36 -12t-33 0l-184 250l-130 -248q-22 -24 -43 -30t-37 2t-26 27t-10 45z" />
<glyph unicode="&#xfc;" horiz-adv-x="1504" d="M-80 49q0 18 17 38q21 25 77 43q100 30 148 104q-28 102 -34 280q-1 41 -1 88q0 156 15 374q8 17 27 17h2q21 -1 43 -10t38 -23t16 -26q0 -166 -1 -310v-14q0 -136 19 -238q20 -108 73 -170t161 -62q130 0 209 56t126 140t71 181t42 181t39 140t63 56t57 -32t15 -72 q0 -68 -11 -135t-11 -135q0 -70 33 -135t83 -115t111 -80t119 -30q40 12 71 12q28 0 49 -10q44 -20 47 -52v-4q0 -30 -38 -58q-41 -30 -131 -30q-72 0 -131 23t-107 60t-86 87t-70 104q-10 0 -35 -22t-64 -55t-89 -72t-107 -72t-119 -55t-126 -22q-54 8 -101 14t-87 18 t-73 32t-57 54q-50 -60 -99 -86t-90 -30q-9 -1 -18 -1q-30 0 -51 11q-34 17 -34 43zM482 1236q0 40 34 67t74 27q46 0 75 -33t29 -75q0 -46 -33 -68t-72 -20t-72 28t-35 74zM810 1238q0 40 34 67t74 27q46 0 75 -33t29 -75q0 -46 -33 -68t-72 -20t-72 28t-35 74z" />
<glyph unicode="&#xfd;" horiz-adv-x="1908" d="M-36 81q-3 8 -3 16q0 19 17 38q24 27 96 27q64 0 116 37t93 100t70 145t49 173t32 185t16 182q0 18 24 41t52 30t51 -12t23 -85q0 -48 -9 -99t-20 -103t-19 -104t-8 -100q0 -60 12 -130t41 -130t79 -100t126 -40q108 0 187 48t134 126t88 176t50 199t21 193q2 37 2 70 q0 49 -4 90q2 36 23 51q20 14 43 14h3q25 -1 46 -16t25 -37q12 -74 32 -182t39 -242t34 -290t19 -324q60 22 112 37t96 26t77 21t57 22q25 12 44 12q11 0 20 -4q24 -12 30 -38q2 -7 2 -14q0 -19 -12 -40q-16 -28 -58 -38q-60 -24 -105 -35t-86 -22t-83 -25t-94 -44 q-2 -220 -33 -448t-106 -443t-201 -408t-318 -345q-65 -32 -124 -32q-23 0 -44 5q-78 17 -142 76t-113 150t-83 192t-52 205t-18 188q0 204 71 347t209 251t340 195t464 181l-58 530q-22 -44 -41 -99t-42 -111t-56 -109t-85 -93t-128 -65t-184 -25q-64 0 -119 25t-99 66 t-78 95t-54 114q-28 -78 -70 -128t-90 -80t-96 -46t-84 -30q-32 -13 -59 -13q-20 0 -37 7q-40 16 -50 43zM432 -912q-3 -27 -3 -56q0 -40 5 -86q8 -80 30 -163t57 -159t84 -131t111 -81q35 -15 75 -15q30 0 63 9q68 18 134 91t125 179t111 236t93 263t69 257t41 220 q10 73 10 123q0 15 -1 28q-4 50 -23 50q-2 0 -5 -1q-38 -10 -123 -35t-189 -69t-217 -106t-208 -144t-161 -184t-78 -226zM799 1164q-11 20 0 56t53 82l182 138q48 38 74 31t31 -34t-8 -62t-41 -51l-180 -150q-40 -30 -70 -30t-41 20z" />
<glyph unicode="&#xff;" horiz-adv-x="1908" d="M-36 81q-3 8 -3 16q0 19 17 38q24 27 96 27q64 0 116 37t93 100t70 145t49 173t32 185t16 182q0 18 24 41t52 30t51 -12t23 -85q0 -48 -9 -99t-20 -103t-19 -104t-8 -100q0 -60 12 -130t41 -130t79 -100t126 -40q108 0 187 48t134 126t88 176t50 199t21 193q2 37 2 70 q0 49 -4 90q2 36 23 51q20 14 43 14h3q25 -1 46 -16t25 -37q12 -74 32 -182t39 -242t34 -290t19 -324q60 22 112 37t96 26t77 21t57 22q25 12 44 12q11 0 20 -4q24 -12 30 -38q2 -7 2 -14q0 -19 -12 -40q-16 -28 -58 -38q-60 -24 -105 -35t-86 -22t-83 -25t-94 -44 q-2 -220 -33 -448t-106 -443t-201 -408t-318 -345q-65 -32 -124 -32q-23 0 -44 5q-78 17 -142 76t-113 150t-83 192t-52 205t-18 188q0 204 71 347t209 251t340 195t464 181l-58 530q-22 -44 -41 -99t-42 -111t-56 -109t-85 -93t-128 -65t-184 -25q-64 0 -119 25t-99 66 t-78 95t-54 114q-28 -78 -70 -128t-90 -80t-96 -46t-84 -30q-32 -13 -59 -13q-20 0 -37 7q-40 16 -50 43zM432 -912q-3 -27 -3 -56q0 -40 5 -86q8 -80 30 -163t57 -159t84 -131t111 -81q35 -15 75 -15q30 0 63 9q68 18 134 91t125 179t111 236t93 263t69 257t41 220 q10 73 10 123q0 15 -1 28q-4 50 -23 50q-2 0 -5 -1q-38 -10 -123 -35t-189 -69t-217 -106t-208 -144t-161 -184t-78 -226zM684 1236q0 40 34 67t74 27q46 0 75 -33t29 -75q0 -46 -33 -68t-72 -20t-72 28t-35 74zM1012 1238q0 40 34 67t74 27q46 0 75 -33t29 -75 q0 -46 -33 -68t-72 -20t-72 28t-35 74z" />
<glyph unicode="&#x131;" horiz-adv-x="860" d="M-52 75q-6 25 10 47t74 26q28 10 55 24t55 39t56 66t60 103q0 10 -3 50t-2 94t6 113t19 109t37 83t61 33q42 -38 49 -92t0 -114t-18 -122t-5 -114q16 -148 127 -221t289 -65q14 0 35 2t41 1t33 -5t13 -16q0 -46 -13 -69t-37 -32t-55 -8t-67 1q-128 0 -248 54t-200 152 q-56 -52 -85 -85t-56 -54t-63 -34t-108 -25q-16 -4 -35 15t-25 44z" />
<glyph unicode="&#x152;" horiz-adv-x="2784" d="M32 983q16 185 96 397q50 126 146 200t216 103t254 17t261 -57t235 -119t178 -168q24 90 108 155t199 104t249 52t257 -2t222 -57t147 -112q0 -10 -2 -28t-9 -36t-20 -30t-33 -10q-64 70 -166 99t-217 30t-230 -23t-202 -61t-135 -82t-28 -87q36 -56 124 -88t197 -51 t226 -30t214 -26t159 -39t62 -68q0 -30 -44 -52t-117 -41t-166 -38t-189 -44t-189 -58t-166 -80t-117 -111t-44 -150q6 -122 83 -187t199 -90t273 -23t304 13t292 18t237 -7q2 -28 4 -50q2 -20 3 -37t1 -19q-348 -42 -594 -53t-413 6t-265 58t-151 101t-72 135t-25 161 q-118 -174 -301 -286t-407 -134q-92 -4 -191 38t-187 125t-155 205t-97 277t-14 340zM139 920q1 -108 24 -219t67 -216t110 -185t152 -128t194 -46q100 -2 201 40t192 116t165 172t119 207t55 223t-28 218q-132 -52 -295 -91t-330 -46t-325 27t-282 124q-20 -88 -19 -196z M278 1343q-10 -55 27 -104t122 -87t223 -52q20 0 79 4t135 11t158 18t150 25t113 30t45 36q0 64 -33 114t-87 87t-121 64t-135 43t-130 23t-104 7q-134 -6 -229 -39t-149 -79t-64 -101zM1508 686q56 50 128 89t148 71t153 59t141 51q-42 28 -112 42t-148 27t-157 30t-139 53 q22 -110 18 -216t-32 -206z" />
<glyph unicode="&#x153;" horiz-adv-x="1992" d="M-25 44q-9 18 8 48t67 66q58 40 110 105t80 141q-22 112 -5 228t78 214t169 168t268 92q68 0 130 -53t116 -136t98 -186t72 -203q20 110 67 211t109 175t132 113t138 27q98 -10 143 -53t51 -106t-19 -139t-68 -155t-97 -152t-105 -128t-91 -87t-56 -26q72 -64 157 -82 t175 -15t182 16t182 13q26 -30 9 -55t-64 -44t-117 -30t-152 -15t-167 1t-162 20t-139 40t-96 61q-74 -58 -161 -93t-177 -46t-178 1t-162 47t-129 92t-79 135q-54 -86 -107 -136t-97 -72t-74 -21t-39 19zM343 481q9 -91 60 -166t134 -130t176 -76t184 -2t161 93 q-152 48 -256 101t-178 110t-128 120t-106 131q-56 -90 -47 -181zM484 828q-12 -72 42 -150t143 -151t198 -137t209 -112q0 52 -10 123t-30 149t-49 154t-66 137t-84 98t-101 37q-34 0 -77 -7t-82 -24t-66 -46t-27 -71zM1295 529q-13 -99 15 -185q62 32 123 85t113 113 t89 122t53 114t4 87t-58 43q-94 -2 -166 -58t-116 -139t-57 -182z" />
<glyph unicode="&#x178;" horiz-adv-x="2066" d="M78 827q-14 78 -14 158q0 90 18 183q34 174 146 332q2 14 19 21t36 3t35 -20t16 -46q-88 -126 -121 -271q-22 -98 -22 -195q0 -47 5 -95q16 -145 76 -279t160 -236t235 -162q127 -56 279 -56h20q148 0 250 41t171 118t114 185t81 242q-2 90 -3 193v69q0 69 1 140 q2 106 7 211t17 199q8 22 23 25q3 1 7 1q12 0 24 -8q16 -10 30 -27t20 -33q2 -24 3 -74t3 -114t4 -134t4 -134t4 -115t2 -75q2 -38 8 -99t15 -132t19 -148t21 -148t22 -130t21 -95q32 10 67 12q18 1 35.5 1t35.5 -1q36 -2 71 -6t65 -4q74 -28 74 -62t-98 -44l-242 -10 q0 -164 16 -354t26 -380q6 -106 6 -208q0 -82 -4 -161q-8 -179 -58 -320t-152 -232t-280 -105q-104 0 -188 49t-149 129t-112 183t-77 210t-45 209t-15 182q0 176 80 328t206 270t284 195t314 105l-70 434q-18 -106 -66 -198t-122 -159t-169 -105t-205 -38q-41 -3 -81 -3 q-145 0 -276 45q-167 58 -296 167t-215 259t-116 317zM914 -846q0 -60 12 -143t36 -171t61 -176t88 -156t116 -111t147 -43q84 0 145 37t104 97t70 136t42 153t20 149t5 126q0 94 -8 210t-18 239t-21 242t-19 219q-18 -2 -85 -23t-155 -64t-186 -107t-178 -153t-131 -204 q-46 -103 -46 -227q0 -15 1 -30zM762 1974q0 40 34 67t74 27q46 0 75 -33t29 -75q0 -46 -33 -68t-72 -20t-72 28t-35 74zM1090 1976q0 40 34 67t74 27q46 0 75 -33t29 -75q0 -46 -33 -68t-72 -20t-72 28t-35 74z" />
<glyph unicode="&#x2c6;" horiz-adv-x="606" d="M36 1216l126 306q40 66 78 89t69 14t53 -43t34 -80l186 -272q-4 -16 -17 -28t-30 -20t-36 -12t-33 0l-184 250l-130 -248q-22 -24 -43 -30t-37 2t-26 27t-10 45z" />
<glyph unicode="&#x2da;" horiz-adv-x="482" d="M60 1294q0 70 29 113t74 64t98 24t100 -8t81 -32t42 -45q20 -14 20 -34q0 -54 -28 -101t-71 -81t-97 -54t-104 -20q-78 0 -111 52t-33 122zM212 1332q-8 -30 6 -59t39 -35t54 24t51 118q-74 18 -108 0t-42 -48z" />
<glyph unicode="&#x2dc;" horiz-adv-x="1250" d="M84 1240q-4 34 18 80q22 76 46 128t54 86t69 53t91 31q96 0 147 -24t77 -60t36 -77t27 -76t49 -56t102 -17q48 0 78 36t56 78t54 78t74 36q12 0 25 -10t24 -24t18 -30t7 -28q-16 -78 -68 -141t-118 -103t-134 -53t-116 9q-54 30 -88 67t-55 75t-36 73t-33 60t-44 36 t-70 3q-24 6 -46 -13t-38 -53t-24 -80t-4 -92q4 -36 -13 -56t-43 -26t-54 3t-46 31t-22 56z" />
<glyph unicode="&#x2000;" horiz-adv-x="1182" />
<glyph unicode="&#x2001;" horiz-adv-x="2364" />
<glyph unicode="&#x2002;" horiz-adv-x="1182" />
<glyph unicode="&#x2003;" horiz-adv-x="2364" />
<glyph unicode="&#x2004;" horiz-adv-x="788" />
<glyph unicode="&#x2005;" horiz-adv-x="590" />
<glyph unicode="&#x2006;" horiz-adv-x="394" />
<glyph unicode="&#x2007;" horiz-adv-x="394" />
<glyph unicode="&#x2008;" horiz-adv-x="294" />
<glyph unicode="&#x2009;" horiz-adv-x="472" />
<glyph unicode="&#x200a;" horiz-adv-x="130" />
<glyph unicode="&#x2010;" horiz-adv-x="848" d="M36 762q112 0 192 -1t155 -1t155 -1t192 -1q46 0 54 -16t8 -62q-10 -36 -55 -54t-111 -24t-143 -4t-153 8t-141 12t-105 8q-34 22 -41 62t-7 74z" />
<glyph unicode="&#x2011;" horiz-adv-x="848" d="M36 762q112 0 192 -1t155 -1t155 -1t192 -1q46 0 54 -16t8 -62q-10 -36 -55 -54t-111 -24t-143 -4t-153 8t-141 12t-105 8q-34 22 -41 62t-7 74z" />
<glyph unicode="&#x2012;" horiz-adv-x="848" d="M36 762q112 0 192 -1t155 -1t155 -1t192 -1q46 0 54 -16t8 -62q-10 -36 -55 -54t-111 -24t-143 -4t-153 8t-141 12t-105 8q-34 22 -41 62t-7 74z" />
<glyph unicode="&#x2013;" horiz-adv-x="848" d="M36 762q112 0 192 -1t155 -1t155 -1t192 -1q46 0 54 -16t8 -62q-10 -36 -55 -54t-111 -24t-143 -4t-153 8t-141 12t-105 8q-34 22 -41 62t-7 74z" />
<glyph unicode="&#x2014;" horiz-adv-x="848" d="M36 762q112 0 192 -1t155 -1t155 -1t192 -1q46 0 54 -16t8 -62q-10 -36 -55 -54t-111 -24t-143 -4t-153 8t-141 12t-105 8q-34 22 -41 62t-7 74z" />
<glyph unicode="&#x2018;" horiz-adv-x="416" d="M80 1196q0 56 11 115t37 107t68 79t104 31q16 0 37 -1t40 -7t32 -18t13 -34q0 -58 -33 -92t-72 -63t-72 -59t-33 -78q0 -28 12 -50t27 -42t27 -38t12 -36t-9 -34t-29 -16q-40 0 -71 24t-54 60t-35 77t-12 75z" />
<glyph unicode="&#x2019;" horiz-adv-x="416" d="M42 1456q0 24 12 36t30 18t38 7t34 1q58 0 98 -32t64 -82t35 -111t11 -117q0 -36 -12 -78t-33 -78t-51 -61t-66 -25q-18 0 -27 16t-9 36q0 18 12 37t25 39t25 43t12 51q0 50 -31 81t-68 60t-68 64t-31 95z" />
<glyph unicode="&#x201a;" horiz-adv-x="416" d="M36 412q0 24 12 36t30 18t38 7t34 1q58 0 98 -32t64 -82t35 -111t11 -117q0 -36 -12 -78t-33 -78t-51 -61t-66 -25q-18 0 -27 16t-9 36q0 18 12 37t25 39t25 43t12 51q0 50 -31 81t-68 60t-68 64t-31 95z" />
<glyph unicode="&#x201c;" horiz-adv-x="874" d="M60 1270q0 60 13 123t41 115t75 85t117 33q16 0 39 -1t44 -7t36 -19t15 -37q0 -42 -17 -71t-43 -53t-57 -43t-57 -40t-43 -46t-17 -59q0 -30 14 -54t30 -45t30 -40t14 -39t-10 -37t-32 -17q-44 0 -79 26t-60 64t-39 82t-14 80zM476 1206q0 44 12 112t39 132t71 109 t110 45q18 0 38 -11t35 -29t25 -38t10 -38q0 -30 -16 -47t-40 -30t-51 -26t-51 -37t-40 -63t-16 -103q0 -40 17 -69t37 -53t37 -48t17 -54q0 -20 -8 -31t-36 -11q-54 0 -91 30t-59 73t-31 94t-9 93z" />
<glyph unicode="&#x201d;" horiz-adv-x="874" d="M102 1480q0 18 10 38t25 38t35 29t38 11q66 0 111 -45t72 -109t39 -132t12 -112q0 -42 -9 -93t-32 -94t-60 -73t-91 -30q-26 0 -35 11t-9 31q0 30 17 54t37 48t37 53t17 69q0 64 -16 103t-40 63t-51 37t-51 26t-40 30t-16 47zM480 1554q0 24 15 37t36 19t44 7t39 1 q70 0 117 -33t76 -85t42 -115t13 -123q0 -36 -14 -80t-39 -82t-60 -64t-79 -26q-22 0 -33 17t-11 37t14 39t31 40t31 45t14 54q0 52 -37 84t-81 62t-81 67t-37 99z" />
<glyph unicode="&#x201e;" horiz-adv-x="874" d="M82 246q0 60 13 123t41 115t75 85t117 33q16 0 39 -1t44 -7t36 -19t15 -37q0 -42 -17 -71t-43 -53t-57 -43t-57 -40t-43 -46t-17 -59q0 -30 14 -54t30 -45t30 -40t14 -39t-10 -37t-32 -17q-44 0 -79 26t-60 64t-39 82t-14 80zM498 182q0 44 12 112t39 132t71 109t110 45 q18 0 38 -11t35 -29t25 -38t10 -38q0 -30 -16 -47t-40 -30t-51 -26t-51 -37t-40 -63t-16 -103q0 -40 17 -69t37 -53t37 -48t17 -54q0 -20 -8 -31t-36 -11q-54 0 -91 30t-59 73t-31 94t-9 93z" />
<glyph unicode="&#x2022;" horiz-adv-x="1750" d="M124 1335q6 93 54 161t150 94q92 0 156 -24t107 -63t72 -92t53 -111t50 -119t62 -115q0 -2 4 -3t6 -1q8 0 12 4q64 52 133 102t144 88t155 61t168 23q114 -6 160 -53t39 -123t-55 -173t-122 -202t-163 -210t-176 -197t-162 -164t-121 -110q-40 20 -44 55t22 71 q42 50 121 126t169 167t176 190t143 194t69 179t-46 146q-122 2 -218 -37t-173 -106t-136 -155t-105 -184q-38 0 -59 31t-34 80t-21 113t-21 131t-34 131t-59 113t-96 80t-144 31q-72 -70 -89 -165t7 -200t81 -214t131 -207t157 -177t161 -123q18 -16 20 -33t-8 -33t-27 -27 t-37 -13q-58 14 -129 73t-143 146t-140 195t-119 221t-79 224t-22 204z" />
<glyph unicode="&#x2026;" horiz-adv-x="1614" d="M244 96q0 40 34 67t74 27q46 0 75 -33t29 -75q0 -46 -33 -68t-72 -20t-72 28t-35 74zM782 96q0 40 34 67t74 27q46 0 75 -33t29 -75q0 -46 -33 -68t-72 -20t-72 28t-35 74zM1320 96q0 40 34 67t74 27q46 0 75 -33t29 -75q0 -46 -33 -68t-72 -20t-72 28t-35 74z" />
<glyph unicode="&#x202f;" horiz-adv-x="472" />
<glyph unicode="&#x2039;" horiz-adv-x="1292" d="M82 620q-2 36 31 70t113 60l662 234q68 -10 91 -26t16 -34t-34 -37t-59 -37l-602 -254l662 -488q0 -16 -8 -35t-21 -35t-29 -27t-34 -11l-682 494q-46 24 -75 57t-31 69z" />
<glyph unicode="&#x203a;" horiz-adv-x="1066" d="M164 911q-6 17 15 31t85 24l618 -212q74 -24 105 -55t30 -63t-29 -62t-70 -52l-638 -448q-16 0 -31 10t-27 24t-20 31t-8 33l618 442l-562 230q-30 16 -55 33t-31 34z" />
<glyph unicode="&#x205f;" horiz-adv-x="590" />
<glyph unicode="&#x20ac;" horiz-adv-x="1388" d="M36 928q0 26 14 37t33 20t37 21t26 36q6 70 37 158t82 178t117 175t143 150t161 104t170 36t169 -55t159 -166q-8 -6 -23 -10t-31 -9t-28 -12t-14 -17h-10q-68 84 -138 117t-138 27t-133 -46t-123 -99t-107 -131t-85 -145t-58 -140t-24 -115q16 -12 66 -16t118 -3t145 5 t148 8t127 6t82 0q16 0 37 -1t40 -6t33 -18t18 -37q0 -4 -1 -12t-1 -10q-28 -8 -101 -12t-166 -9t-194 -12t-184 -18t-137 -29t-54 -44q0 -8 2 -14t11 -12t29 -10t54 -6q108 0 204 9t188 20t186 20t202 9q6 0 5 -18t-4 -39t-4 -38t3 -17l-828 -70q0 -122 52 -221t138 -172 t196 -117t225 -55t226 14t201 91q4 -2 11 -9t9 -11v-4v-4q0 -2 2 -2q-112 -112 -242 -152t-263 -25t-261 79t-232 163t-177 227t-99 270q0 18 7 29t16 20t17 19t8 28q0 22 -15 29t-32 13t-32 15t-15 35z" />
<glyph unicode="&#x2122;" horiz-adv-x="5094" d="M1497 1152q-13 45 -13 94q0 54 16 112q30 110 110 203t203 153q119 58 271 58h10q128 0 219 -38t154 -104t100 -154t59 -187t32 -205t16 -208q28 66 66 154t86 182t105 185t123 160t140 106q58 29 123 29q17 0 35 -2q62 0 104 -68t69 -170t42 -222t26 -222t19 -170 t20 -68q46 130 128 258t193 228t249 158q114 48 242 48q26 0 54 -2q68 0 111 -28t67 -73t33 -101t9 -112v-35q0 -72 -6 -158q-8 -107 -16 -217t-10 -214v-29q0 -86 10 -156q12 -81 45 -132t95 -55q4 -2 32 -2t68 3t85 6t84 5q26 1 46 1h18q25 -1 25 -5l12 -12q17 -17 17 -39 q0 -14 -10 -29q-13 -20 -64 -37t-149 -29t-264 -12q-82 46 -125 126t-60 180q-14 85 -14 179v34q3 113 14 225t23 215t12 184t-16 132t-62 59q-150 0 -266 -49t-207 -129t-158 -180t-117 -202t-86 -197t-62 -161q-10 0 -23 -9t-28 -13t-29 3t-24 41q-8 86 -15 202t-15 240 t-18 244t-28 212t-44 144q-22 44 -52 44q-6 0 -12 -2q-21 6 -41 6l-123 -49q-82 -65 -154 -184t-131 -277t-97 -322t-50 -320q-4 -55 -4 -105q0 -92 14 -167q-10 -26 -24 -45t-42 -19q-54 0 -76 69t-29 182q-5 88 -5 195v63q1 41 1 83q0 105 -4 212q-5 150 -24 295t-68 258 t-136 182t-227 69h-9q-105 0 -197 -44q-96 -46 -164 -117t-100 -152q-21 -53 -21 -100q0 -25 6 -49q17 -68 90 -111q59 -35 164 -35q24 0 51 2q32 -16 41 -38t-1 -42t-35 -34t-61 -14q-162 8 -253 75t-118 163zM6 1441q4 17 22 31t52 16q120 -110 226 -180t200 -109t177 -51 q59 -8 114 -8q23 0 45 1q76 5 148 24t142 41q18 6 40 38t47 79t51 101t53 105t54 92t55 59q96 64 166 64h12q74 -6 109 -59q29 -44 29 -111q0 -13 -1 -27q-7 -85 -60 -172t-158 -162t-265 -105q-50 -192 -59 -359q-4 -75 -4 -144q0 -84 6 -160q11 -137 33 -243t34 -176 q4 -22 4 -37q0 -25 -10 -36q-12 -13 -28 -13q-6 0 -12 2q-24 6 -46 27t-26 39q-16 74 -37 181t-31 243q-5 72 -5 150q0 71 4 147q9 161 53 345q2 10 -42 -1t-123 -21t-186 -10t-230 32t-256 105t-263 209q-20 6 -29 21q-6 10 -6 22q0 5 1 10zM1296 1224q6 -1 14 -1 q24 0 57 15q43 20 88 57t86 85t69 97t35 91q2 10 2 19q0 29 -17 51q-16 14 -36 14q-14 0 -28 -7q-36 -17 -72 -59t-71 -99t-63 -111t-45 -97t-19 -55z" />
<glyph unicode="&#xe000;" horiz-adv-x="1085" d="M0 1085h1085v-1085h-1085v1085z" />
<glyph unicode="&#xfb01;" horiz-adv-x="1942" d="M1030 75q-2 7 -2 13q0 18 12 34q16 22 74 26q28 10 55 24t55 39t56 66t60 103q0 10 -3 50q-2 30 -2 68v26q1 54 6 113t19 109t37 83t61 33q42 -38 49 -92q4 -27 3.5 -55.5t-3.5 -58.5q-7 -60 -18 -122q-7 -40 -7 -76q0 -20 2 -38q16 -148 127 -221q100 -66 254 -66 q17 0 35 1q14 0 35 2t41 1t33 -5t13 -16q0 -46 -13 -69t-37 -32q-22 -8 -49 -8h-6q-31 1 -67 1q-128 0 -248 54t-200 152q-56 -52 -85 -85t-56 -54t-63 -34t-108 -25q-16 -4 -35 15t-25 44zM1426 1278q-7 21 -7 36q0 17 9 27q14 17 36 17h5q25 -2 51 -20t32 -48 q0 -34 -20 -55t-52 -21q-36 0 -45 14t-9 50zM-17 204q17 70 84 140t157 118q-54 134 -64 277q-4 55 -4 108q0 84 10 163q16 128 48 227t64 143q36 49 65 49q6 0 12 -2q33 -13 55 -78t32 -171q7 -71 7 -150q0 -40 -2 -81q-5 -125 -26 -260t-57 -257h3q65 0 170 -87 q107 -89 239 -229q12 -12 38 -14t62 2t82 11t100 11q28 11 50 11q19 0 34 -8q35 -19 35 -50q0 -25 -26 -50q-29 -27 -99 -29q-82 -7 -134 -7h-13h-10q-47 0 -61 -9q88 -70 129 -172t41 -214t-36 -227t-101 -209t-155 -160t-196 -82q-92 0 -151 61t-94 148t-50 185t-17 170 q0 18 -1 58t-1 89t-1 104q0 28 -0.5 53.5t0.5 50.5q1 49 1 88t2 57q-140 30 -189 91q-36 45 -36 96q0 17 4 35zM129 132q15 -9 38 -9q17 0 37 5q4 2 3 22t-5 44t-10 44t-10 22q-46 -8 -67 -34q-18 -22 -18 -44q0 -31 32 -50zM261 935q-2 -38 -2 -77q0 -47 3 -96 q6 -90 28 -168q28 220 39 354q9 113 9 178v22q-2 66 -12 72q-1 1 -3 1q-9 0 -20 -31q-13 -36 -25 -104t-17 -151zM319 -332v-25q0 -76 5 -155q6 -92 25 -174t53 -149t88 -103q92 0 166 44t126 113t81 153t29 166q1 17 1 33q0 117 -39 191q-44 84 -121 129t-178 59 q-88 12 -181 12h-26q-10 -52 -19 -129t-10 -165zM332 252q-2 -10 -2 -22q0 -31 14 -78q2 -16 24 -31t56 -28t73 -22t75 -13q18 -2 34 -2t29 2q27 4 35 16q-32 48 -74 91t-84 74t-81 46q-27 10 -47 10q-10 0 -18 -2q-26 -7 -34 -41z" />
<glyph unicode="&#xfb02;" horiz-adv-x="2116" d="M1068 74q0 14 8 29q10 19 40 31q38 8 80 27t84 56t80 99t68 158q-10 70 -21 153t-20 173t-15 184t-6 186q0 132 14 253t50 212t95 146t149 55q56 0 89 -30t51 -74t23 -96t5 -94q-12 -238 -54 -421t-87 -317t-80 -220t-35 -132q0 -90 44 -153t114 -103t158 -59t178 -19 q10 2 33 5t47 2t42 -8t18 -25q0 -52 -52 -75t-124 -23q-114 0 -209 43t-167 96t-118 96t-60 43h-2q-30 -10 -56 -45t-64 -75t-96 -76t-152 -46q-20 -4 -34 7q-18 14 -18 37zM1504 1092q0 -110 4 -215t12 -191q42 62 79 162t64 213t42 230t15 213v70q0 36 -8 65t-25 48 t-49 19q-40 0 -65 -53t-41 -139t-22 -197t-6 -225zM-17 204q17 70 84 140t157 118q-54 134 -64 277q-4 55 -4 108q0 84 10 163q16 128 48 227t64 143q36 49 65 49q6 0 12 -2q33 -13 55 -78t32 -171q7 -71 7 -150q0 -40 -2 -81q-5 -125 -26 -260t-57 -257h3q65 0 170 -87 q107 -89 239 -229q12 -12 38 -14t62 2t82 11t100 11q28 11 50 11q19 0 34 -8q35 -19 35 -50q0 -25 -26 -50q-29 -27 -99 -29q-82 -7 -134 -7h-13h-10q-47 0 -61 -9q88 -70 129 -172t41 -214t-36 -227t-101 -209t-155 -160t-196 -82q-92 0 -151 61t-94 148t-50 185t-17 170 q0 18 -1 58t-1 89t-1 104q0 28 -0.5 53.5t0.5 50.5q1 49 1 88t2 57q-140 30 -189 91q-36 45 -36 96q0 17 4 35zM129 132q15 -9 38 -9q17 0 37 5q4 2 3 22t-5 44t-10 44t-10 22q-46 -8 -67 -34q-18 -22 -18 -44q0 -31 32 -50zM261 935q-2 -38 -2 -77q0 -47 3 -96 q6 -90 28 -168q28 220 39 354q9 113 9 178v22q-2 66 -12 72q-1 1 -3 1q-9 0 -20 -31q-13 -36 -25 -104t-17 -151zM319 -332v-25q0 -76 5 -155q6 -92 25 -174t53 -149t88 -103q92 0 166 44t126 113t81 153t29 166q1 17 1 33q0 117 -39 191q-44 84 -121 129t-178 59 q-88 12 -181 12h-26q-10 -52 -19 -129t-10 -165zM332 252q-2 -10 -2 -22q0 -31 14 -78q2 -16 24 -31t56 -28t73 -22t75 -13q18 -2 34 -2t29 2q27 4 35 16q-32 48 -74 91t-84 74t-81 46q-27 10 -47 10q-10 0 -18 -2q-26 -7 -34 -41z" />
<glyph unicode="&#xfb03;" horiz-adv-x="3024" d="M2112 75q-2 7 -2 13q0 18 12 34q16 22 74 26q28 10 55 24t55 39t56 66t60 103q0 10 -3 50q-2 30 -2 68v26q1 54 6 113t19 109t37 83t61 33q42 -38 49 -92q4 -27 3.5 -55.5t-3.5 -58.5q-7 -60 -18 -122q-7 -40 -7 -76q0 -20 2 -38q16 -148 127 -221q100 -66 254 -66 q17 0 35 1q14 0 35 2t41 1t33 -5t13 -16q0 -46 -13 -69t-37 -32q-22 -8 -49 -8h-6q-31 1 -67 1q-128 0 -248 54t-200 152q-56 -52 -85 -85t-56 -54t-63 -34t-108 -25q-16 -4 -35 15t-25 44zM2508 1278q-7 21 -7 36q0 17 9 27q14 17 36 17h5q25 -2 51 -20t32 -48 q0 -34 -20 -55t-52 -21q-36 0 -45 14t-9 50zM1065 204q17 70 84 140t157 118q-54 134 -64 277q-4 55 -4 108q0 84 10 163q16 128 48 227t64 143q36 49 65 49q6 0 12 -2q33 -13 55 -78t32 -171q7 -71 7 -150q0 -40 -2 -81q-5 -125 -26 -260t-57 -257h3q65 0 170 -87 q107 -89 239 -229q12 -12 38 -14t62 2t82 11t100 11q28 11 50 11q19 0 34 -8q35 -19 35 -50q0 -25 -26 -50q-29 -27 -99 -29q-82 -7 -134 -7h-13h-10q-47 0 -61 -9q88 -70 129 -172t41 -214t-36 -227t-101 -209t-155 -160t-196 -82q-92 0 -151 61t-94 148t-50 185t-17 170 q0 18 -1 58t-1 89t-1 104q0 28 -0.5 53.5t0.5 50.5q1 49 1 88t2 57q-140 30 -189 91q-36 45 -36 96q0 17 4 35zM1211 132q15 -9 38 -9q17 0 37 5q4 2 3 22t-5 44t-10 44t-10 22q-46 -8 -67 -34q-18 -22 -18 -44q0 -31 32 -50zM1343 935q-2 -38 -2 -77q0 -47 3 -96 q6 -90 28 -168q28 220 39 354q9 113 9 178v22q-2 66 -12 72q-1 1 -3 1q-9 0 -20 -31q-13 -36 -25 -104t-17 -151zM1401 -332v-25q0 -76 5 -155q6 -92 25 -174t53 -149t88 -103q92 0 166 44t126 113t81 153t29 166q1 17 1 33q0 117 -39 191q-44 84 -121 129t-178 59 q-88 12 -181 12h-26q-10 -52 -19 -129t-10 -165zM1414 252q-2 -10 -2 -22q0 -31 14 -78q2 -16 24 -31t56 -28t73 -22t75 -13q18 -2 34 -2t29 2q27 4 35 16q-32 48 -74 91t-84 74t-81 46q-27 10 -47 10q-10 0 -18 -2q-26 -7 -34 -41zM-17 204q17 70 84 140t157 118 q-54 134 -64 277q-4 55 -4 108q0 84 10 163q16 128 48 227t64 143q36 49 65 49q6 0 12 -2q33 -13 55 -78t32 -171q7 -71 7 -150q0 -40 -2 -81q-5 -125 -26 -260t-57 -257h3q65 0 170 -87q107 -89 239 -229q12 -12 38 -14t62 2t82 11t100 11q28 11 50 11q19 0 34 -8 q35 -19 35 -50q0 -25 -26 -50q-29 -27 -99 -29q-82 -7 -134 -7h-13h-10q-47 0 -61 -9q88 -70 129 -172t41 -214t-36 -227t-101 -209t-155 -160t-196 -82q-92 0 -151 61t-94 148t-50 185t-17 170q0 18 -1 58t-1 89t-1 104q0 28 -0.5 53.5t0.5 50.5q1 49 1 88t2 57 q-140 30 -189 91q-36 45 -36 96q0 17 4 35zM129 132q15 -9 38 -9q17 0 37 5q4 2 3 22t-5 44t-10 44t-10 22q-46 -8 -67 -34q-18 -22 -18 -44q0 -31 32 -50zM261 935q-2 -38 -2 -77q0 -47 3 -96q6 -90 28 -168q28 220 39 354q9 113 9 178v22q-2 66 -12 72q-1 1 -3 1 q-9 0 -20 -31q-13 -36 -25 -104t-17 -151zM319 -332v-25q0 -76 5 -155q6 -92 25 -174t53 -149t88 -103q92 0 166 44t126 113t81 153t29 166q1 17 1 33q0 117 -39 191q-44 84 -121 129t-178 59q-88 12 -181 12h-26q-10 -52 -19 -129t-10 -165zM332 252q-2 -10 -2 -22 q0 -31 14 -78q2 -16 24 -31t56 -28t73 -22t75 -13q18 -2 34 -2t29 2q27 4 35 16q-32 48 -74 91t-84 74t-81 46q-27 10 -47 10q-10 0 -18 -2q-26 -7 -34 -41z" />
<glyph unicode="&#xfb04;" horiz-adv-x="3198" d="M2150 74q0 14 8 29q10 19 40 31q38 8 80 27t84 56t80 99t68 158q-10 70 -21 153t-20 173t-15 184t-6 186q0 132 14 253t50 212t95 146t149 55q56 0 89 -30t51 -74t23 -96t5 -94q-12 -238 -54 -421t-87 -317t-80 -220t-35 -132q0 -90 44 -153t114 -103t158 -59t178 -19 q10 2 33 5t47 2t42 -8t18 -25q0 -52 -52 -75t-124 -23q-114 0 -209 43t-167 96t-118 96t-60 43h-2q-30 -10 -56 -45t-64 -75t-96 -76t-152 -46q-20 -4 -34 7q-18 14 -18 37zM2586 1092q0 -110 4 -215t12 -191q42 62 79 162t64 213t42 230t15 213v70q0 36 -8 65t-25 48 t-49 19q-40 0 -65 -53t-41 -139t-22 -197t-6 -225zM1065 204q17 70 84 140t157 118q-54 134 -64 277q-4 55 -4 108q0 84 10 163q16 128 48 227t64 143q36 49 65 49q6 0 12 -2q33 -13 55 -78t32 -171q7 -71 7 -150q0 -40 -2 -81q-5 -125 -26 -260t-57 -257h3q65 0 170 -87 q107 -89 239 -229q12 -12 38 -14t62 2t82 11t100 11q28 11 50 11q19 0 34 -8q35 -19 35 -50q0 -25 -26 -50q-29 -27 -99 -29q-82 -7 -134 -7h-13h-10q-47 0 -61 -9q88 -70 129 -172t41 -214t-36 -227t-101 -209t-155 -160t-196 -82q-92 0 -151 61t-94 148t-50 185t-17 170 q0 18 -1 58t-1 89t-1 104q0 28 -0.5 53.5t0.5 50.5q1 49 1 88t2 57q-140 30 -189 91q-36 45 -36 96q0 17 4 35zM1211 132q15 -9 38 -9q17 0 37 5q4 2 3 22t-5 44t-10 44t-10 22q-46 -8 -67 -34q-18 -22 -18 -44q0 -31 32 -50zM1343 935q-2 -38 -2 -77q0 -47 3 -96 q6 -90 28 -168q28 220 39 354q9 113 9 178v22q-2 66 -12 72q-1 1 -3 1q-9 0 -20 -31q-13 -36 -25 -104t-17 -151zM1401 -332v-25q0 -76 5 -155q6 -92 25 -174t53 -149t88 -103q92 0 166 44t126 113t81 153t29 166q1 17 1 33q0 117 -39 191q-44 84 -121 129t-178 59 q-88 12 -181 12h-26q-10 -52 -19 -129t-10 -165zM1414 252q-2 -10 -2 -22q0 -31 14 -78q2 -16 24 -31t56 -28t73 -22t75 -13q18 -2 34 -2t29 2q27 4 35 16q-32 48 -74 91t-84 74t-81 46q-27 10 -47 10q-10 0 -18 -2q-26 -7 -34 -41zM-17 204q17 70 84 140t157 118 q-54 134 -64 277q-4 55 -4 108q0 84 10 163q16 128 48 227t64 143q36 49 65 49q6 0 12 -2q33 -13 55 -78t32 -171q7 -71 7 -150q0 -40 -2 -81q-5 -125 -26 -260t-57 -257h3q65 0 170 -87q107 -89 239 -229q12 -12 38 -14t62 2t82 11t100 11q28 11 50 11q19 0 34 -8 q35 -19 35 -50q0 -25 -26 -50q-29 -27 -99 -29q-82 -7 -134 -7h-13h-10q-47 0 -61 -9q88 -70 129 -172t41 -214t-36 -227t-101 -209t-155 -160t-196 -82q-92 0 -151 61t-94 148t-50 185t-17 170q0 18 -1 58t-1 89t-1 104q0 28 -0.5 53.5t0.5 50.5q1 49 1 88t2 57 q-140 30 -189 91q-36 45 -36 96q0 17 4 35zM129 132q15 -9 38 -9q17 0 37 5q4 2 3 22t-5 44t-10 44t-10 22q-46 -8 -67 -34q-18 -22 -18 -44q0 -31 32 -50zM261 935q-2 -38 -2 -77q0 -47 3 -96q6 -90 28 -168q28 220 39 354q9 113 9 178v22q-2 66 -12 72q-1 1 -3 1 q-9 0 -20 -31q-13 -36 -25 -104t-17 -151zM319 -332v-25q0 -76 5 -155q6 -92 25 -174t53 -149t88 -103q92 0 166 44t126 113t81 153t29 166q1 17 1 33q0 117 -39 191q-44 84 -121 129t-178 59q-88 12 -181 12h-26q-10 -52 -19 -129t-10 -165zM332 252q-2 -10 -2 -22 q0 -31 14 -78q2 -16 24 -31t56 -28t73 -22t75 -13q18 -2 34 -2t29 2q27 4 35 16q-32 48 -74 91t-84 74t-81 46q-27 10 -47 10q-10 0 -18 -2q-26 -7 -34 -41z" />
</font>
</defs>
</svg>
